<svg version="1.1" id="Layer_1" xmlns="http://www.w3.org/2000/svg" xmlns:xlink="http://www.w3.org/1999/xlink" x="0px" y="0px"
	 width="100%" viewBox="0 0 512 512" enable-background="new 0 0 512 512" xml:space="preserve">
<path fill="#FFFFFF" opacity="1.000000" stroke="none" 
	d="
M147.000000,513.000000 
	C98.361885,513.000000 49.723770,513.000000 1.056833,513.000000 
	C1.056833,342.333313 1.056833,171.666656 1.056833,1.000000 
	C30.096672,1.000000 59.079678,1.000000 88.422836,1.360649 
	C79.589592,4.384424 72.926353,9.825071 71.051857,19.510069 
	C70.068405,24.591305 69.779945,29.943520 70.110802,35.113644 
	C70.755753,45.191738 71.228813,55.399071 73.264343,65.244560 
	C77.130280,83.943451 82.929558,102.084023 91.887451,119.131897 
	C94.293655,123.711166 97.557320,124.500214 101.963631,124.420105 
	C104.057381,128.192917 106.108894,131.604721 107.993988,135.364868 
	C107.224808,137.817673 105.467453,140.586792 106.227341,141.906738 
	C108.926369,146.594879 111.933823,151.415924 115.932915,154.922501 
	C118.143684,156.860992 122.560585,156.283508 126.294769,156.981232 
	C129.752350,159.810120 132.898163,162.497955 135.862045,165.530151 
	C134.032120,169.672745 134.823746,173.140656 138.061295,175.440155 
	C148.710754,183.003998 159.105881,191.069351 170.393646,197.559464 
	C190.245209,208.973480 211.785583,216.564606 234.051865,221.765457 
	C238.278046,222.752579 238.233795,224.693466 237.960922,227.526825 
	C237.414566,233.199448 236.526062,238.839890 236.012161,244.514725 
	C234.609299,260.006012 233.060638,275.491791 232.100067,291.012573 
	C231.540009,300.061920 231.950912,299.955017 223.544373,302.888947 
	C198.481613,311.635986 179.268234,327.418793 166.667679,350.910980 
	C165.371643,353.327271 163.969650,354.051331 161.335526,354.080048 
	C155.759384,354.140869 150.127914,354.247925 144.625427,355.057983 
	C120.273804,358.643036 102.476547,372.059784 90.156143,392.869446 
	C87.176865,397.901550 86.159691,401.122650 78.186691,399.515900 
	C63.241646,396.504089 49.005409,400.164246 37.079712,411.218048 
	C23.609154,423.703735 19.048458,439.243713 22.446398,456.283264 
	C26.125763,474.734100 37.815533,487.525360 56.487228,492.762909 
	C69.652351,496.455811 82.451149,495.080963 94.073647,487.816528 
	C97.570267,485.631073 99.026588,486.386749 101.371284,488.809570 
	C109.350021,497.054199 118.493332,503.723907 129.341949,507.669312 
	C135.111145,509.767395 141.106644,511.243286 147.000000,513.000000 
M125.160400,325.365601 
	C127.461884,322.941315 129.763367,320.517029 132.887314,318.007782 
	C139.582260,317.967224 142.237976,315.471436 141.960205,308.888275 
	C141.570282,299.646698 136.710007,288.914825 121.876167,285.487549 
	C106.609200,281.960114 90.912628,293.679474 91.391212,310.473541 
	C91.736816,322.601105 98.110138,333.341766 113.784035,335.100342 
	C121.021652,335.912445 124.919937,333.085449 125.160400,325.365601 
M93.996155,346.884430 
	C91.818848,342.150085 88.514359,339.995941 85.175774,341.383667 
	C81.490326,342.915588 79.351624,345.799805 80.111031,349.820312 
	C80.979599,354.418762 84.601067,355.426727 88.689178,354.967926 
	C92.970467,354.487457 94.311646,351.649872 93.996155,346.884430 
z"/>
<path fill="#FFFFFF" opacity="1.000000" stroke="none" 
	d="
M456.000000,1.000000 
	C474.988373,1.000000 493.976715,1.000000 512.982544,1.000000 
	C512.982544,171.550598 512.982544,342.101196 512.982544,513.000000 
	C464.646332,513.000000 416.291809,513.000000 367.609558,512.612061 
	C371.667999,511.203003 376.112488,510.381744 380.429413,509.123138 
	C393.373108,505.349426 403.913605,497.718994 413.270111,488.249664 
	C414.720825,486.781464 415.743591,485.056213 418.584808,486.931488 
	C427.851562,493.047699 437.978485,495.534698 449.258850,494.129791 
	C459.194916,492.892334 467.876282,489.730927 475.543365,483.101959 
	C487.888794,472.428101 493.046478,459.205750 492.095428,443.020905 
	C491.309296,429.643036 485.745422,419.036835 475.840973,410.298187 
	C463.046112,399.009308 448.151703,396.616211 432.124084,400.218811 
	C428.657654,400.997955 427.726624,400.226074 426.148041,397.680237 
	C421.823242,390.705597 418.015228,383.124176 412.444702,377.263855 
	C397.670380,361.721008 378.650146,354.903290 357.524536,354.157410 
	C351.861053,353.957458 347.514038,353.821655 345.540863,347.324677 
	C344.601990,344.233276 342.021881,341.582855 339.971008,338.896179 
	C328.799591,324.261292 315.149567,312.761780 297.838898,305.974152 
	C292.217896,303.770172 286.572968,301.627228 280.717834,299.371155 
	C282.997681,275.271820 285.257660,251.382141 287.545502,227.198181 
	C296.875763,225.692749 305.812439,224.992447 314.334778,222.730927 
	C336.255493,216.913986 357.383911,209.114090 376.900879,197.113281 
	C400.102020,182.847107 419.343750,164.629059 435.133850,142.535385 
	C449.315948,122.691704 459.404022,100.877762 465.843719,77.498886 
	C469.688873,63.539230 472.149017,49.186245 474.942230,34.953243 
	C476.530151,26.861971 475.851257,18.990238 471.015320,11.840431 
	C467.303650,6.352808 461.638672,3.732655 456.000000,1.000000 
M370.142487,339.671814 
	C375.117737,340.686096 379.780060,342.236511 385.256439,341.196991 
	C397.293549,338.912018 405.218933,329.153137 405.916656,317.874054 
	C406.970886,300.831238 391.059723,287.244659 374.282196,292.030640 
	C361.837891,295.580536 357.030060,302.805389 355.069336,315.672302 
	C353.771851,324.187042 360.909058,335.230957 370.142487,339.671814 
M420.989594,329.958466 
	C421.880859,329.252716 422.897766,328.658264 423.639923,327.820404 
	C425.919067,325.247253 425.551361,319.528931 423.073853,317.591339 
	C419.686218,314.941956 414.917023,315.288849 412.818329,318.906372 
	C411.785065,320.687378 411.542694,323.445129 412.045624,325.489502 
	C413.033661,329.505890 416.341858,330.476044 420.989594,329.958466 
M411.045776,356.170929 
	C411.480957,357.039978 411.804932,357.990356 412.370605,358.763977 
	C414.822144,362.116791 417.739288,362.938416 421.746857,361.136963 
	C426.188354,359.140472 425.439178,355.351624 424.786743,352.272064 
	C423.998627,348.551697 420.402008,347.519928 416.967072,348.088959 
	C413.115570,348.727051 411.448975,351.690704 411.045776,356.170929 
z"/>
<path fill="#010100" opacity="1.000000" stroke="none" 
	d="
M455.532043,1.000000 
	C461.638672,3.732655 467.303650,6.352808 471.015320,11.840431 
	C475.851257,18.990238 476.530151,26.861971 474.942230,34.953243 
	C472.149017,49.186245 469.688873,63.539230 465.843719,77.498886 
	C459.404022,100.877762 449.315948,122.691704 435.133850,142.535385 
	C419.343750,164.629059 400.102020,182.847107 376.900879,197.113281 
	C357.383911,209.114090 336.255493,216.913986 314.334778,222.730927 
	C305.812439,224.992447 296.875763,225.692749 287.545502,227.198181 
	C285.257660,251.382141 282.997681,275.271820 280.717834,299.371155 
	C286.572968,301.627228 292.217896,303.770172 297.838898,305.974152 
	C315.149567,312.761780 328.799591,324.261292 339.971008,338.896179 
	C342.021881,341.582855 344.601990,344.233276 345.540863,347.324677 
	C347.514038,353.821655 351.861053,353.957458 357.524536,354.157410 
	C378.650146,354.903290 397.670380,361.721008 412.444702,377.263855 
	C418.015228,383.124176 421.823242,390.705597 426.148041,397.680237 
	C427.726624,400.226074 428.657654,400.997955 432.124084,400.218811 
	C448.151703,396.616211 463.046112,399.009308 475.840973,410.298187 
	C485.745422,419.036835 491.309296,429.643036 492.095428,443.020905 
	C493.046478,459.205750 487.888794,472.428101 475.543365,483.101959 
	C467.876282,489.730927 459.194916,492.892334 449.258850,494.129791 
	C437.978485,495.534698 427.851562,493.047699 418.584808,486.931488 
	C415.743591,485.056213 414.720825,486.781464 413.270111,488.249664 
	C403.913605,497.718994 393.373108,505.349426 380.429413,509.123138 
	C376.112488,510.381744 371.667999,511.203003 367.140930,512.612061 
	C358.979095,513.000000 350.958191,513.000000 342.332092,512.615479 
	C327.683929,510.240845 315.385529,504.337280 304.158295,495.827423 
	C302.824585,494.816498 300.169800,494.297150 298.697601,494.912994 
	C283.433044,501.298706 267.753998,504.126770 251.099197,503.190521 
	C238.609634,502.488434 226.943787,499.526154 215.446594,495.022797 
	C213.905884,494.419312 211.460159,494.840057 209.945724,495.694427 
	C205.200439,498.371552 200.978851,502.120270 196.040848,504.279510 
	C188.246490,507.687744 180.034958,510.141968 172.000000,513.000000 
	C163.979095,513.000000 155.958191,513.000000 147.468643,513.000000 
	C141.106644,511.243286 135.111145,509.767395 129.341949,507.669312 
	C118.493332,503.723907 109.350021,497.054199 101.371284,488.809570 
	C99.026588,486.386749 97.570267,485.631073 94.073647,487.816528 
	C82.451149,495.080963 69.652351,496.455811 56.487228,492.762909 
	C37.815533,487.525360 26.125763,474.734100 22.446398,456.283264 
	C19.048458,439.243713 23.609154,423.703735 37.079712,411.218048 
	C49.005409,400.164246 63.241646,396.504089 78.186691,399.515900 
	C86.159691,401.122650 87.176865,397.901550 90.156143,392.869446 
	C102.476547,372.059784 120.273804,358.643036 144.625427,355.057983 
	C150.127914,354.247925 155.759384,354.140869 161.335526,354.080048 
	C163.969650,354.051331 165.371643,353.327271 166.667679,350.910980 
	C179.268234,327.418793 198.481613,311.635986 223.544373,302.888947 
	C231.950912,299.955017 231.540009,300.061920 232.100067,291.012573 
	C233.060638,275.491791 234.609299,260.006012 236.012161,244.514725 
	C236.526062,238.839890 237.414566,233.199448 237.960922,227.526825 
	C238.233795,224.693466 238.278046,222.752579 234.051865,221.765457 
	C211.785583,216.564606 190.245209,208.973480 170.393646,197.559464 
	C159.105881,191.069351 148.710754,183.003998 138.061295,175.440155 
	C134.823746,173.140656 134.032120,169.672745 136.182556,165.350845 
	C141.267960,160.954514 143.958740,160.717911 148.669647,164.057510 
	C152.609070,166.850159 156.337662,169.944427 160.317001,172.675812 
	C178.125793,184.899612 197.278030,194.394882 218.313980,200.887848 
	C226.210358,203.195358 233.749512,205.354340 241.639069,207.613678 
	C243.339096,199.521881 244.902893,192.427872 246.248550,185.292709 
	C246.447876,184.235825 245.967987,182.628128 245.207520,181.879593 
	C238.948654,175.718903 232.549194,169.701065 226.023758,163.356354 
	C222.180923,158.230591 217.570206,156.488495 211.275696,156.612671 
	C196.797638,156.898315 182.301239,156.213516 167.811554,155.964233 
	C159.970047,155.829315 156.138397,153.182739 156.358490,147.928101 
	C156.568924,142.903580 160.115860,140.772369 167.951355,140.801514 
	C179.369995,140.843994 190.788910,140.812424 200.621948,140.812424 
	C193.675400,133.291809 186.085678,124.986656 178.338531,116.831047 
	C177.605927,116.059822 175.889359,116.018974 174.621872,115.991142 
	C158.634308,115.640045 142.645309,115.354111 126.656708,115.050095 
	C125.157784,115.021591 123.643082,115.110817 122.163239,114.925537 
	C117.898338,114.391533 114.963425,111.159859 115.068321,107.262062 
	C115.174522,103.315773 118.192772,100.257423 122.507240,99.986549 
	C125.161766,99.819885 127.836113,99.974289 130.501556,99.974953 
	C140.415268,99.977432 150.328979,99.975945 161.060623,99.975945 
	C159.826752,98.641937 159.119263,97.805176 158.338501,97.043503 
	C141.762161,80.872101 125.172546,64.714279 108.604271,48.534611 
	C107.300148,47.261063 105.910324,45.987926 104.949287,44.468567 
	C102.946938,41.302959 103.189285,38.009163 105.744316,35.298771 
	C108.304924,32.582458 111.543633,32.083988 114.837387,34.024967 
	C116.247459,34.855915 117.487785,36.027210 118.672577,37.180180 
	C132.881088,51.007092 147.060623,64.863754 161.261826,78.698166 
	C162.493073,79.897606 163.824341,80.994354 166.279831,83.181595 
	C165.927917,79.531311 165.890686,77.445068 165.502518,75.426300 
	C164.152573,68.405533 162.606522,61.422184 161.282410,54.396835 
	C160.432999,49.890163 162.817062,45.980385 166.714966,45.043312 
	C171.093231,43.990757 174.649353,46.289066 176.050018,51.108707 
	C176.374756,52.226112 176.643723,53.363304 176.871674,54.504707 
	C179.932602,69.831299 182.965759,85.163483 186.063141,100.482689 
	C186.318130,101.743851 186.690033,103.195686 187.514542,104.093285 
	C193.793869,110.929283 200.199356,117.649399 206.565567,124.405602 
	C207.018082,124.026733 207.470596,123.647858 207.923126,123.268990 
	C207.789856,122.175713 207.723938,121.069237 207.512650,119.991257 
	C205.881653,111.669724 204.135239,103.369705 202.607437,95.029518 
	C201.793854,90.588135 203.984970,86.965416 207.691666,85.962906 
	C212.168106,84.752205 215.660492,86.799881 217.246185,91.630692 
	C217.606979,92.729828 217.796295,93.888290 218.024246,95.027519 
	C221.058167,110.190178 223.993210,125.373856 227.221542,140.494934 
	C227.658798,142.542999 229.558167,144.278900 230.947235,146.450226 
	C237.554626,153.065842 243.995316,159.390533 250.743362,166.017075 
	C254.961349,154.537506 258.865814,144.012985 262.648987,133.445053 
	C262.996246,132.474930 262.920898,131.042892 262.446472,130.137238 
	C257.690216,121.057892 252.809265,112.043869 247.911896,102.667694 
	C247.196213,101.172516 246.607193,99.969482 245.857101,98.877060 
	C210.465378,47.335106 160.608139,21.391792 99.125374,16.262362 
	C89.346405,15.446514 84.627937,20.553705 85.159958,30.491261 
	C86.659477,58.501228 92.455956,85.441505 105.288734,110.625511 
	C108.668831,117.258888 107.929123,119.738190 101.921387,124.059074 
	C97.557320,124.500214 94.293655,123.711166 91.887451,119.131897 
	C82.929558,102.084023 77.130280,83.943451 73.264343,65.244560 
	C71.228813,55.399071 70.755753,45.191738 70.110802,35.113644 
	C69.779945,29.943520 70.068405,24.591305 71.051857,19.510069 
	C72.926353,9.825071 79.589592,4.384424 88.891495,1.360649 
	C96.020950,1.000000 103.041893,1.000000 110.685852,1.398293 
	C114.545044,2.196532 117.788208,2.547186 121.016251,3.004531 
	C140.071320,5.704233 158.260010,11.465994 175.707504,19.384995 
	C193.126266,27.290968 209.195999,37.351959 223.719116,50.021893 
	C238.757019,63.140942 251.603790,77.948128 261.975952,94.937416 
	C265.431244,100.597122 268.650055,106.401207 272.080505,112.317802 
	C274.949524,107.377312 277.462433,102.729164 280.272125,98.267952 
	C291.737488,80.063393 305.083710,63.420494 321.822876,49.756912 
	C327.953186,44.752975 334.096252,39.503971 340.986664,35.748775 
	C353.479919,28.940083 366.221771,22.357792 379.450195,17.193123 
	C392.380188,12.144972 406.006012,8.838686 419.409027,5.060818 
	C425.503357,3.343022 431.796844,2.331752 438.000000,1.000000 
	C443.688049,1.000000 449.376068,1.000000 455.532043,1.000000 
M220.417206,479.606720 
	C245.787430,491.176331 270.989502,490.486450 296.042633,478.579926 
	C303.848114,474.870392 305.236053,475.062134 311.085052,480.557159 
	C338.446259,506.262939 382.846222,502.541412 405.605804,472.634583 
	C412.282593,463.861145 415.096252,463.571777 423.203583,470.824646 
	C435.668182,481.975586 454.416931,481.599060 466.776245,469.949646 
	C478.687164,458.722839 480.121857,439.634094 470.018097,426.816437 
	C460.164062,414.315582 444.159698,410.876770 429.174072,418.040466 
	C421.955872,421.490967 418.621674,420.234741 415.542633,412.881195 
	C414.836487,411.194672 414.231506,409.465179 413.505280,407.787781 
	C408.479279,396.178711 400.704407,386.863708 390.112610,379.932556 
	C377.403992,371.616211 363.490326,368.046173 348.378235,369.843170 
	C342.208710,370.576782 338.497437,368.340942 335.669708,362.746124 
	C332.698822,356.868073 328.611755,351.554138 324.795044,345.356598 
	C311.450226,329.274200 294.649414,318.915588 274.084290,314.865906 
	C249.234024,309.972382 226.521698,315.140930 205.892395,329.663208 
	C193.784378,338.186798 184.835632,349.399139 178.226196,362.591248 
	C174.735962,369.557526 172.840469,370.365875 165.193832,369.842560 
	C161.081543,369.561066 156.903564,369.519623 152.803726,369.896942 
	C132.010284,371.810516 116.125504,381.949982 104.997047,399.429413 
	C102.167320,403.874023 100.333107,408.959717 98.114807,413.784546 
	C95.289032,419.930695 91.806282,421.274506 85.736374,418.504852 
	C83.619576,417.539001 81.513428,416.508698 79.314079,415.771332 
	C60.222977,409.370819 36.189167,423.210358 37.311699,448.270935 
	C37.915257,461.745361 45.142719,471.655823 57.728909,476.605560 
	C70.299416,481.549103 81.882973,478.984619 91.948685,469.780731 
	C98.295616,463.977173 102.051086,464.368835 107.264793,471.065155 
	C132.372147,503.312164 174.136902,506.949951 204.049591,479.385376 
	C207.735184,475.989105 211.369171,475.140747 215.804520,477.487793 
	C217.106216,478.176636 218.569931,478.559296 220.417206,479.606720 
M322.854797,70.372307 
	C320.854156,72.373352 318.782379,74.308640 316.863647,76.385353 
	C290.126648,105.324020 273.865265,139.746918 263.990662,177.506104 
	C256.220428,207.218552 251.815750,237.490250 249.192093,268.035858 
	C248.345352,277.893890 248.113007,287.804657 247.601898,297.647217 
	C254.119034,297.647217 259.847992,297.647217 265.729187,297.647217 
	C265.832855,295.657745 265.848328,294.004791 266.014984,292.367157 
	C268.440460,268.529022 270.764099,244.679398 273.401520,220.864578 
	C274.189178,213.752396 276.065125,212.408966 283.345276,211.356567 
	C291.080383,210.238373 298.913788,209.571579 306.533020,207.918365 
	C349.901855,198.508316 386.771973,177.959503 414.939514,143.162094 
	C441.989471,109.745270 454.574097,70.517029 459.841156,28.521915 
	C460.788177,20.971077 454.741882,15.227998 447.100098,16.397154 
	C436.258667,18.055836 425.322144,19.511457 414.712250,22.187660 
	C380.531647,30.809231 348.933777,44.632267 322.854797,70.372307 
z"/>
<path fill="#FFFFFF" opacity="1.000000" stroke="none" 
	d="
M437.531342,1.000000 
	C431.796844,2.331752 425.503357,3.343022 419.409027,5.060818 
	C406.006012,8.838686 392.380188,12.144972 379.450195,17.193123 
	C366.221771,22.357792 353.479919,28.940083 340.986664,35.748775 
	C334.096252,39.503971 327.953186,44.752975 321.822876,49.756912 
	C305.083710,63.420494 291.737488,80.063393 280.272125,98.267952 
	C277.462433,102.729164 274.949524,107.377312 272.080505,112.317802 
	C268.650055,106.401207 265.431244,100.597122 261.975952,94.937416 
	C251.603790,77.948128 238.757019,63.140942 223.719116,50.021893 
	C209.195999,37.351959 193.126266,27.290968 175.707504,19.384995 
	C158.260010,11.465994 140.071320,5.704233 121.016251,3.004531 
	C117.788208,2.547186 114.545044,2.196532 111.154434,1.398293 
	C219.687561,1.000000 328.375122,1.000000 437.531342,1.000000 
z"/>
<path fill="#FFFFFF" opacity="1.000000" stroke="none" 
	d="
M172.468658,513.000000 
	C180.034958,510.141968 188.246490,507.687744 196.040848,504.279510 
	C200.978851,502.120270 205.200439,498.371552 209.945724,495.694427 
	C211.460159,494.840057 213.905884,494.419312 215.446594,495.022797 
	C226.943787,499.526154 238.609634,502.488434 251.099197,503.190521 
	C267.753998,504.126770 283.433044,501.298706 298.697601,494.912994 
	C300.169800,494.297150 302.824585,494.816498 304.158295,495.827423 
	C315.385529,504.337280 327.683929,510.240845 341.863464,512.615479 
	C285.645782,513.000000 229.291550,513.000000 172.468658,513.000000 
z"/>
<path fill="#6CC62A" opacity="1.000000" stroke="none" 
	d="
M101.963631,124.420105 
	C107.929123,119.738190 108.668831,117.258888 105.288734,110.625511 
	C92.455956,85.441505 86.659477,58.501228 85.159958,30.491261 
	C84.627937,20.553705 89.346405,15.446514 99.125374,16.262362 
	C160.608139,21.391792 210.465378,47.335106 245.857101,98.877060 
	C246.607193,99.969482 247.196213,101.172516 247.637909,102.872261 
	C243.938324,111.801308 240.345932,120.136673 237.023941,128.578445 
	C234.747986,134.362076 232.848373,140.293808 230.780518,146.159332 
	C229.558167,144.278900 227.658798,142.542999 227.221542,140.494934 
	C223.993210,125.373856 221.058167,110.190178 218.024246,95.027519 
	C217.796295,93.888290 217.606979,92.729828 217.246185,91.630692 
	C215.660492,86.799881 212.168106,84.752205 207.691666,85.962906 
	C203.984970,86.965416 201.793854,90.588135 202.607437,95.029518 
	C204.135239,103.369705 205.881653,111.669724 207.512650,119.991257 
	C207.723938,121.069237 207.789856,122.175713 207.923126,123.268990 
	C207.470596,123.647858 207.018082,124.026733 206.565567,124.405602 
	C200.199356,117.649399 193.793869,110.929283 187.514542,104.093285 
	C186.690033,103.195686 186.318130,101.743851 186.063141,100.482689 
	C182.965759,85.163483 179.932602,69.831299 176.871674,54.504707 
	C176.643723,53.363304 176.374756,52.226112 176.050018,51.108707 
	C174.649353,46.289066 171.093231,43.990757 166.714966,45.043312 
	C162.817062,45.980385 160.432999,49.890163 161.282410,54.396835 
	C162.606522,61.422184 164.152573,68.405533 165.502518,75.426300 
	C165.890686,77.445068 165.927917,79.531311 166.279831,83.181595 
	C163.824341,80.994354 162.493073,79.897606 161.261826,78.698166 
	C147.060623,64.863754 132.881088,51.007092 118.672577,37.180180 
	C117.487785,36.027210 116.247459,34.855915 114.837387,34.024967 
	C111.543633,32.083988 108.304924,32.582458 105.744316,35.298771 
	C103.189285,38.009163 102.946938,41.302959 104.949287,44.468567 
	C105.910324,45.987926 107.300148,47.261063 108.604271,48.534611 
	C125.172546,64.714279 141.762161,80.872101 158.338501,97.043503 
	C159.119263,97.805176 159.826752,98.641937 161.060623,99.975945 
	C150.328979,99.975945 140.415268,99.977432 130.501556,99.974953 
	C127.836113,99.974289 125.161766,99.819885 122.507240,99.986549 
	C118.192772,100.257423 115.174522,103.315773 115.068321,107.262062 
	C114.963425,111.159859 117.898338,114.391533 122.163239,114.925537 
	C123.643082,115.110817 125.157784,115.021591 126.656708,115.050095 
	C142.645309,115.354111 158.634308,115.640045 174.621872,115.991142 
	C175.889359,116.018974 177.605927,116.059822 178.338531,116.831047 
	C186.085678,124.986656 193.675400,133.291809 200.621948,140.812424 
	C190.788910,140.812424 179.369995,140.843994 167.951355,140.801514 
	C160.115860,140.772369 156.568924,142.903580 156.358490,147.928101 
	C156.138397,153.182739 159.970047,155.829315 167.811554,155.964233 
	C182.301239,156.213516 196.797638,156.898315 211.275696,156.612671 
	C217.570206,156.488495 222.180923,158.230591 225.963837,163.783142 
	C223.367249,176.575424 220.662003,188.657379 217.956741,200.739319 
	C197.278030,194.394882 178.125793,184.899612 160.317001,172.675812 
	C156.337662,169.944427 152.609070,166.850159 148.669647,164.057510 
	C143.958740,160.717911 141.267960,160.954514 136.364471,165.006500 
	C132.898163,162.497955 129.752350,159.810120 126.363922,156.634583 
	C130.140060,149.893661 130.082428,147.869614 125.698509,142.458984 
	C124.761192,141.302155 123.766487,140.191956 122.821854,139.040878 
	C117.191147,132.179672 116.219559,131.910263 108.160400,135.016510 
	C106.108894,131.604721 104.057381,128.192917 101.963631,124.420105 
z"/>
<path fill="#010100" opacity="1.000000" stroke="none" 
	d="
M124.836296,325.988190 
	C124.919937,333.085449 121.021652,335.912445 113.784035,335.100342 
	C98.110138,333.341766 91.736816,322.601105 91.391212,310.473541 
	C90.912628,293.679474 106.609200,281.960114 121.876167,285.487549 
	C136.710007,288.914825 141.570282,299.646698 141.960205,308.888275 
	C142.237976,315.471436 139.582260,317.967224 132.190857,317.850067 
	C129.700684,314.869507 127.227982,312.259735 126.260666,309.177521 
	C124.481598,303.508881 121.542519,300.632721 116.167572,300.925446 
	C111.467590,301.181427 107.749626,304.726196 107.227844,309.448761 
	C106.703735,314.192383 110.094170,318.968506 115.420258,319.650421 
	C119.886299,320.222260 122.627129,322.498108 124.836296,325.988190 
z"/>
<path fill="#010200" opacity="1.000000" stroke="none" 
	d="
M107.993988,135.364868 
	C116.219559,131.910263 117.191147,132.179672 122.821854,139.040878 
	C123.766487,140.191956 124.761192,141.302155 125.698509,142.458984 
	C130.082428,147.869614 130.140060,149.893661 126.052155,156.493546 
	C122.560585,156.283508 118.143684,156.860992 115.932915,154.922501 
	C111.933823,151.415924 108.926369,146.594879 106.227341,141.906738 
	C105.467453,140.586792 107.224808,137.817673 107.993988,135.364868 
z"/>
<path fill="#A75F00" opacity="1.000000" stroke="none" 
	d="
M124.998352,325.676880 
	C122.627129,322.498108 119.886299,320.222260 115.420258,319.650421 
	C110.094170,318.968506 106.703735,314.192383 107.227844,309.448761 
	C107.749626,304.726196 111.467590,301.181427 116.167572,300.925446 
	C121.542519,300.632721 124.481598,303.508881 126.260666,309.177521 
	C127.227982,312.259735 129.700684,314.869507 131.779633,317.892548 
	C129.763367,320.517029 127.461884,322.941315 124.998352,325.676880 
z"/>
<path fill="#AA6100" opacity="1.000000" stroke="none" 
	d="
M93.997772,347.294434 
	C94.311646,351.649872 92.970467,354.487457 88.689178,354.967926 
	C84.601067,355.426727 80.979599,354.418762 80.111031,349.820312 
	C79.351624,345.799805 81.490326,342.915588 85.175774,341.383667 
	C88.514359,339.995941 91.818848,342.150085 93.997772,347.294434 
z"/>
<path fill="#010000" opacity="1.000000" stroke="none" 
	d="
M369.866302,339.383789 
	C360.909058,335.230957 353.771851,324.187042 355.069336,315.672302 
	C357.030060,302.805389 361.837891,295.580536 374.282196,292.030640 
	C391.059723,287.244659 406.970886,300.831238 405.916656,317.874054 
	C405.218933,329.153137 397.293549,338.912018 385.256439,341.196991 
	C379.780060,342.236511 375.117737,340.686096 369.866302,339.383789 
M382.897766,307.153687 
	C376.846405,306.796814 373.270752,308.677795 371.651764,313.210449 
	C370.116333,317.509247 371.377716,321.133881 374.827484,323.898773 
	C379.203735,327.406250 385.234589,326.365601 388.405090,321.742523 
	C391.971283,316.542419 390.173981,311.091461 382.897766,307.153687 
z"/>
<path fill="#CC7400" opacity="1.000000" stroke="none" 
	d="
M420.575073,329.976562 
	C416.341858,330.476044 413.033661,329.505890 412.045624,325.489502 
	C411.542694,323.445129 411.785065,320.687378 412.818329,318.906372 
	C414.917023,315.288849 419.686218,314.941956 423.073853,317.591339 
	C425.551361,319.528931 425.919067,325.247253 423.639923,327.820404 
	C422.897766,328.658264 421.880859,329.252716 420.575073,329.976562 
z"/>
<path fill="#CC7400" opacity="1.000000" stroke="none" 
	d="
M411.026428,355.781982 
	C411.448975,351.690704 413.115570,348.727051 416.967072,348.088959 
	C420.402008,347.519928 423.998627,348.551697 424.786743,352.272064 
	C425.439178,355.351624 426.188354,359.140472 421.746857,361.136963 
	C417.739288,362.938416 414.822144,362.116791 412.370605,358.763977 
	C411.804932,357.990356 411.480957,357.039978 411.026428,355.781982 
z"/>
<path fill="#CB7300" opacity="1.000000" stroke="none" 
	d="
M325.012421,345.993713 
	C328.611755,351.554138 332.698822,356.868073 335.669708,362.746124 
	C338.497437,368.340942 342.208710,370.576782 348.378235,369.843170 
	C363.490326,368.046173 377.403992,371.616211 390.112610,379.932556 
	C400.704407,386.863708 408.479279,396.178711 413.505280,407.787781 
	C414.231506,409.465179 414.836487,411.194672 415.542633,412.881195 
	C418.621674,420.234741 421.955872,421.490967 429.174072,418.040466 
	C444.159698,410.876770 460.164062,414.315582 470.018097,426.816437 
	C480.121857,439.634094 478.687164,458.722839 466.776245,469.949646 
	C454.416931,481.599060 435.668182,481.975586 423.203583,470.824646 
	C415.096252,463.571777 412.282593,463.861145 405.605804,472.634583 
	C382.846222,502.541412 338.446259,506.262939 311.085052,480.557159 
	C305.236053,475.062134 303.848114,474.870392 296.042633,478.579926 
	C270.989502,490.486450 245.787430,491.176331 220.200394,478.947723 
	C219.104416,475.443787 218.015427,472.644409 217.385422,469.745331 
	C215.497131,461.056122 212.651764,452.380890 212.243195,443.604156 
	C211.363052,424.696381 215.744568,406.789215 225.771652,390.438171 
	C235.578140,374.446808 248.708710,361.941193 265.561554,353.895660 
	C284.387268,344.908325 304.279449,341.729340 325.012421,345.993713 
M347.216949,450.102264 
	C340.394958,450.995850 338.438568,453.267731 338.817596,459.856293 
	C339.543396,472.473114 350.802002,482.808533 363.524933,482.537598 
	C376.753998,482.255890 387.549469,471.884064 388.030396,458.993866 
	C388.526093,445.707001 378.771484,434.191833 366.074921,433.075836 
	C359.146606,432.466827 356.346039,434.893127 355.146912,442.074707 
	C352.145966,444.179504 347.956940,445.218842 347.216949,450.102264 
M316.653076,426.847015 
	C316.965546,425.901581 317.316437,424.966888 317.584595,424.009064 
	C320.789673,412.560181 315.741333,400.664368 305.381073,395.224518 
	C295.126892,389.840393 282.275116,392.239075 275.065887,400.975494 
	C268.548798,408.873199 267.056305,417.756439 271.176331,427.083313 
	C275.294495,436.405945 282.912842,441.562836 293.078552,441.836700 
	C303.678375,442.122284 311.440887,436.994049 316.653076,426.847015 
M424.545868,436.702789 
	C425.640228,432.983124 424.681976,429.662781 420.934326,428.728027 
	C418.666199,428.162292 414.912994,428.831390 413.613953,430.413177 
	C412.287537,432.028320 412.273682,435.826935 413.232513,437.980865 
	C415.169373,442.331848 419.639832,441.874542 424.545868,436.702789 
M345.911865,395.659332 
	C344.047760,399.006470 344.881470,402.244049 347.963959,403.708191 
	C350.082550,404.714508 353.524170,404.585541 355.656860,403.523346 
	C358.815369,401.950165 358.794403,396.616486 356.260590,393.954529 
	C353.528473,391.084381 350.244568,391.460754 345.911865,395.659332 
M281.047913,377.383789 
	C282.891266,374.187347 282.516052,371.127472 279.470276,369.182526 
	C277.809235,368.121796 274.838806,367.316681 273.417999,368.111267 
	C271.470551,369.200409 269.598419,371.795715 269.277618,373.978271 
	C269.031067,375.655823 270.971649,379.000977 272.397247,379.281830 
	C274.917419,379.778412 277.786011,378.506927 281.047913,377.383789 
M249.429474,461.317841 
	C248.443405,468.139618 251.778366,472.560150 256.604828,470.459045 
	C258.473389,469.645599 260.626129,467.101196 260.729523,465.238739 
	C260.850372,463.062592 259.439148,459.986969 257.673920,458.711578 
	C255.034607,456.804749 251.979996,457.887634 249.429474,461.317841 
z"/>
<path fill="#A96100" opacity="1.000000" stroke="none" 
	d="
M324.903748,345.675171 
	C304.279449,341.729340 284.387268,344.908325 265.561554,353.895660 
	C248.708710,361.941193 235.578140,374.446808 225.771652,390.438171 
	C215.744568,406.789215 211.363052,424.696381 212.243195,443.604156 
	C212.651764,452.380890 215.497131,461.056122 217.385422,469.745331 
	C218.015427,472.644409 219.104416,475.443787 219.971497,478.685486 
	C218.569931,478.559296 217.106216,478.176636 215.804520,477.487793 
	C211.369171,475.140747 207.735184,475.989105 204.049591,479.385376 
	C174.136902,506.949951 132.372147,503.312164 107.264793,471.065155 
	C102.051086,464.368835 98.295616,463.977173 91.948685,469.780731 
	C81.882973,478.984619 70.299416,481.549103 57.728909,476.605560 
	C45.142719,471.655823 37.915257,461.745361 37.311699,448.270935 
	C36.189167,423.210358 60.222977,409.370819 79.314079,415.771332 
	C81.513428,416.508698 83.619576,417.539001 85.736374,418.504852 
	C91.806282,421.274506 95.289032,419.930695 98.114807,413.784546 
	C100.333107,408.959717 102.167320,403.874023 104.997047,399.429413 
	C116.125504,381.949982 132.010284,371.810516 152.803726,369.896942 
	C156.903564,369.519623 161.081543,369.561066 165.193832,369.842560 
	C172.840469,370.365875 174.735962,369.557526 178.226196,362.591248 
	C184.835632,349.399139 193.784378,338.186798 205.892395,329.663208 
	C226.521698,315.140930 249.234024,309.972382 274.084290,314.865906 
	C294.649414,318.915588 311.450226,329.274200 324.903748,345.675171 
z"/>
<path fill="#8FDA59" opacity="1.000000" stroke="none" 
	d="
M323.114258,70.127098 
	C348.933777,44.632267 380.531647,30.809231 414.712250,22.187660 
	C425.322144,19.511457 436.258667,18.055836 447.100098,16.397154 
	C454.741882,15.227998 460.788177,20.971077 459.841156,28.521915 
	C454.574097,70.517029 441.989471,109.745270 414.939514,143.162094 
	C386.771973,177.959503 349.901855,198.508316 306.533020,207.918365 
	C298.913788,209.571579 291.080383,210.238373 283.345276,211.356567 
	C276.065125,212.408966 274.189178,213.752396 273.401520,220.864578 
	C270.764099,244.679398 268.440460,268.529022 266.014984,292.367157 
	C265.848328,294.004791 265.832855,295.657745 265.729187,297.647217 
	C259.847992,297.647217 254.119034,297.647217 247.601898,297.647217 
	C248.113007,287.804657 248.345352,277.893890 249.192093,268.035858 
	C251.815750,237.490250 256.220428,207.218552 263.990662,177.506104 
	C273.865265,139.746918 290.126648,105.324020 316.863647,76.385353 
	C318.782379,74.308640 320.854156,72.373352 323.114258,70.127098 
M335.088898,85.853821 
	C328.503235,85.758644 326.612000,87.493362 325.126617,94.939308 
	C322.230865,109.455017 319.496857,124.006905 316.287109,138.452988 
	C315.587280,141.602692 313.725983,144.919083 311.451477,147.222427 
	C300.096863,158.720856 288.389893,169.870361 276.887695,181.224533 
	C273.189026,184.875610 272.755341,189.154404 275.403473,192.350037 
	C278.515442,196.105377 283.335175,196.029602 287.608521,191.911331 
	C298.046143,181.852539 308.543060,171.847290 318.703583,161.513245 
	C322.128845,158.029495 325.622101,156.685013 330.467377,156.687332 
	C346.292450,156.694931 362.118927,156.271210 377.942352,155.904892 
	C383.449677,155.777405 386.779999,152.842453 386.900330,148.433960 
	C387.021179,144.006363 383.592041,140.842010 378.308319,140.786728 
	C372.811462,140.729202 367.312439,140.923767 361.814117,140.950439 
	C354.931030,140.983841 348.047699,140.958481 342.116333,140.958481 
	C348.884186,133.660858 355.743744,126.018951 362.937653,118.705978 
	C364.450623,117.168007 367.169678,116.133194 369.370514,116.064240 
	C385.689026,115.552910 402.017151,115.350044 418.342010,115.037651 
	C424.655273,114.916840 428.030243,112.272461 428.069305,107.462639 
	C428.108490,102.632515 424.666077,99.878662 418.431488,99.923157 
	C407.934631,99.998070 397.438477,100.165932 386.941681,100.258148 
	C385.618927,100.269768 384.294220,100.060631 382.029205,99.877800 
	C399.931152,82.433907 416.992920,65.818489 434.035919,49.183830 
	C435.461151,47.792755 436.912445,46.384155 438.085083,44.787868 
	C440.498474,41.502468 440.155212,38.081505 437.452118,35.251385 
	C434.720032,32.390907 431.286469,32.061897 427.916656,34.264347 
	C426.402039,35.254261 425.098175,36.593548 423.789734,37.867771 
	C409.345795,51.933567 394.925720,66.023888 380.477509,80.085304 
	C379.329712,81.202354 378.021027,82.154076 375.935028,83.892914 
	C378.098694,73.383087 380.045135,64.323509 381.805511,55.227905 
	C382.843170,49.866131 380.604523,45.918079 376.334076,44.987942 
	C371.679047,43.974045 368.127655,46.589947 366.929413,52.216724 
	C364.885773,61.813732 362.207367,71.362419 361.214233,81.076439 
	C359.628235,96.588707 353.907928,109.380516 341.044495,118.625984 
	C339.175659,119.969200 337.584717,121.699051 335.865173,123.249977 
	C336.869904,113.822411 338.525116,105.065056 340.426941,96.361595 
	C341.451538,91.672653 340.414459,88.158928 335.088898,85.853821 
z"/>
<path fill="#5DAA24" opacity="1.000000" stroke="none" 
	d="
M230.947235,146.450226 
	C232.848373,140.293808 234.747986,134.362076 237.023941,128.578445 
	C240.345932,120.136673 243.938324,111.801308 247.689423,103.216019 
	C252.809265,112.043869 257.690216,121.057892 262.446472,130.137238 
	C262.920898,131.042892 262.996246,132.474930 262.648987,133.445053 
	C258.865814,144.012985 254.961349,154.537506 250.743362,166.017075 
	C243.995316,159.390533 237.554626,153.065842 230.947235,146.450226 
z"/>
<path fill="#5DAA23" opacity="1.000000" stroke="none" 
	d="
M218.313980,200.887848 
	C220.662003,188.657379 223.367249,176.575424 226.132416,164.066711 
	C232.549194,169.701065 238.948654,175.718903 245.207520,181.879593 
	C245.967987,182.628128 246.447876,184.235825 246.248550,185.292709 
	C244.902893,192.427872 243.339096,199.521881 241.639069,207.613678 
	C233.749512,205.354340 226.210358,203.195358 218.313980,200.887848 
z"/>
<path fill="#C67100" opacity="1.000000" stroke="none" 
	d="
M383.281952,307.261841 
	C390.173981,311.091461 391.971283,316.542419 388.405090,321.742523 
	C385.234589,326.365601 379.203735,327.406250 374.827484,323.898773 
	C371.377716,321.133881 370.116333,317.509247 371.651764,313.210449 
	C373.270752,308.677795 376.846405,306.796814 383.281952,307.261841 
z"/>
<path fill="#040200" opacity="1.000000" stroke="none" 
	d="
M316.460175,427.181885 
	C311.440887,436.994049 303.678375,442.122284 293.078552,441.836700 
	C282.912842,441.562836 275.294495,436.405945 271.176331,427.083313 
	C267.056305,417.756439 268.548798,408.873199 275.065887,400.975494 
	C282.275116,392.239075 295.126892,389.840393 305.381073,395.224518 
	C315.741333,400.664368 320.789673,412.560181 317.584595,424.009064 
	C317.316437,424.966888 316.965546,425.901581 316.460175,427.181885 
M289.620392,408.652588 
	C284.514252,412.278931 283.001892,416.738007 285.314270,421.348846 
	C287.374756,425.457428 292.218567,427.474030 296.655762,426.070557 
	C301.413544,424.565674 303.896423,420.303284 303.011780,415.159149 
	C302.080933,409.746277 297.435364,407.222260 289.620392,408.652588 
z"/>
<path fill="#030200" opacity="1.000000" stroke="none" 
	d="
M355.818848,441.961121 
	C356.346039,434.893127 359.146606,432.466827 366.074921,433.075836 
	C378.771484,434.191833 388.526093,445.707001 388.030396,458.993866 
	C387.549469,471.884064 376.753998,482.255890 363.524933,482.537598 
	C350.802002,482.808533 339.543396,472.473114 338.817596,459.856293 
	C338.438568,453.267731 340.394958,450.995850 347.824890,450.334534 
	C352.249420,451.983093 353.377838,455.213776 353.955627,458.795135 
	C354.670715,463.227417 357.185089,466.066803 361.570740,466.944519 
	C366.737396,467.978607 371.207886,464.997742 372.545624,459.885284 
	C373.818298,455.021240 371.102936,450.194427 365.904480,448.769928 
	C361.698059,447.617249 357.261475,447.089874 355.818848,441.961121 
z"/>
<path fill="#A65F00" opacity="1.000000" stroke="none" 
	d="
M355.482880,442.017914 
	C357.261475,447.089874 361.698059,447.617249 365.904480,448.769928 
	C371.102936,450.194427 373.818298,455.021240 372.545624,459.885284 
	C371.207886,464.997742 366.737396,467.978607 361.570740,466.944519 
	C357.185089,466.066803 354.670715,463.227417 353.955627,458.795135 
	C353.377838,455.213776 352.249420,451.983093 348.214142,450.308044 
	C347.956940,445.218842 352.145966,444.179504 355.482880,442.017914 
z"/>
<path fill="#AB6200" opacity="1.000000" stroke="none" 
	d="
M424.318878,437.020477 
	C419.639832,441.874542 415.169373,442.331848 413.232513,437.980865 
	C412.273682,435.826935 412.287537,432.028320 413.613953,430.413177 
	C414.912994,428.831390 418.666199,428.162292 420.934326,428.728027 
	C424.681976,429.662781 425.640228,432.983124 424.318878,437.020477 
z"/>
<path fill="#AB6200" opacity="1.000000" stroke="none" 
	d="
M346.168518,395.370605 
	C350.244568,391.460754 353.528473,391.084381 356.260590,393.954529 
	C358.794403,396.616486 358.815369,401.950165 355.656860,403.523346 
	C353.524170,404.585541 350.082550,404.714508 347.963959,403.708191 
	C344.881470,402.244049 344.047760,399.006470 346.168518,395.370605 
z"/>
<path fill="#AB6200" opacity="1.000000" stroke="none" 
	d="
M280.778320,377.679626 
	C277.786011,378.506927 274.917419,379.778412 272.397247,379.281830 
	C270.971649,379.000977 269.031067,375.655823 269.277618,373.978271 
	C269.598419,371.795715 271.470551,369.200409 273.417999,368.111267 
	C274.838806,367.316681 277.809235,368.121796 279.470276,369.182526 
	C282.516052,371.127472 282.891266,374.187347 280.778320,377.679626 
z"/>
<path fill="#AB6100" opacity="1.000000" stroke="none" 
	d="
M249.664978,460.988770 
	C251.979996,457.887634 255.034607,456.804749 257.673920,458.711578 
	C259.439148,459.986969 260.850372,463.062592 260.729523,465.238739 
	C260.626129,467.101196 258.473389,469.645599 256.604828,470.459045 
	C251.778366,472.560150 248.443405,468.139618 249.664978,460.988770 
z"/>
<path fill="#020401" opacity="1.000000" stroke="none" 
	d="
M335.489716,85.947098 
	C340.414459,88.158928 341.451538,91.672653 340.426941,96.361595 
	C338.525116,105.065056 336.869904,113.822411 335.865173,123.249977 
	C337.584717,121.699051 339.175659,119.969200 341.044495,118.625984 
	C353.907928,109.380516 359.628235,96.588707 361.214233,81.076439 
	C362.207367,71.362419 364.885773,61.813732 366.929413,52.216724 
	C368.127655,46.589947 371.679047,43.974045 376.334076,44.987942 
	C380.604523,45.918079 382.843170,49.866131 381.805511,55.227905 
	C380.045135,64.323509 378.098694,73.383087 375.935028,83.892914 
	C378.021027,82.154076 379.329712,81.202354 380.477509,80.085304 
	C394.925720,66.023888 409.345795,51.933567 423.789734,37.867771 
	C425.098175,36.593548 426.402039,35.254261 427.916656,34.264347 
	C431.286469,32.061897 434.720032,32.390907 437.452118,35.251385 
	C440.155212,38.081505 440.498474,41.502468 438.085083,44.787868 
	C436.912445,46.384155 435.461151,47.792755 434.035919,49.183830 
	C416.992920,65.818489 399.931152,82.433907 382.029205,99.877800 
	C384.294220,100.060631 385.618927,100.269768 386.941681,100.258148 
	C397.438477,100.165932 407.934631,99.998070 418.431488,99.923157 
	C424.666077,99.878662 428.108490,102.632515 428.069305,107.462639 
	C428.030243,112.272461 424.655273,114.916840 418.342010,115.037651 
	C402.017151,115.350044 385.689026,115.552910 369.370514,116.064240 
	C367.169678,116.133194 364.450623,117.168007 362.937653,118.705978 
	C355.743744,126.018951 348.884186,133.660858 342.116333,140.958481 
	C348.047699,140.958481 354.931030,140.983841 361.814117,140.950439 
	C367.312439,140.923767 372.811462,140.729202 378.308319,140.786728 
	C383.592041,140.842010 387.021179,144.006363 386.900330,148.433960 
	C386.779999,152.842453 383.449677,155.777405 377.942352,155.904892 
	C362.118927,156.271210 346.292450,156.694931 330.467377,156.687332 
	C325.622101,156.685013 322.128845,158.029495 318.703583,161.513245 
	C308.543060,171.847290 298.046143,181.852539 287.608521,191.911331 
	C283.335175,196.029602 278.515442,196.105377 275.403473,192.350037 
	C272.755341,189.154404 273.189026,184.875610 276.887695,181.224533 
	C288.389893,169.870361 300.096863,158.720856 311.451477,147.222427 
	C313.725983,144.919083 315.587280,141.602692 316.287109,138.452988 
	C319.496857,124.006905 322.230865,109.455017 325.126617,94.939308 
	C326.612000,87.493362 328.503235,85.758644 335.489716,85.947098 
z"/>
<path fill="#A75F00" opacity="1.000000" stroke="none" 
	d="
M289.975769,408.461060 
	C297.435364,407.222260 302.080933,409.746277 303.011780,415.159149 
	C303.896423,420.303284 301.413544,424.565674 296.655762,426.070557 
	C292.218567,427.474030 287.374756,425.457428 285.314270,421.348846 
	C283.001892,416.738007 284.514252,412.278931 289.975769,408.461060 
z"/>
</svg>