<svg xmlns="http://www.w3.org/2000/svg" height="68.074" width="60.996" viewBox="0 0 60.996 68.074"><path fill="#fff" d="M46.282 19.513v3.923c.026-.051.058-.1.084-.153 1.053-2.161 1.025-4.662-.083-7.43a1.81 1.81 0 00-.974-1 1.809 1.809 0 00-1.396-.016 1.811 1.811 0 00-.999.974 1.81 1.81 0 00-.017 1.396c.019.046.032.09.05.135 1.95.196 3.335 1.063 3.335 2.17m-19.311-1.037c-.195.219-.471.33-.823.334-.416 0-.737-.106-.956-.323a.911.911 0 01-.124-.153c-.176.251-.459.48-.867.48-.058 0-.118-.005-.181-.015-.773-.12-.896-.839-.852-1.202a.178.178 0 01.353.041c-.008.073-.061.714.554.81.645.1.842-.596.85-.626a.178.178 0 01.35.047c.001.06.044.578.87.584.247-.002.435-.073.56-.214.235-.263.196-.7.196-.703a.178.178 0 11.354-.038c.003.024.06.594-.284.978M18.35 17.06a.617.617 0 110-1.235.617.617 0 010 1.235m14.599-.53a.617.617 0 110 1.235.617.617 0 010-1.234M2.573 51.473c.015 0 .029 0 .042.002.12.014 11.39 1.286 14.94 1.672-.538-4.84.294-8.528 2.485-10.957 2.692-2.986 6.411-2.934 6.568-2.928a.374.374 0 11-.018.75c-.032.001-3.545-.042-6 2.688-2.104 2.339-2.857 5.98-2.238 10.823l-.002.02a.374.374 0 01-.007.106c-.003.01-.003.02-.005.03a.37.37 0 01-.059.115c-.006.008-.014.014-.02.021-.016.018-.031.037-.05.053l-2.375 1.825a1.81 1.81 0 00-.697 1.208c-.063.483.066.962.363 1.348a1.81 1.81 0 001.447.713c.404 0 .788-.13 1.11-.378a.318.318 0 01.036-.025c.438-.261 10.755-6.404 12.582-7.186l.054-.027a.375.375 0 01.423.078c2.68 2.716 3.277 5.389 1.727 7.728-2.906 4.385-12.644 6.418-23.308 2.054A1.826 1.826 0 007.2 63.6c.188.45.54.798.99.982 4.448 1.82 8.84 2.743 13.053 2.743 6.536 0 12.16-2.36 14.677-6.158 2.54-3.833 1.68-8.482-2.303-12.437a1.822 1.822 0 00-.188-.16.375.375 0 01-.118-.447c1.565-3.641 2.44-9.455 2.6-17.28a.375.375 0 01.27-.352 23.104 23.104 0 001.745-.59v-4.514c-.525.196-1.04.369-1.516.519a.373.373 0 01-.488-.352c-.018-1.093-.044-1.74-.044-1.743l-.994-12.384-3.755 3.591a.367.367 0 01-.28.104l-9.845-.517a.374.374 0 01-.236-.1l-3.38-3.156-2.548 13.455-.025.187-.243.122-.004-.012c-2.026.832-3.141 2.718-2.984 5.055.145 2.162 1.528 4.797 4.221 5.475 2.625.66 6.074-.619 10.196-3.77a1.826 1.826 0 00-.867-3.256 1.815 1.815 0 00-1.348.359c-2.798 2.139-4.808 3.034-6.322 2.814-.73-.105-1.334-.476-1.792-1.102a.375.375 0 01.605-.443c.34.464.763.727 1.294.803 1.283.187 3.168-.687 5.76-2.668a2.56 2.56 0 011.902-.507 2.557 2.557 0 011.704.988 2.576 2.576 0 01-.48 3.608c-3.554 2.716-6.66 4.094-9.233 4.094a6.565 6.565 0 01-1.602-.193 5.848 5.848 0 01-2.21-1.106l-.313 2.296a.375.375 0 01-.294.316c-4.198.887-6.673 5.743-6.269 9.546a.375.375 0 01-.373.415h-3.59A1.826 1.826 0 00.75 49.649c0 1.006.818 1.824 1.823 1.824"/><path d="M37.925 20.683v3.906c-.473.184-.91.334-1.263.45a62.89 62.89 0 00-.036-1.272l-.314-3.909 1.613-.203zm7.607 6.145a.66.66 0 01-.117.357c-.42.65-1.781 1.105-3.311 1.105s-2.892-.454-3.312-1.104a.661.661 0 01-.117-.358v-5.173c.013.012.03.022.044.034a2.389 2.389 0 00.277.205c.077.05.158.097.244.142.02.01.037.021.056.03.106.055.22.105.338.152l.093.035a5.06 5.06 0 00.406.134c.12.033.241.064.368.092l.048.011c.142.03.29.055.441.076l.127.016c.116.015.234.027.354.036.047.004.093.008.14.01a7.926 7.926 0 00.985.001l.14-.01c.12-.01.238-.022.354-.037l.127-.016a6.42 6.42 0 00.441-.076l.05-.011a6.155 6.155 0 00.482-.128c.1-.03.196-.063.29-.098l.094-.035c.118-.047.23-.097.337-.151l.056-.03a3.218 3.218 0 00.327-.199 2.16 2.16 0 00.194-.15c.014-.011.03-.021.044-.033zm7.185 1.321c-.059.075-.13.146-.211.214-.027.023-.061.043-.09.065-.06.044-.118.088-.187.13-.04.024-.086.045-.13.068-.065.035-.131.07-.203.103-.051.023-.106.043-.16.064a3.956 3.956 0 01-.226.083c-.059.02-.121.037-.183.055a4.854 4.854 0 01-.45.11 5.776 5.776 0 01-.48.078 7.428 7.428 0 01-.508.047l-.11.003c.006-.001.011-.004.017-.006a1.014 1.014 0 00.149-.059l.043-.021a.879.879 0 00.105-.07l.017-.011a.797.797 0 00.1-.098l.024-.03a.734.734 0 00.075-.123.606.606 0 00.034-.088l.012-.04a.616.616 0 00.017-.136c0-.379-.376-1.08-.912-1.08-.535 0-.911.701-.911 1.08 0 .047.006.092.017.136.002.013.007.026.011.04a.605.605 0 00.11.21l.023.031a.8.8 0 00.1.098l.018.011a.852.852 0 00.105.07l.043.021a1.13 1.13 0 00.148.06l.018.005-.11-.003a8.132 8.132 0 01-.728-.078 6.298 6.298 0 01-.711-.157c-.062-.018-.124-.035-.182-.054-.08-.027-.154-.056-.228-.085-.053-.02-.107-.04-.157-.063a2.952 2.952 0 01-.206-.104c-.043-.022-.089-.044-.129-.068a2.158 2.158 0 01-.188-.13c-.029-.022-.062-.042-.088-.064a1.472 1.472 0 01-.211-.214.708.708 0 01-.172-.43c0-.693 1.408-1.464 3.429-1.464 2.02 0 3.428.771 3.428 1.463 0 .14-.058.285-.172.431m-3.256 2.201c-2.021 0-3.43-.77-3.43-1.462v-.196c.678.608 1.973.988 3.43.988 1.456 0 2.75-.38 3.428-.988v.196c0 .691-1.408 1.462-3.428 1.462m3.428 4.683a.66.66 0 01-.117.358c-.42.65-1.782 1.104-3.311 1.104-1.53 0-2.893-.454-3.312-1.104a.66.66 0 01-.117-.358V29.86c.013.012.03.022.044.034a2.473 2.473 0 00.277.205c.077.05.158.097.244.142l.056.031c.106.054.22.104.337.151.03.013.063.023.094.035.094.035.19.068.29.099l.116.035c.12.034.241.064.367.092l.048.012c.143.03.29.054.442.076l.126.016c.116.014.235.026.355.036l.14.01a8.05 8.05 0 00.985 0l.14-.01c.12-.01.238-.022.354-.036l.127-.016c.15-.022.299-.047.441-.076.017-.004.033-.009.05-.012.125-.028.247-.058.365-.092l.117-.035c.1-.031.196-.064.29-.099.03-.012.063-.022.094-.035.118-.047.23-.097.337-.15.02-.01.037-.022.056-.032a3.15 3.15 0 00.327-.198 2.16 2.16 0 00.194-.15c.014-.011.03-.021.044-.033zm3.928 3.448c-2.02 0-3.428-.77-3.428-1.462v-.195c.677.607 1.972.987 3.428.987 1.457 0 2.752-.38 3.429-.987v.195c0 .691-1.408 1.462-3.429 1.462m3.429 4.683a.66.66 0 01-.117.358c-.42.65-1.782 1.104-3.312 1.104-1.53 0-2.892-.454-3.312-1.104a.66.66 0 01-.116-.358v-5.173c.013.012.03.022.043.034a2.473 2.473 0 00.278.205c.077.05.158.097.244.143l.056.03c.106.054.219.104.337.151l.094.035c.094.035.19.068.29.099l.116.035c.119.033.241.065.367.092l.048.012c.143.03.29.054.442.076l.126.016c.116.014.235.026.355.035l.14.011a8.05 8.05 0 00.985 0l.14-.01c.12-.01.238-.022.354-.036l.127-.016a7.19 7.19 0 00.44-.076l.05-.012a6.11 6.11 0 00.366-.092l.117-.035c.1-.031.196-.064.289-.099l.094-.035c.119-.047.232-.097.338-.15.02-.01.036-.021.055-.031a3.34 3.34 0 00.327-.199c.07-.048.135-.098.195-.15.014-.01.03-.021.044-.033zm0 8.205a.66.66 0 01-.117.358c-.42.65-1.782 1.105-3.312 1.105-1.53 0-2.892-.455-3.312-1.105a.66.66 0 01-.116-.358v-5.172c.013.011.03.021.043.033a2.473 2.473 0 00.278.205c.077.05.158.097.244.143l.056.03c.106.054.219.104.337.152l.094.035c.094.034.19.067.29.098l.116.035c.119.034.241.065.367.092l.048.012c.143.03.29.055.442.076l.126.016c.116.014.235.026.355.036l.14.01a7.928 7.928 0 00.985 0l.14-.01c.12-.01.238-.022.354-.036l.127-.016a6.78 6.78 0 00.44-.076l.05-.012c.126-.027.248-.058.366-.092l.117-.035c.1-.03.196-.064.289-.098.031-.012.064-.023.094-.036a4.13 4.13 0 00.338-.15c.02-.01.036-.021.055-.031a3.339 3.339 0 00.327-.198c.07-.049.135-.099.195-.15.014-.012.03-.022.044-.033zm-14.214.987v-.01c.676.601 1.974.985 3.429.985 1.453 0 2.751-.384 3.428-.986v.01c0 .692-1.408 1.463-3.428 1.463-2.021 0-3.43-.77-3.43-1.462m-7.356 0v-.01c.676.601 1.975.985 3.429.985 1.453 0 2.751-.384 3.428-.986v.01c0 .692-1.408 1.463-3.428 1.463-2.021 0-3.429-.77-3.429-1.462m0-6.16c.013.012.03.022.044.034a2.473 2.473 0 00.277.205c.077.05.158.097.244.143l.056.03c.106.054.22.104.338.152l.093.035c.094.034.19.067.29.098l.116.035c.12.034.241.065.368.092l.048.012c.142.03.29.055.441.076l.127.016c.116.014.234.026.354.036l.14.01a7.935 7.935 0 00.985 0l.14-.01c.12-.01.238-.022.354-.036l.127-.016a6.78 6.78 0 00.441-.076l.05-.012c.125-.027.247-.058.365-.092l.117-.035c.1-.03.196-.064.29-.098.03-.012.063-.023.094-.036a4.13 4.13 0 00.337-.15l.056-.031a3.339 3.339 0 00.327-.198c.07-.049.134-.099.194-.15.014-.012.03-.022.044-.033v5.172a.66.66 0 01-.117.358c-.42.65-1.781 1.105-3.311 1.105s-2.892-.455-3.312-1.105a.66.66 0 01-.117-.358zm0-8.205c.013.012.03.022.044.034a2.473 2.473 0 00.277.205c.077.05.158.097.244.143l.056.03c.106.054.22.104.338.151l.093.035c.094.035.19.068.29.099l.116.035c.12.033.241.065.368.092l.048.012c.142.03.29.054.441.076l.127.016c.116.014.234.026.354.035l.14.011a8.05 8.05 0 00.985 0l.14-.01c.12-.01.238-.022.354-.036l.127-.016c.151-.022.299-.046.441-.076l.05-.012c.125-.027.247-.059.365-.092l.117-.035c.1-.031.196-.064.29-.099l.094-.035c.118-.047.23-.097.337-.15l.056-.031a3.34 3.34 0 00.327-.199 2.16 2.16 0 00.194-.15c.014-.01.03-.021.044-.033v5.173a.66.66 0 01-.117.358c-.42.65-1.781 1.104-3.311 1.104s-2.892-.454-3.312-1.104a.66.66 0 01-.117-.358zm0-8.13c.013.01.03.021.044.033a2.473 2.473 0 00.277.205c.077.05.158.097.244.142l.056.031c.106.054.22.104.338.151.03.013.062.023.093.035.094.035.19.068.29.099l.116.035c.12.034.241.064.368.092l.048.012c.142.03.29.054.441.076l.127.016c.116.014.234.026.354.036l.14.01a8.05 8.05 0 00.985 0l.14-.01c.12-.01.238-.022.354-.036l.127-.016c.151-.022.299-.047.441-.076.017-.004.032-.009.05-.012.125-.028.247-.058.365-.092l.117-.035c.1-.031.196-.064.29-.099.03-.012.063-.022.094-.035.118-.047.23-.097.337-.15.02-.01.037-.022.056-.032a3.218 3.218 0 00.327-.198 2.16 2.16 0 00.194-.15c.014-.011.03-.021.044-.033v5.173a.66.66 0 01-.117.358c-.42.65-1.781 1.104-3.311 1.104s-2.892-.454-3.312-1.104a.66.66 0 01-.117-.358zm0-.973v-.104c.666.597 1.937.993 3.429.993 1.491 0 2.762-.396 3.428-.993v.104c0 .691-1.408 1.462-3.428 1.462-2.021 0-3.429-.77-3.429-1.462m3.429-.098c1.453 0 2.751-.384 3.428-.986v.01c0 .692-1.408 1.463-3.428 1.463-2.021 0-3.429-.771-3.429-1.463v-.01c.676.602 1.975.986 3.429.986m14.713 16.823c-2.02 0-3.428-.771-3.428-1.463v-.01c.676.602 1.974.986 3.428.986s2.752-.384 3.429-.986v.01c0 .692-1.408 1.463-3.429 1.463M38.675 44.15v-.01c.676.602 1.975.986 3.429.986 1.453 0 2.751-.384 3.428-.986v.01c0 .692-1.408 1.463-3.428 1.463-2.021 0-3.429-.771-3.429-1.463m0-7.131v-.03c.666.597 1.937.993 3.429.993 1.491 0 2.762-.396 3.428-.993v.03c0 .691-1.408 1.462-3.428 1.462-2.021 0-3.429-.77-3.429-1.462m0-1v-.01c.676.602 1.975.986 3.429.986 1.453 0 2.751-.384 3.428-.986v.01c0 .692-1.408 1.463-3.428 1.463-2.021 0-3.429-.77-3.429-1.463m14.214 7.145a.66.66 0 01-.117.358c-.42.65-1.782 1.104-3.311 1.104-1.53 0-2.893-.454-3.312-1.104a.66.66 0 01-.117-.358v-5.173c.013.012.03.022.044.034a2.473 2.473 0 00.277.205c.077.05.158.097.244.143l.056.03c.106.054.22.104.337.151l.094.035c.094.035.19.068.29.099l.116.035c.12.033.241.065.367.092l.048.012c.143.03.29.054.442.076l.126.016c.116.014.235.026.355.035l.14.011a8.05 8.05 0 00.985 0l.14-.01c.12-.01.238-.022.354-.036l.127-.016c.15-.022.299-.046.441-.076l.05-.012c.125-.027.247-.059.365-.092l.117-.035c.1-.031.196-.064.29-.099l.094-.035c.118-.047.23-.097.337-.15l.056-.031a3.267 3.267 0 00.327-.199 2.16 2.16 0 00.194-.15c.014-.01.03-.021.044-.033zm-6.857 2.06v-.104c.666.597 1.937.993 3.429.993 1.49 0 2.761-.396 3.428-.993v.104c0 .692-1.408 1.463-3.428 1.463-2.021 0-3.43-.771-3.43-1.463m3.43-.098c1.453 0 2.751-.384 3.428-.986v.01c0 .692-1.408 1.463-3.428 1.463-2.021 0-3.43-.771-3.43-1.463v-.01c.677.602 1.975.986 3.43.986m0-6.645c-2.021 0-3.43-.77-3.43-1.462v-.03c.667.597 1.938.993 3.43.993 1.49 0 2.761-.396 3.428-.993v.03c0 .691-1.408 1.462-3.428 1.462m0 14.35c-1.53 0-2.893-.454-3.312-1.104a.66.66 0 01-.117-.358v-5.172c.013.011.03.021.044.033a2.473 2.473 0 00.277.205c.077.05.158.097.244.143l.056.03c.106.054.22.104.337.152l.094.035a5.168 5.168 0 00.406.133c.12.034.241.065.367.092l.048.012c.143.03.29.055.442.076l.126.016c.116.014.235.026.355.036l.14.01a7.935 7.935 0 00.985 0l.14-.01c.12-.01.238-.022.354-.036l.127-.016c.15-.021.299-.046.441-.076l.05-.012c.125-.027.247-.058.365-.092l.117-.035c.1-.03.196-.064.29-.098.03-.012.063-.023.094-.036a4.13 4.13 0 00.337-.15l.056-.031a3.266 3.266 0 00.327-.198c.07-.049.134-.099.194-.15.014-.012.03-.022.044-.033v5.172a.66.66 0 01-.117.358c-.42.65-1.782 1.105-3.311 1.105m0-15.837c1.453 0 2.751-.384 3.428-.986v.01c0 .692-1.408 1.463-3.428 1.463-2.021 0-3.43-.77-3.43-1.463v-.01c.677.602 1.975.986 3.43.986m-10.786 8.229v-.104c.666.597 1.937.993 3.429.993 1.491 0 2.762-.396 3.428-.993v.104c0 .692-1.408 1.463-3.428 1.463-2.021 0-3.429-.771-3.429-1.463m18.142 1.463c-2.02 0-3.428-.771-3.428-1.463v-.104c.666.597 1.937.993 3.428.993 1.492 0 2.762-.396 3.429-.993v.104c0 .692-1.408 1.463-3.429 1.463m-.411-10.068c0-.182.234-.58.411-.58.177 0 .412.398.412.58 0 .104-.18.226-.412.226-.232 0-.411-.122-.411-.226m-7.357-8.132c0-.182.234-.58.411-.58.177 0 .412.398.412.58 0 .105-.18.227-.412.227-.232 0-.411-.122-.411-.227m-10.374-7.804v-.196c.677.608 1.972.988 3.429.988 1.456 0 2.751-.38 3.428-.988v.196c0 .691-1.408 1.462-3.428 1.462-2.021 0-3.429-.77-3.429-1.462m3.017-.4c0-.182.235-.58.411-.58.177 0 .412.398.412.58 0 .104-.18.226-.412.226-.231 0-.411-.122-.411-.227m15.125 33.536c-2.02 0-3.428-.77-3.428-1.462v-.01c.676.601 1.974.985 3.428.985s2.752-.384 3.429-.986v.01c0 .692-1.408 1.463-3.429 1.463m0-19.431c2.02 0 3.429.77 3.429 1.462 0 .14-.058.285-.172.431-.059.075-.13.146-.211.214-.027.023-.061.043-.09.065-.06.044-.118.088-.187.13-.04.023-.086.045-.13.068-.066.036-.131.07-.203.103-.051.023-.107.043-.16.064-.074.029-.147.058-.226.083-.059.02-.121.037-.183.055a4.742 4.742 0 01-.45.11 5.886 5.886 0 01-.48.078 8.277 8.277 0 01-.508.047l-.11.003.017-.005a1.014 1.014 0 00.148-.06c.015-.007.03-.014.043-.022a.906.906 0 00.106-.069l.017-.011a.794.794 0 00.1-.098l.024-.03a.718.718 0 00.075-.123.606.606 0 00.034-.088c.004-.013.009-.026.012-.04a.616.616 0 00.017-.135c0-.38-.377-1.08-.912-1.08-.536 0-.911.7-.911 1.08 0 .046.006.091.016.135l.012.04a.605.605 0 00.11.21l.023.031c.03.035.063.068.1.098l.017.011a.877.877 0 00.106.07l.043.02a1.035 1.035 0 00.148.06c.006.002.011.005.017.006l-.11-.003a8.132 8.132 0 01-.727-.078 6.938 6.938 0 01-.465-.09 5.106 5.106 0 01-.247-.067c-.061-.018-.123-.035-.182-.055-.079-.026-.153-.055-.227-.084-.053-.02-.107-.04-.158-.063a2.952 2.952 0 01-.206-.103c-.042-.023-.088-.045-.128-.069a2.189 2.189 0 01-.188-.13c-.029-.022-.062-.042-.088-.064a1.474 1.474 0 01-.212-.214.707.707 0 01-.171-.43c0-.693 1.408-1.463 3.428-1.463M42.104 18.05c2.02 0 3.428.77 3.428 1.462 0 .14-.058.285-.172.43-.058.075-.13.147-.211.215-.027.023-.06.043-.09.065a2.526 2.526 0 01-.186.13c-.04.023-.087.045-.13.068-.066.035-.132.07-.204.103-.05.022-.106.043-.16.063-.073.03-.147.058-.225.084-.06.02-.122.037-.184.055a5.587 5.587 0 01-.93.188 7.428 7.428 0 01-.508.046l-.11.004.017-.006a1.046 1.046 0 00.149-.06l.043-.02a.908.908 0 00.105-.07l.017-.011a.773.773 0 00.1-.098c.01-.01.016-.02.024-.03a.661.661 0 00.11-.211l.011-.04a.614.614 0 00.017-.136c0-.379-.376-1.08-.912-1.08-.535 0-.91.701-.91 1.08 0 .047.005.092.016.136l.012.04a.605.605 0 00.109.21l.023.03a.72.72 0 00.1.099l.018.01a.879.879 0 00.105.07l.043.022c.032.015.065.03.1.042l.048.017.018.006-.11-.004a8.132 8.132 0 01-.728-.077 6.943 6.943 0 01-.262-.048l-.203-.043a5.553 5.553 0 01-.246-.066c-.062-.018-.123-.035-.182-.055a4.17 4.17 0 01-.228-.084c-.052-.02-.107-.04-.157-.063a2.952 2.952 0 01-.206-.104c-.043-.022-.089-.044-.128-.068a2.113 2.113 0 01-.189-.13c-.029-.022-.061-.042-.088-.064a1.472 1.472 0 01-.211-.214.707.707 0 01-.172-.431c0-.692 1.408-1.462 3.429-1.462m.793-.844a1.81 1.81 0 01.017-1.396 1.811 1.811 0 011-.974 1.81 1.81 0 011.395.017c.447.192.794.546.974.999 1.108 2.768 1.136 5.268.083 7.43-.026.052-.058.102-.084.153v-3.923c0-1.108-1.385-1.975-3.336-2.17-.017-.047-.03-.09-.049-.136M2.574 47.826h3.588a.376.376 0 00.373-.415c-.404-3.803 2.071-8.66 6.269-9.546a.376.376 0 00.294-.316l.314-2.297c.652.52 1.4.903 2.21 1.107a6.582 6.582 0 001.601.192c2.573 0 5.68-1.377 9.232-4.093a2.577 2.577 0 00.481-3.608 2.557 2.557 0 00-1.704-.988 2.559 2.559 0 00-1.903.507c-2.59 1.98-4.475 2.855-5.76 2.668-.53-.076-.954-.339-1.293-.803a.375.375 0 10-.605.443c.458.626 1.06.997 1.792 1.103 1.514.22 3.524-.676 6.322-2.815a1.817 1.817 0 011.348-.36A1.826 1.826 0 0126 31.862c-4.121 3.152-7.571 4.431-10.196 3.77-2.693-.677-4.076-3.312-4.22-5.473-.158-2.338.957-4.224 2.984-5.056l.003.012.243-.121.026-.188 2.547-13.454 3.38 3.154c.065.06.148.096.236.1l9.846.518a.366.366 0 00.279-.104l3.755-3.591.994 12.384c0 .003.027.65.044 1.743a.375.375 0 00.488.352c.476-.15.99-.323 1.516-.518v4.509c-.593.227-1.18.427-1.745.592a.375.375 0 00-.27.353c-.16 7.824-1.035 13.638-2.6 17.279a.375.375 0 00.118.447c.065.049.129.101.189.16 3.981 3.955 4.842 8.604 2.302 12.437-2.517 3.798-8.14 6.158-14.677 6.158-4.214 0-8.605-.923-13.053-2.743a1.814 1.814 0 01-.99-.982 1.827 1.827 0 012.372-2.393c10.664 4.364 20.402 2.331 23.308-2.054 1.55-2.34.953-5.012-1.727-7.728a.375.375 0 00-.423-.078 3.797 3.797 0 00-.054.027c-1.827.782-12.144 6.925-12.582 7.186a.374.374 0 00-.036.025 1.808 1.808 0 01-1.11.378c-.572 0-1.1-.26-1.447-.713a1.81 1.81 0 01-.363-1.347 1.81 1.81 0 01.697-1.21l2.374-1.825c.02-.015.035-.034.05-.052.007-.008.015-.013.022-.022a.376.376 0 00.058-.115l.005-.029c.007-.034.01-.07.007-.105 0-.008.003-.014.002-.021-.619-4.843.134-8.484 2.237-10.823 2.456-2.73 5.968-2.687 6.001-2.688a.374.374 0 10.017-.75c-.156-.006-3.875-.058-6.567 2.928-2.191 2.429-3.023 6.116-2.484 10.957-3.55-.386-14.821-1.658-14.94-1.672a.413.413 0 00-.042-.002A1.826 1.826 0 01.75 49.649c0-1.005.818-1.823 1.824-1.823m-.022 4.397c.52.059 10.56 1.192 14.459 1.62l-1.634 1.255a2.558 2.558 0 00-.984 1.706 2.559 2.559 0 00.512 1.902 2.557 2.557 0 002.042 1.006c.563 0 1.098-.18 1.548-.52.488-.29 10.152-6.039 12.306-7.053 1.606 1.694 3.072 4.155 1.452 6.598-2.742 4.14-12.085 5.995-22.398 1.775a2.577 2.577 0 00-3.356 1.407 2.556 2.556 0 00.008 1.97 2.556 2.556 0 001.398 1.386c4.538 1.857 9.025 2.799 13.337 2.799 6.785 0 12.648-2.488 15.302-6.493 2.753-4.154 1.856-9.158-2.399-13.384a1.835 1.835 0 00-.038-.037c1.518-3.698 2.374-9.423 2.547-17.029.34-.104.774-.246 1.271-.43v21.655c0 1.26 1.796 2.212 4.179 2.212 1.63 0 2.984-.446 3.678-1.13.694.684 2.049 1.13 3.679 1.13s2.984-.446 3.678-1.13c.693.684 2.048 1.13 3.678 1.13 2.382 0 4.179-.951 4.179-2.212V35.849c0-1.26-1.797-2.212-4.179-2.212-1.3 0-2.424.285-3.178.748v-6.667c0-1.261-1.797-2.213-4.178-2.213-1.301 0-2.425.285-3.179.748v-1.356a9.65 9.65 0 00.758-1.286c1.15-2.36 1.13-5.063-.06-8.037a2.556 2.556 0 00-1.376-1.41 2.556 2.556 0 00-1.97-.024 2.575 2.575 0 00-1.496 3.161h-.034c-2.242 0-3.964.842-4.16 1.992l-1.66.21-.088-1.088h.008l4.18-1.096a.178.178 0 10-.091-.344l-4.126 1.08-.109-1.352h.006l4.27-1.057a.178.178 0 10-.086-.346l-4.218 1.044-.463-5.762a.375.375 0 00-.633-.241l-4.207 4.024-9.548-.5-3.778-3.527a.376.376 0 00-.624.204l-1.53 8.083-3.215-1.637a.178.178 0 00-.162.318l3.293 1.676.015.003-.155.819-4.797-1.08a.179.179 0 00-.078.348l4.81 1.082-.154.807-4.035.14a.178.178 0 00.006.356h.006l3.956-.137-.597 3.152c-2.248.99-3.482 3.116-3.305 5.736.115 1.712.824 3.277 1.905 4.423l-.35 2.56c-4.28 1.072-6.852 5.912-6.634 9.885H2.574A2.577 2.577 0 000 49.649a2.577 2.577 0 002.552 2.574"/><path d="M27.059 17.339a.178.178 0 00-.158.196c0 .004.04.44-.195.703-.126.14-.314.212-.56.214-.827-.006-.87-.525-.871-.583a.178.178 0 00-.35-.048c-.008.03-.205.725-.85.625-.615-.095-.562-.736-.554-.809a.178.178 0 00-.353-.04c-.044.362.079 1.081.852 1.201.063.01.123.015.18.015.409 0 .692-.23.868-.48a.914.914 0 00.124.153c.22.217.54.323.956.323.352-.003.628-.115.823-.334.343-.384.287-.954.284-.978a.178.178 0 00-.196-.158m5.89.425a.618.618 0 100-1.235.618.618 0 000 1.235m-14.599-1.94a.618.618 0 100 1.235.618.618 0 000-1.235"/><path fill="#fadceb" d="M43.63 49.335l-.764.744.18 1.05-.943-.496-.943.496.18-1.05-.762-.744 1.054-.153.471-.956.472.956zm-4.838 2.392c.42.65 1.781 1.105 3.312 1.105 1.53 0 2.891-.455 3.311-1.105a.66.66 0 00.117-.358v-5.173c-.013.012-.03.022-.043.034a2.548 2.548 0 01-.278.205 3.34 3.34 0 01-.244.143l-.056.03a4.026 4.026 0 01-.337.151l-.095.035a5.14 5.14 0 01-.289.099l-.117.035c-.118.034-.24.065-.366.092l-.049.012c-.142.03-.29.055-.44.076l-.128.016a7.44 7.44 0 01-.354.036l-.14.01a8.038 8.038 0 01-.985 0l-.14-.01a7.502 7.502 0 01-.354-.036l-.127-.016a6.804 6.804 0 01-.441-.076l-.048-.012a6.272 6.272 0 01-.368-.092l-.116-.035a5.455 5.455 0 01-.29-.099l-.094-.035a4.264 4.264 0 01-.337-.15l-.056-.031a3.34 3.34 0 01-.327-.198 2.54 2.54 0 01-.194-.15c-.014-.011-.031-.022-.044-.034v5.173c0 .117.04.238.117.358"/><path fill="#fff" d="M42.104 46.687c2.02 0 3.428-.771 3.428-1.463v-.104c-.667.597-1.937.993-3.428.993-1.492 0-2.763-.396-3.43-.993v.104c0 .692 1.409 1.463 3.43 1.463m0 7.131c2.02 0 3.428-.77 3.428-1.463v-.01c-.676.602-1.974.987-3.428.987-1.455 0-2.752-.385-3.43-.986v.01c0 .691 1.409 1.462 3.43 1.462"/><path fill="#fadceb" d="M40.577 40.823l1.055-.153.471-.955.472.955 1.054.153-.762.744.18 1.05-.944-.495-.943.495.18-1.05zm-1.902 2.341c0 .117.04.238.117.358.42.65 1.782 1.104 3.311 1.104 1.53 0 2.892-.454 3.312-1.104a.662.662 0 00.117-.358v-5.173c-.013.012-.03.022-.044.034a2.54 2.54 0 01-.194.15l-.083.055c-.077.05-.158.097-.244.143l-.056.03c-.106.054-.22.104-.337.151-.031.013-.063.024-.095.035a5.228 5.228 0 01-.406.134 6.11 6.11 0 01-.366.092l-.049.012a7.19 7.19 0 01-.44.076l-.127.016a7.5 7.5 0 01-.355.036l-.14.01a8.029 8.029 0 01-.985 0l-.14-.01a7.5 7.5 0 01-.355-.036l-.126-.016a6.888 6.888 0 01-.442-.076l-.048-.012a6.188 6.188 0 01-.366-.092l-.117-.035a5.455 5.455 0 01-.29-.099c-.031-.011-.063-.022-.094-.035a4.078 4.078 0 01-.337-.15c-.02-.01-.037-.022-.056-.031a3.288 3.288 0 01-.327-.199 2.612 2.612 0 01-.194-.15c-.014-.01-.03-.021-.044-.033z"/><path fill="#fff" d="M42.104 38.481c2.02 0 3.428-.77 3.428-1.462v-.03c-.667.597-1.937.992-3.428.992-1.492 0-2.763-.395-3.43-.992v.03c0 .692 1.409 1.462 3.43 1.462m0 7.132c2.02 0 3.428-.771 3.428-1.463v-.01c-.676.602-1.974.986-3.428.986-1.455 0-2.752-.384-3.43-.986v.01c0 .692 1.409 1.463 3.43 1.463"/><path fill="#fadceb" d="M43.63 32.822l-.764.744.18 1.05-.943-.496-.943.496.18-1.05-.762-.744 1.054-.153.471-.956.472.956zm-4.955 2.21c0 .118.04.238.117.359.42.65 1.781 1.104 3.312 1.104 1.53 0 2.891-.454 3.311-1.104a.66.66 0 00.117-.358V29.86c-.013.012-.03.022-.043.034-.061.051-.126.1-.195.15l-.083.055a3.34 3.34 0 01-.244.143l-.056.03a4.026 4.026 0 01-.337.151l-.095.035a5.14 5.14 0 01-.289.099l-.117.035c-.118.033-.24.064-.366.092-.017.003-.032.008-.049.012a7.19 7.19 0 01-.44.076l-.128.016a7.44 7.44 0 01-.354.035c-.047.004-.093.008-.14.01a8.038 8.038 0 01-.985 0c-.047-.002-.093-.006-.14-.01a7.502 7.502 0 01-.354-.035l-.127-.016a6.804 6.804 0 01-.441-.076l-.048-.012a6.272 6.272 0 01-.368-.092l-.116-.035a5.455 5.455 0 01-.29-.099l-.094-.035a4.14 4.14 0 01-.337-.151l-.056-.03a3.34 3.34 0 01-.327-.199 2.54 2.54 0 01-.194-.15c-.014-.01-.031-.021-.044-.033z"/><path fill="#fff" d="M42.104 30.35c2.02 0 3.428-.77 3.428-1.462v-.104c-.667.596-1.937.993-3.428.993-1.492 0-2.763-.397-3.43-.993v.104c0 .691 1.409 1.462 3.43 1.462m0 7.132c2.02 0 3.428-.771 3.428-1.463v-.01c-.676.602-1.974.986-3.428.986-1.455 0-2.752-.384-3.43-.986v.01c0 .692 1.409 1.463 3.43 1.463"/><path fill="#fadceb" d="M50.403 51.129l-.943-.496-.943.496.18-1.05-.763-.744 1.055-.153.471-.956.472.956 1.054.153-.763.744zm2.486-4.933c-.013.012-.03.022-.044.034-.06.051-.125.101-.194.15l-.083.055a3.35 3.35 0 01-.245.143l-.055.03c-.106.054-.22.104-.338.151l-.094.035a5.13 5.13 0 01-.289.099l-.117.035c-.118.034-.24.065-.366.092l-.049.012a6.42 6.42 0 01-.441.076l-.127.016a7.926 7.926 0 01-.354.036l-.14.01a8.029 8.029 0 01-.985 0l-.14-.01a7.996 7.996 0 01-.355-.036l-.126-.016a6.846 6.846 0 01-.442-.076l-.048-.011a6.475 6.475 0 01-.367-.093c-.04-.011-.078-.023-.116-.035a5.455 5.455 0 01-.29-.099l-.094-.035a4.256 4.256 0 01-.337-.15l-.056-.031a3.417 3.417 0 01-.327-.198 2.612 2.612 0 01-.195-.15c-.013-.011-.03-.022-.043-.034v5.173c0 .117.04.238.116.358.42.65 1.782 1.105 3.312 1.105 1.53 0 2.892-.455 3.312-1.105a.663.663 0 00.117-.358z"/><path fill="#fff" d="M49.46 46.687c2.02 0 3.429-.771 3.429-1.463v-.104c-.667.597-1.937.993-3.429.993-1.491 0-2.762-.396-3.428-.993v.104c0 .692 1.408 1.463 3.428 1.463m0 7.131c2.02 0 3.429-.77 3.429-1.463v-.01c-.677.602-1.974.987-3.429.987-1.454 0-2.752-.385-3.428-.986v.01c0 .691 1.408 1.462 3.428 1.462"/><path fill="#fadceb" d="M50.403 42.617l-.943-.495-.943.495.18-1.05-.763-.744 1.055-.153.471-.955.472.955 1.054.153-.763.744zm2.486-4.626c-.013.012-.03.022-.044.034a2.52 2.52 0 01-.194.15l-.083.055c-.077.05-.158.097-.245.143l-.055.03c-.106.054-.22.104-.338.151-.03.013-.062.024-.094.036a5.43 5.43 0 01-.772.225c-.017.003-.032.008-.049.012-.142.03-.29.054-.441.076l-.127.016a7.438 7.438 0 01-.354.036l-.14.01a8.029 8.029 0 01-.985 0l-.14-.01a7.5 7.5 0 01-.355-.036l-.126-.016a6.846 6.846 0 01-.442-.076l-.048-.012a5.926 5.926 0 01-.773-.226c-.031-.011-.063-.022-.094-.035a4.131 4.131 0 01-.337-.15c-.02-.01-.037-.022-.056-.031a3.288 3.288 0 01-.327-.199 2.52 2.52 0 01-.195-.15c-.013-.01-.03-.021-.043-.033v5.173c0 .117.04.238.116.358.42.65 1.782 1.104 3.312 1.104 1.53 0 2.892-.454 3.312-1.104a.662.662 0 00.117-.358z"/><path fill="#fff" d="M49.46 37.982c-1.491 0-2.762-.396-3.428-.993v.03c0 .691 1.408 1.463 3.428 1.463s3.429-.772 3.429-1.463v-.03c-.667.597-1.937.993-3.429.993m-3.428 6.158v.01c0 .692 1.408 1.463 3.428 1.463s3.429-.771 3.429-1.463v-.01c-.677.602-1.975.986-3.429.986-1.454 0-2.752-.384-3.428-.986"/><path fill="#fadceb" d="M57.76 51.129l-.943-.496-.943.496.18-1.05-.763-.744 1.054-.153.472-.956.472.956 1.054.153-.763.744zm2.442-4.899c-.06.051-.125.101-.194.15l-.083.055c-.077.05-.159.097-.245.143l-.055.03a4.2 4.2 0 01-.338.151l-.094.035a5.43 5.43 0 01-.289.099l-.117.035c-.118.034-.24.065-.366.092l-.05.012a6.39 6.39 0 01-.44.076l-.127.016a7.996 7.996 0 01-.355.036l-.14.01a8.029 8.029 0 01-.984 0l-.14-.01a7.996 7.996 0 01-.355-.036l-.126-.016a6.888 6.888 0 01-.442-.076l-.048-.011a6.475 6.475 0 01-.367-.093l-.117-.035a5.455 5.455 0 01-.29-.099l-.093-.035a4.199 4.199 0 01-.337-.15l-.056-.031a3.417 3.417 0 01-.327-.198 2.612 2.612 0 01-.195-.15c-.013-.011-.03-.022-.043-.034v5.173c0 .117.039.238.116.358.42.65 1.782 1.105 3.312 1.105 1.53 0 2.892-.455 3.312-1.105a.663.663 0 00.116-.358v-5.173c-.013.012-.03.022-.043.034"/><path fill="#fff" d="M56.817 46.113c-1.491 0-2.762-.396-3.428-.993v.104c0 .692 1.408 1.462 3.428 1.462s3.429-.77 3.429-1.462v-.104c-.667.597-1.937.993-3.429.993m3.429 6.243v-.01c-.677.601-1.975.985-3.429.985-1.454 0-2.752-.384-3.428-.986v.01c0 .692 1.408 1.463 3.428 1.463s3.429-.771 3.429-1.462M53.389 35.85c0 .14.058.284.171.43.059.075.13.146.212.214.026.023.059.042.088.064.06.044.12.09.188.13.04.024.086.046.128.068.067.036.133.072.206.104.05.023.105.043.158.063.074.03.148.058.227.085.06.02.121.036.182.054.08.023.162.046.247.066a6.943 6.943 0 001.192.169l.11.003c-.006-.001-.01-.004-.017-.006-.017-.004-.033-.01-.05-.016a1.13 1.13 0 01-.098-.043l-.043-.021a.879.879 0 01-.106-.07l-.017-.011a.777.777 0 01-.1-.098c-.009-.01-.016-.02-.023-.03a.664.664 0 01-.11-.211c-.004-.013-.009-.026-.012-.04a.596.596 0 01-.016-.135c0-.38.375-1.08.91-1.08.536 0 .913.7.913 1.08a.616.616 0 01-.017.135c-.003.014-.008.027-.012.04a.606.606 0 01-.11.21c-.008.01-.014.021-.023.031a.797.797 0 01-.1.098l-.017.011a.908.908 0 01-.106.07l-.043.021a.894.894 0 01-.149.059c-.005.002-.01.005-.016.006l.11-.003a8.233 8.233 0 00.728-.078 6.449 6.449 0 00.71-.157c.062-.018.124-.035.183-.055a4 4 0 00.226-.083c.053-.021.109-.041.16-.064.072-.032.137-.068.203-.102.044-.024.09-.045.13-.07.069-.04.128-.085.187-.13.029-.021.063-.041.09-.064.081-.068.152-.14.21-.214a.708.708 0 00.173-.43c0-.692-1.408-1.463-3.429-1.463-2.02 0-3.428.77-3.428 1.462"/><path fill="#fadceb" d="M57.76 42.617l-.943-.495-.943.495.18-1.05-.763-.744 1.054-.153.472-.955.472.955 1.054.153-.763.744zm2.442-4.592a2.52 2.52 0 01-.194.15l-.083.055c-.077.05-.159.097-.245.143l-.055.03a4.2 4.2 0 01-.338.151c-.03.013-.062.024-.094.036a5.54 5.54 0 01-.772.225c-.017.003-.032.008-.05.012a7.06 7.06 0 01-.44.076l-.127.016a7.5 7.5 0 01-.355.036l-.14.01a8.029 8.029 0 01-.984 0l-.14-.01a7.5 7.5 0 01-.355-.036l-.126-.016a6.888 6.888 0 01-.442-.076l-.048-.012a5.926 5.926 0 01-.773-.226 4.078 4.078 0 01-.431-.186l-.056-.03a3.288 3.288 0 01-.327-.199 2.52 2.52 0 01-.195-.15c-.013-.01-.03-.021-.043-.033v5.173c0 .117.039.238.116.358.42.65 1.782 1.104 3.312 1.104 1.53 0 2.892-.454 3.312-1.104a.662.662 0 00.116-.358v-5.173c-.013.012-.03.022-.043.034"/><path fill="#fff" d="M60.246 37.019v-.196c-.677.608-1.972.989-3.429.989-1.456 0-2.751-.38-3.428-.989v.196c0 .691 1.408 1.463 3.428 1.463s3.429-.772 3.429-1.463"/><path fill="#fff" d="M57.229 36.619c0-.182-.235-.58-.412-.58s-.411.398-.411.58c0 .104.18.226.41.226.233 0 .413-.122.413-.226m3.017 7.521c-.677.602-1.975.986-3.429.986-1.454 0-2.752-.384-3.428-.986v.01c0 .692 1.408 1.463 3.428 1.463s3.429-.771 3.429-1.463zM49.46 26.256c-2.02 0-3.428.77-3.428 1.462 0 .14.058.285.172.43.058.076.13.147.211.215.026.022.06.042.088.064.06.044.12.089.188.13.04.024.086.046.129.069.066.035.132.07.206.103.05.022.104.042.157.063.074.03.148.058.227.084.059.02.121.037.183.055.08.023.161.046.246.066a7.07 7.07 0 00.685.122 6.787 6.787 0 00.507.047l.11.003c-.006-.002-.01-.004-.017-.005l-.049-.018a.926.926 0 01-.1-.042l-.042-.022a.85.85 0 01-.105-.069l-.017-.011a.773.773 0 01-.1-.098c-.01-.01-.016-.02-.024-.03a.706.706 0 01-.076-.123.648.648 0 01-.034-.088l-.012-.04a.613.613 0 01-.016-.135c0-.38.376-1.08.911-1.08.536 0 .912.7.912 1.08a.613.613 0 01-.017.135l-.012.04a.648.648 0 01-.11.21c-.007.01-.014.021-.023.03a.773.773 0 01-.1.099l-.017.011a.85.85 0 01-.106.07l-.042.02a.926.926 0 01-.1.043l-.049.018-.017.005.11-.003a8.139 8.139 0 00.728-.078 6.449 6.449 0 00.71-.157c.062-.018.124-.035.184-.055.078-.026.151-.054.225-.083.053-.021.109-.042.16-.064.072-.032.138-.067.204-.103.043-.023.09-.045.13-.069.068-.04.127-.085.186-.129.029-.022.063-.042.09-.065.081-.068.152-.14.21-.214a.707.707 0 00.173-.43c0-.693-1.408-1.463-3.429-1.463"/><path fill="#fadceb" d="M50.403 34.616l-.943-.496-.943.496.18-1.05-.763-.744 1.055-.153.471-.956.472.956 1.054.153-.763.744zm2.442-4.722c-.06.051-.125.101-.194.15l-.083.055c-.077.05-.158.097-.245.142l-.055.031c-.106.054-.22.104-.338.151l-.094.035a5.43 5.43 0 01-.289.099l-.117.035a6.11 6.11 0 01-.366.092l-.049.011a6.78 6.78 0 01-.441.077c-.042.006-.085.01-.127.015a7.006 7.006 0 01-.354.036l-.14.011a8.32 8.32 0 01-.493.016 8.33 8.33 0 01-.492-.016l-.14-.01a7.062 7.062 0 01-.355-.037l-.126-.015a6.844 6.844 0 01-.442-.077l-.048-.01a5.926 5.926 0 01-.773-.227l-.094-.035a4.256 4.256 0 01-.337-.151l-.056-.03a3.288 3.288 0 01-.327-.199 2.612 2.612 0 01-.195-.15c-.013-.01-.03-.021-.043-.033v5.173c0 .117.04.238.116.358.42.65 1.782 1.104 3.312 1.104 1.53 0 2.892-.454 3.312-1.105a.66.66 0 00.117-.357V29.86c-.013.012-.03.022-.044.034"/><path fill="#fff" d="M52.889 28.888v-.196c-.677.608-1.972.988-3.429.988-1.456 0-2.751-.38-3.428-.988v.196c0 .691 1.408 1.462 3.428 1.462s3.429-.77 3.429-1.462"/><path fill="#fff" d="M49.872 28.487c0-.182-.235-.58-.412-.58-.176 0-.411.398-.411.58 0 .105.18.227.411.227.232 0 .412-.122.412-.227m-3.84 7.523v.01c0 .69 1.408 1.462 3.428 1.462s3.429-.771 3.429-1.463v-.01c-.677.602-1.975.986-3.429.986-1.454 0-2.752-.384-3.428-.986m-7.185-16.065c.058.074.13.146.211.214.027.022.06.042.088.063.06.045.12.09.188.131.04.024.086.046.129.068.066.036.132.071.206.104.05.022.104.042.158.063.073.03.147.058.227.084.058.02.12.037.182.055a6.7 6.7 0 00.246.066 7.09 7.09 0 00.685.122 6.212 6.212 0 00.507.046l.11.004-.016-.006a.996.996 0 01-.149-.06l-.043-.02a.954.954 0 01-.105-.07c-.006-.004-.012-.007-.017-.012a.754.754 0 01-.1-.097c-.01-.01-.016-.02-.024-.03a.626.626 0 01-.11-.211c-.003-.014-.008-.027-.012-.04a.614.614 0 01-.016-.136c0-.38.376-1.08.911-1.08.536 0 .912.7.912 1.08a.614.614 0 01-.017.136l-.012.04a.595.595 0 01-.11.21c-.007.01-.014.02-.023.03a.754.754 0 01-.1.098c-.005.005-.011.008-.017.012a.917.917 0 01-.105.07l-.043.02a.996.996 0 01-.1.043l-.049.017-.017.006.11-.004a6.228 6.228 0 00.507-.046 5.944 5.944 0 00.93-.188c.063-.018.125-.035.185-.055.078-.026.152-.054.225-.083.053-.022.11-.042.16-.064.072-.032.138-.068.204-.103.043-.023.09-.045.13-.069.068-.04.127-.085.186-.13.03-.021.063-.041.09-.064.081-.068.153-.14.21-.214a.706.706 0 00.173-.431c0-.692-1.408-1.463-3.429-1.463-2.02 0-3.428.771-3.428 1.463 0 .14.058.285.172.43"/><path fill="#fadceb" d="M41.34 25.565l-.763-.744 1.055-.153.472-.956.471.956 1.054.153-.762.744.18 1.05-.943-.496-.944.496zm4.192-3.91c-.013.012-.03.022-.044.033-.06.052-.125.102-.194.15l-.083.056c-.077.05-.158.097-.244.142l-.056.031c-.106.054-.22.104-.337.151l-.095.035a5.117 5.117 0 01-.406.134c-.118.033-.24.064-.366.092l-.049.011c-.142.03-.29.055-.44.077-.042.006-.085.01-.128.015a7.44 7.44 0 01-.354.036c-.047.004-.093.008-.14.01a8.029 8.029 0 01-.985 0c-.047-.002-.093-.006-.14-.01a7.502 7.502 0 01-.355-.036l-.126-.015a6.888 6.888 0 01-.442-.077l-.047-.011a6.19 6.19 0 01-.367-.092l-.117-.035a5.455 5.455 0 01-.29-.1 4.078 4.078 0 01-.431-.186c-.02-.009-.037-.02-.056-.03a3.417 3.417 0 01-.327-.198 2.612 2.612 0 01-.194-.15c-.014-.011-.031-.021-.044-.033v5.173c0 .117.04.237.117.357.42.65 1.782 1.105 3.312 1.105 1.53 0 2.891-.454 3.311-1.105a.663.663 0 00.117-.357z"/><path fill="#fff" d="M42.104 22.145c2.02 0 3.428-.77 3.428-1.463v-.195c-.677.608-1.972.988-3.428.988-1.457 0-2.752-.38-3.43-.988v.195c0 .692 1.409 1.463 3.43 1.463"/><path fill="#fff" d="M42.515 20.282c0-.182-.235-.58-.412-.58-.176 0-.411.398-.411.58 0 .105.18.227.411.227.232 0 .412-.122.412-.227m-3.84 7.522v.01c0 .692 1.408 1.462 3.429 1.462 2.02 0 3.428-.77 3.428-1.462v-.01c-.676.602-1.975.986-3.428.986-1.455 0-2.753-.384-3.429-.986"/><path fill="#fadceb" d="M43.63 3.74c.112-.753-.084-1.738-1.006-2.037a1.585 1.585 0 00-1.996 1.016.25.25 0 11-.475-.155c.13-.402.097-.831-.095-1.208a1.572 1.572 0 00-.92-.788 1.372 1.372 0 00-.427-.07c-.808 0-1.369.767-1.593 1.138-.491.812.86 3.565 1.895 5.236 1.79-.748 4.478-2.186 4.618-3.133"/><path d="M37.117 1.636C37.342 1.265 37.903.5 38.711.5c.135 0 .278.021.426.07.402.13.73.41.921.787.192.377.226.806.095 1.208a.25.25 0 00.476.155 1.586 1.586 0 011.995-1.016c.921.3 1.118 1.284 1.006 2.036-.14.947-2.827 2.385-4.617 3.133-1.035-1.671-2.386-4.424-1.896-5.236m1.796 5.797a.248.248 0 00.094-.018c.499-.202 4.883-2.017 5.118-3.602.185-1.245-.344-2.26-1.346-2.586a2.085 2.085 0 00-2.081.473 2.099 2.099 0 00-.194-.571A2.068 2.068 0 0039.292.093c-.956-.311-1.928.17-2.602 1.285-.835 1.38 1.718 5.477 2.012 5.94a.25.25 0 00.211.115"/><path fill="#fff" d="M42.103 26.12l.943.495-.18-1.05.764-.744-1.055-.153-.472-.956-.471.956-1.055.153.763.744-.18 1.05zm-.471 6.549l-1.055.153.763.744-.18 1.05.943-.496.943.496-.18-1.05.764-.744-1.055-.153-.472-.955zm-.472 9.948l.943-.495.944.495-.18-1.05.762-.744-1.054-.153-.472-.955-.471.955-1.055.153.764.744zm.472 6.565l-1.055.153.763.744-.18 1.05.943-.496.943.496-.18-1.05.764-.744-1.055-.153-.472-.956zm8.3-16.513l-.472-.955-.471.955-1.055.153.763.744-.18 1.05.943-.496.943.496-.18-1.05.763-.744zm0 8.001l-.472-.955-.471.955-1.055.153.763.744-.18 1.05.943-.496.943.496-.18-1.05.763-.744zm0 8.512l-.472-.956-.471.956-1.055.153.763.744-.18 1.05.943-.496.943.496-.18-1.05.763-.744zm7.357-8.512l-.472-.955-.472.955-1.054.153.763.744-.18 1.05.943-.496.943.496-.18-1.05.763-.744zm0 8.512l-.472-.956-.472.956-1.054.153.763.744-.18 1.05.943-.496.943.496-.18-1.05.763-.744z"/></svg>