<svg xmlns="http://www.w3.org/2000/svg" height="66.678" width="54.505" viewBox="0 0 54.505 66.678"><path fill="#fadceb" d="M37.776 61.422c-.136-.402-.257-.96-.296-1.719a2.27 2.27 0 00-1.086.452c.438.525.927.943 1.382 1.267m.801.504c.219.121.406.212.545.275l.02-.086a3.539 3.539 0 00-.395-2.348c-.11-.028-.4-.09-.768-.095.078 1.526.501 2.134.598 2.254m-4.546-3.618a3.562 3.562 0 00-.42.249c1.247 4.908 4.982 4.827 5.025 4.828l.014.002c.078-.123.146-.253.209-.387-.908-.197-4.035-1.13-4.828-4.692"/><path fill="#fadceb" d="M34.497 58.114c0 .003.002.005.003.007.567 2.706 2.536 3.781 3.731 4.192-1.128-.637-2.894-1.969-3.486-4.271a3.544 3.544 0 00-.248.072"/><path fill="#fadceb" d="M36.089 59.758c.76-.6 1.672-.632 2.258-.568a3.588 3.588 0 00-.272-.289c-.244-.059-1.443-.301-2.322.323a5.9 5.9 0 00.336.534m-.561-.985c.55-.367 1.173-.47 1.687-.47a3.577 3.577 0 00-1.977-.35c.077.29.175.563.29.82m-2.221 4.754c-.066.22-.099.398-.113.514 1.72.759 2.564.43 2.915.167a6.724 6.724 0 01-.728-.396 1.221 1.221 0 01-.675.183c-.346 0-.808-.114-1.399-.468m.511-1.074a4.444 4.444 0 00-.331.601l.008.004c.7.435 1.145.468 1.398.417a6.636 6.636 0 01-1.075-1.022m-.994-2.945c.588 1.948 1.63 3.098 2.624 3.776a.231.231 0 01.068.035c.006.005.01.013.016.019.366.24.723.419 1.048.55a.243.243 0 01.082.03l.005.005c.58.222 1.04.296 1.233.319a3.57 3.57 0 00.39-.378c-1.027-.109-3.95-.788-5.105-4.961a3.552 3.552 0 00-.437.494c.034.03.063.065.076.11m.146 1.677a8.4 8.4 0 01-.538-1.27 3.546 3.546 0 00-.234 2.55 6.59 6.59 0 01.772-1.28m-.263 2.36c.018.025.038.048.057.073a4.59 4.59 0 01.714-1.559c.006-.008.014-.013.02-.02a6.951 6.951 0 01-.255-.381c-.276.384-.674 1.034-.749 1.54.065.118.134.235.213.347m3.91.876c-.205.221-.677.588-1.562.588l-.063-.002c.006 0 .012.003.018.004a3.54 3.54 0 002.306-.376 6.469 6.469 0 01-.699-.215"/><path fill="#fff" d="M44.196 26.982a.372.372 0 01-.325.114l-4.889-.684-.074.054c.398.594.73 1.24.976 1.936l.001.006 7.345 2.839a1.574 1.574 0 001.134-2.935l-4.07-1.623a.372.372 0 01-.098.293"/><path fill="#fff" d="M27.854 40.333a.617.617 0 11-.307-1.196.617.617 0 01.307 1.196m25.642 1.42c-.579-.65-1.926-.727-2.572-.15-5.912 5.28-10.61 7.552-13.963 6.753-2.674-.638-4.937-3.365-6.92-8.337a.374.374 0 01.133-.445l.249-.178a.376.376 0 01.261-.068c.958.11 9.598.089 14.033.064.02.003.034 0 .052.003a1.567 1.567 0 001.768-1.35 1.56 1.56 0 00-.309-1.164 1.564 1.564 0 00-1.04-.604l-6.107-.82a.375.375 0 01-.286-.539 7.974 7.974 0 00-.492-8.003l-9.105 6.754-.17 3.887a.375.375 0 01-.485.342c-.265-.082-3.603-1.135-7.099-3.192L20.06 36.9a.177.177 0 01-.245.055.178.178 0 01-.055-.246l1.377-2.186c-.35-.211-.7-.435-1.049-.667l-2.58 2.652a.178.178 0 11-.255-.249l2.534-2.604a25.1 25.1 0 01-1.147-.833l-2.346 1.046a.178.178 0 01-.145-.325l2.177-.971c-2.144-1.718-3.991-3.856-4.763-6.43a.376.376 0 01.719-.215c1.966 6.561 11.761 10.313 14.02 11.098l.155-3.568a.374.374 0 01.151-.285l10.05-7.455a.38.38 0 01.276-.07l4.498.63c-.577-2.277-3.327-11.415-11.06-15.642-5.513-3.014-12.39-2.944-20.435.206-.029.011-.058.012-.087.015l.002.015c-2.541.813-6.211 3.247-8.554 6.347-2.437 3.224-3.17 8.342-1.962 13.69 1.182 5.23 4.009 9.68 7.201 11.339.124.064.201.19.202.33a8.038 8.038 0 006.815 7.885.376.376 0 01.262.565l-2.133 3.496a1.575 1.575 0 001.734 2.343c.398-.103.737-.352.952-.705a428.082 428.082 0 002.466-3.186c-1.525-4.452-4.868-14.52-5.649-19.339a.374.374 0 01.31-.43.372.372 0 01.43.31c1.004 6.2 6.33 21.275 6.384 21.427.24.805 1.016 1.596 1.747 1.473.063-.011.127-.025.19-.045.79-.235 1.348-1.422 1.084-2.308-.12-.423-2.948-10.33-3.23-15.012a.376.376 0 01.75-.045c.137 2.29.924 5.955 1.683 9.07 2.12-2.863 3.897-5.394 4.174-6.164a.375.375 0 01.7-.017c1.546 3.706 4.14 8.762 8.799 9.872 1.513.361 3.168.317 4.92-.133 3.45-.885 7.332-3.284 11.867-7.335.681-.608 1.054-1.93.502-2.547"/><path d="M48.364 28.312a1.576 1.576 0 01.82 2.212 1.573 1.573 0 01-1.954.723l-7.345-2.839-.001-.006a8.662 8.662 0 00-.976-1.936l.074-.054 4.89.684a.373.373 0 00.422-.407zm4.63 15.988c-4.534 4.051-8.416 6.45-11.866 7.335-1.753.45-3.408.495-4.921.133-4.658-1.11-7.253-6.166-8.8-9.872a.375.375 0 10-.7.017c-.276.77-2.053 3.3-4.173 6.165-.759-3.116-1.546-6.78-1.683-9.07a.375.375 0 00-.749.045c.282 4.68 3.108 14.588 3.23 15.01.263.887-.295 2.074-1.084 2.31a1.684 1.684 0 01-.19.044c-.733.123-1.508-.668-1.748-1.473-.054-.152-5.38-15.227-6.383-21.426a.375.375 0 10-.74.12c.78 4.818 4.123 14.886 5.647 19.339a420.7 420.7 0 01-2.465 3.185 1.566 1.566 0 01-.952.705 1.575 1.575 0 01-1.734-2.343l2.133-3.495a.374.374 0 00-.262-.567 8.038 8.038 0 01-6.815-7.884.375.375 0 00-.202-.33c-3.192-1.658-6.019-6.109-7.201-11.34-1.209-5.347-.475-10.465 1.962-13.69 2.343-3.099 6.013-5.533 8.554-6.346l-.002-.015c.029-.004.058-.004.087-.015 8.046-3.15 14.921-3.22 20.436-.205 7.732 4.226 10.481 13.364 11.06 15.64l-4.499-.63a.38.38 0 00-.276.07l-10.05 7.456a.375.375 0 00-.151.285l-.156 3.568c-2.258-.785-12.053-4.537-14.019-11.098a.375.375 0 10-.718.216c.77 2.573 2.618 4.71 4.762 6.429l-2.178.971a.178.178 0 00.146.325l2.346-1.046c.376.29.76.568 1.147.833l-2.534 2.604a.178.178 0 10.254.249l2.582-2.652c.348.232.698.456 1.048.667l-1.378 2.186a.178.178 0 00.302.19l1.383-2.195c3.497 2.058 6.834 3.111 7.1 3.193a.372.372 0 00.326-.052.373.373 0 00.158-.29l.17-3.887 9.105-6.754a7.975 7.975 0 01.492 8.003.375.375 0 00.286.54l6.106.819c.417.056.787.27 1.041.604.255.334.365.747.309 1.164a1.567 1.567 0 01-1.768 1.35c-.017-.003-.032 0-.052-.004-4.435.026-13.075.047-14.033-.063a.375.375 0 00-.261.068l-.249.178a.374.374 0 00-.132.445c1.982 4.972 4.245 7.7 6.92 8.337 3.352.799 8.05-1.473 13.961-6.753.647-.577 1.994-.5 2.573.15.552.618.18 1.94-.502 2.547M32.115 60.88c.06-.34.168-.664.317-.965.155.466.336.889.538 1.27a6.577 6.577 0 00-.772 1.28 3.553 3.553 0 01-.083-1.586m1.38 2.179c-.002-.002-.005-.002-.009-.004.085-.187.194-.39.332-.601.344.41.71.745 1.075 1.022-.253.051-.698.019-1.397-.417m2.613 1.15c-.35.263-1.194.592-2.915-.167.014-.116.047-.295.113-.514.591.354 1.053.468 1.399.468.32 0 .539-.096.674-.183.25.156.495.287.73.396m-2.612-2.17c-.006.007-.014.012-.02.02a4.608 4.608 0 00-.714 1.559c-.018-.025-.04-.048-.057-.073a3.611 3.611 0 01-.213-.347c.076-.506.473-1.156.749-1.54a7.1 7.1 0 00.255.381m1.512 2.972l-.018-.004.063.002c.885 0 1.357-.367 1.562-.588.263.096.5.165.7.214a3.538 3.538 0 01-2.307.376m-1.825-6.107c1.154 4.173 4.078 4.852 5.105 4.96-.12.136-.25.263-.39.379a5.235 5.235 0 01-1.233-.32c-.002 0-.003-.003-.005-.004a.237.237 0 00-.082-.03 5.966 5.966 0 01-1.049-.55c-.006-.006-.008-.013-.015-.02a.234.234 0 00-.068-.034c-.995-.678-2.036-1.828-2.624-3.776a.239.239 0 00-.076-.112c.13-.177.276-.341.437-.493m5.046 3.41c-1.195-.41-3.164-1.486-3.731-4.192 0-.002-.003-.004-.003-.007.082-.027.164-.051.248-.073.592 2.303 2.358 3.635 3.486 4.272m-.751-2.61c.04.758.16 1.318.296 1.719a7.368 7.368 0 01-1.382-1.267c.34-.268.725-.398 1.086-.452m1.661 2.412c-.005.03-.014.057-.02.086a7.38 7.38 0 01-.544-.275c-.097-.12-.52-.728-.598-2.254.368.006.658.067.768.095.397.713.538 1.534.394 2.348m-1.066-3.214c.096.091.186.187.272.289-.586-.063-1.499-.032-2.258.568a5.966 5.966 0 01-.336-.533c.88-.626 2.079-.382 2.322-.324m.561 4.484c-.043-.001-3.778.08-5.024-4.829a3.56 3.56 0 01.42-.248c.792 3.561 3.919 4.495 4.827 4.692a3.61 3.61 0 01-.209.388c-.005 0-.009-.003-.014-.003m-2.39-5.4c.341.06.666.168.969.317-.514.002-1.137.105-1.687.471a5.466 5.466 0 01-.29-.82 3.444 3.444 0 011.008.031M52.279 40.47c-.725-.04-1.399.167-1.855.574-3.454 3.086-6.45 5.108-8.967 6.07.073-1.247-.136-2.308-.65-3.022-.279-.387-.621-.583-1.018-.583h-.023c-1.07.021-2.083 1.5-2.195 1.67a.25.25 0 00.417.276c.263-.398 1.099-1.433 1.788-1.446.227-.013.44.118.625.375.474.659.645 1.692.54 2.913-1.436.477-2.709.593-3.805.33-2.36-.562-4.407-3.028-6.255-7.532 2.19.113 13.051.052 13.815.047a2.315 2.315 0 002.584-1.997 2.308 2.308 0 00-.455-1.718 2.308 2.308 0 00-1.538-.893l-5.602-.752a8.69 8.69 0 00.464-5.467l6.811 2.632a2.325 2.325 0 003.004-1.33 2.326 2.326 0 00-1.325-3.002l-4.558-1.817a31.455 31.455 0 00-1.666-4.62l3.052-.66a.178.178 0 10-.075-.348l-3.127.677a31.764 31.764 0 00-.326-.683l2.744-1.802a.178.178 0 00-.195-.298l-2.711 1.78a29.954 29.954 0 00-.371-.706l1.853-2.724a.178.178 0 10-.295-.201l-1.75 2.573c-1.782-3.186-4.486-6.621-8.477-8.804-5.718-3.128-12.808-3.073-21.074.162l-.007.005c-2.635.831-6.428 3.274-8.956 6.618C.093 20.216-.67 25.431.604 31.074c1.224 5.414 4.044 9.882 7.39 11.733a8.786 8.786 0 006.899 8.294l-1.85 3.032a2.325 2.325 0 002.56 3.46 2.31 2.31 0 001.394-1.02c.154-.198.992-1.268 2.13-2.748.287.832.462 1.327.47 1.351.303 1.016 1.241 2.004 2.302 2.004.094 0 .19-.008.284-.024.093-.016.186-.037.278-.065 1.184-.352 1.97-1.958 1.59-3.237-.013-.046-.609-2.135-1.284-4.835 1.79-2.407 3.493-4.782 4.263-6.096 1.643 3.761 4.324 8.459 9.003 9.575.972.232 1.996.306 3.06.23-1.848 2.883-6.29 3.627-9.222 2.317-2.584-1.153-3.693 1.273-4.866 3.84-.37.81-.753 1.647-1.202 2.45-.866 1.55-1.292 1.375-1.665 1.218-.2-.081-.446-.183-.709-.054-.328.162-.575.656-.854 1.705-.208.783-.092 1.398.348 1.827.498.487 1.366.647 2.29.647 1.703 0 3.596-.542 3.717-.578a.226.226 0 00.047-.019c1.206-.636 1.092-1.431.992-2.132-.086-.607-.168-1.181.433-1.838.24-.262.515-.39.86-.381 1.251.02 2.759 1.757 2.773 1.775a.244.244 0 00.099.066c.052.088.104.176.164.26.14.2.298.383.467.552l.003.002a4.036 4.036 0 002.862 1.18c.93 0 1.807-.324 2.51-.876.003-.003.007-.004.01-.008a4.05 4.05 0 001.379-2.04l.005-.01c.001-.004 0-.008.002-.013a4.042 4.042 0 00-.577-3.455 4.043 4.043 0 00-4.069-1.662h-.012c-.003 0-.005.002-.008.003a4.059 4.059 0 00-1.576.663c-.033.023-.063.05-.096.074a4.035 4.035 0 00-1.576 2.552 4.058 4.058 0 00.05 1.644c-.617-.545-1.53-1.193-2.4-1.208-.48.002-.9.175-1.239.544-.76.831-.649 1.616-.559 2.247.098.685.163 1.139-.708 1.607-1.215.35-4.497 1.02-5.494.046-.305-.298-.374-.736-.214-1.34.291-1.094.497-1.338.593-1.386.054-.026.135.002.296.069.612.254 1.293.35 2.292-1.437.46-.82.847-1.667 1.22-2.485 1.327-2.902 2.177-4.5 4.208-3.592 3.24 1.446 8.153.633 10.054-2.838a12.989 12.989 0 001.593-.303c3.57-.915 7.553-3.369 12.18-7.501.953-.851 1.416-2.65.562-3.607-.408-.456-1.055-.742-1.777-.784"/><path d="M27.547 39.137a.617.617 0 10.306 1.196.617.617 0 00-.306-1.196"/><path fill="#fadceb" d="M43.408 1.954a1.585 1.585 0 00-2.055.889.25.25 0 11-.465-.184 1.585 1.585 0 00-.89-2.056c-.9-.357-1.68.276-2.073.927-.496.818.656 3.64 1.558 5.358 1.862-.627 4.659-1.885 4.799-2.823.074-.501.14-1.71-.874-2.111"/><path d="M44.282 4.065c-.14.938-2.937 2.197-4.8 2.823-.9-1.718-2.053-4.54-1.557-5.359.394-.65 1.174-1.283 2.073-.926a1.586 1.586 0 01.89 2.056.251.251 0 00.14.325.252.252 0 00.325-.141 1.585 1.585 0 012.055-.889c1.013.401.948 1.61.874 2.11m-2.798-2.232A2.086 2.086 0 0040.183.138c-.979-.387-2.034.056-2.686 1.132-.83 1.371 1.388 5.566 1.644 6.04a.25.25 0 00.297.12c.521-.169 5.1-1.695 5.338-3.291.192-1.29-.25-2.28-1.184-2.65a2.086 2.086 0 00-2.108.343"/></svg>