<svg xmlns="http://www.w3.org/2000/svg" height="71.507" width="65.573" viewBox="0 0 65.573 71.507"><path fill="#fff" d="M56.545 16.023a.177.177 0 01-.198-.155.438.438 0 00-.49-.383.437.437 0 00-.383.489.178.178 0 11-.353.042.794.794 0 111.58-.191.178.178 0 01-.156.198m-6.761 1.948c-.168.24-.429.385-.778.43-.412.052-.744-.016-.987-.205a.92.92 0 01-.141-.137c-.161.3-.456.589-.943.589l-.043-.001c-.782-.027-.99-.725-.99-1.09 0-.1.08-.178.177-.179h.001c.098 0 .178.079.178.177.001.073.025.715.646.736.651.025.766-.693.77-.723a.182.182 0 01.179-.152.178.178 0 01.174.157c.008.058.104.582.934.475.244-.032.422-.125.53-.278.203-.292.11-.72.11-.724a.178.178 0 01.346-.08c.006.024.13.582-.163 1.005m-8.522-.866a.177.177 0 01-.198-.155.44.44 0 00-.872.106.178.178 0 01-.354.043.788.788 0 01.163-.586.79.79 0 01.531-.3.799.799 0 01.885.694.178.178 0 01-.155.198m19.944 34.414a11.623 11.623 0 00-.37-.346c-.475-.435-.763-.697-.666-1.03a.431.431 0 01.102-.179c.883-4.45 1.051-11.564.948-15.043-.384-12.93-4.18-22.138-5.401-24.783l-1.087 2.907a.375.375 0 01-.326.243l-13.823.95a.369.369 0 01-.318-.14l-1.597-1.99c-.095 1.764-.28 5.446-.265 7.085 0 .072-.106 3.955-.254 8.307l.002.012-.003.03-.005.146c-.061.287-.377.912-.486 1.122a4.336 4.336 0 01-.816.895c-.697.577-1.443.837-2.1.737-1.693-.26-3.504-1.485-3.865-2.597-.062-.095-.11-.216-.172-.369-.304-.75-.657-1.412-1.627-1.267-.88.133-1.49.903-1.388 1.753.042.354.13.717.262 1.08.902 2.48 3.708 4.502 6.254 4.508h.017c1.695 0 2.553-.576 3.978-1.794a.375.375 0 11.487.57c-.257.22-.501.424-.74.612-.134 3.255-.277 5.947-.398 6.477a.374.374 0 01-.138.214 8.044 8.044 0 00-2.213 10.192.375.375 0 01-.295.55l-1.815.175 1.842.178a2.327 2.327 0 011.931 3.186c1.694.003 3.639.008 5.651.014a2.327 2.327 0 011.472-3.905l3.539-.342a8.79 8.79 0 01.186-7.679l-.218.055a2.337 2.337 0 01-.567.07 2.329 2.329 0 01-2.253-1.758 2.328 2.328 0 011.689-2.82c2.012-.506 5.757-1.446 6.848-3.487a.376.376 0 01.662.353c-1.248 2.335-5.202 3.328-7.326 3.86a1.575 1.575 0 10.764 3.055c2.598-.652 7.432-1.864 9.339-5.43a.376.376 0 01.661.354c-1.78 3.33-5.78 4.727-8.584 5.485a8.042 8.042 0 00-.293 8.086.375.375 0 01-.295.55l-4.08.394c-.418.04-.796.242-1.063.566a1.564 1.564 0 00-.352 1.153c.042.432.252.823.577 1.072 1.275.977 10.765 1.847 14.913.5l-.035-.046.153.009a.366.366 0 01.327.046c.03.012.044.026.06.041l.015.016c3.243 3.238 2.951 7.446 1.304 9.99-1.84 2.845-5.028 3.74-8.526 2.396-1.26-.484-2.362-1.64-3.53-2.865-2.367-2.484-5.611-5.884-11.182-2.714a1.826 1.826 0 00-.683 2.487 1.826 1.826 0 002.487.682c.953-.542 1.735-.79 2.44-.79 1.488 0 2.63 1.1 4.3 2.852 1.328 1.394 2.835 2.974 4.86 3.752 1.458.56 2.93.844 4.375.844 3.497 0 6.603-1.699 8.52-4.662 2.965-4.579 2.22-10.572-1.81-14.575"/><path d="M28.395 31.303c1.425 1.774 3.663 2.992 5.808 2.997h.019c1.257 0 2.127-.292 2.952-.81-.118 2.747-.239 4.979-.334 5.633a8.792 8.792 0 00-2.55 10.554l-2.713.262a8.788 8.788 0 00-2.735-10.11c-.123-.86-.294-4.55-.447-8.526m6.121 23.3c-.109.001-5.408.034-11.373.05a2.3 2.3 0 00.644-1.392 2.327 2.327 0 00-2.09-2.537l-3.538-.342a8.792 8.792 0 00-2.667-10.643.374.374 0 10-.454.596 8.044 8.044 0 012.213 10.192.376.376 0 00.295.55l4.079.393a1.576 1.576 0 01.833 2.797 1.562 1.562 0 01-1.136.338l-.048-.001c-.102.003-10.144.307-13.796.001l.005-.01a76.118 76.118 0 01-.186-.004.582.582 0 01-.208-.05.378.378 0 00-.337.024c-1.75 1.04-2.704 2.254-2.837 3.606-.176 1.793 1.136 3.88 3.511 5.58 4.156 2.976 11.433 4.578 18.323 1.451a1.576 1.576 0 012.124 1.988c-.148.394-.44.706-.823.88-2.941 1.335-6.032 2.012-9.186 2.012-4.452 0-8.924-1.375-12.271-3.771-3.35-2.398-5.104-5.478-4.811-8.448.167-1.702 1.098-4.147 4.585-6.135a.376.376 0 00.18-.41c-1.079-4.71-1.862-12.438-1.79-15.694.081-3.78 1.28-11.247 2.303-15.584.84-3.558 3.12-9.896 3.918-12.073l1.702 3.02c.061.11.173.182.298.19l12.766.951a.37.37 0 00.302-.118l1.984-2.132c.103 1.27.247 3.09.247 3.353 0 .743.002 1.487.005 2.23.005 1.455.01 2.96-.003 4.438 0 .042.035 1.368.094 3.325a7.858 7.858 0 00-2.321 1.647.375.375 0 00.54.52c1.65-1.71 4.152-2.51 6.085-1.944 1.49.437 2.537 1.642 2.87 3.307a1.576 1.576 0 01-1.233 1.853c-.41.082-.822 0-1.162-.221-.307-.292-.512-.58-.573-.809a.3.3 0 00-.074-.14 2.336 2.336 0 01-.106-.242c-.24-.59-.796-1.974-2.434-1.727-1.283.193-2.171 1.328-2.021 2.582.05.412.15.832.303 1.248.093.258.21.51.337.756l.004.116h.013v.013l-.012.001h.012c.167 4.63.368 9.224.531 9.936.02.085.069.162.138.215a8.044 8.044 0 012.213 10.192.375.375 0 00.296.55l4.078.393a1.576 1.576 0 01.833 2.797 1.57 1.57 0 01-1.136.338c-.012-.001-.024-.008-.038-.001m19.98 16.153c-1.445 0-2.917-.284-4.376-.845-2.024-.778-3.53-2.358-4.86-3.752-1.67-1.75-2.811-2.85-4.298-2.85-.705 0-1.488.246-2.441.789-.874.497-1.99.19-2.487-.683a1.826 1.826 0 01.683-2.487c5.57-3.17 8.814.23 11.183 2.714 1.167 1.224 2.269 2.38 3.529 2.865 3.498 1.344 6.685.449 8.526-2.396 1.648-2.544 1.94-6.752-1.303-9.989h-.001c-.006-.006-.01-.012-.016-.016a.144.144 0 00-.06-.042.366.366 0 00-.325-.046 7.407 7.407 0 00-.153-.009l.034.046c-4.148 1.347-13.638.477-14.913-.5a1.533 1.533 0 01-.577-1.073c-.04-.418.085-.827.352-1.152a1.566 1.566 0 011.063-.566l4.08-.394a.373.373 0 00.295-.55 8.042 8.042 0 01.293-8.086c2.804-.758 6.803-2.154 8.584-5.485a.375.375 0 10-.662-.353c-1.906 3.565-6.74 4.777-9.338 5.43a1.575 1.575 0 01-.764-3.054c2.124-.535 6.078-1.527 7.326-3.861a.375.375 0 00-.661-.354c-1.092 2.041-4.836 2.981-6.85 3.486a2.327 2.327 0 00-1.688 2.82 2.328 2.328 0 002.82 1.69l.218-.056a8.79 8.79 0 00-.186 7.679l-3.539.342a2.327 2.327 0 00-1.471 3.904l-5.652-.013a2.327 2.327 0 00-1.931-3.186l-1.842-.178 1.815-.175a.375.375 0 00.295-.55 8.043 8.043 0 012.214-10.192.376.376 0 00.137-.215c.121-.529.264-3.221.398-6.476.24-.188.483-.393.74-.613a.375.375 0 10-.487-.57c-1.425 1.22-2.284 1.795-3.978 1.795h-.017c-2.547-.006-5.352-2.028-6.254-4.508a4.859 4.859 0 01-.262-1.08c-.102-.85.508-1.62 1.387-1.752.97-.146 1.324.515 1.628 1.266.062.153.11.274.172.368.362 1.113 2.172 2.338 3.865 2.599.657.1 1.403-.162 2.1-.737.324-.27.6-.578.815-.896.11-.21.425-.835.487-1.122l.005-.147c0-.01.003-.02.003-.029l-.002-.012c.148-4.352.255-8.234.254-8.307-.014-1.64.17-5.32.265-7.084l1.596 1.99a.37.37 0 00.319.14l13.824-.951a.375.375 0 00.325-.243l1.087-2.907c1.22 2.645 5.017 11.853 5.401 24.783.104 3.48-.065 10.592-.948 15.043a.43.43 0 00-.102.178c-.097.334.19.597.667 1.031.124.113.253.23.37.346 4.029 4.003 4.774 9.997 1.81 14.575-1.918 2.963-5.024 4.663-8.52 4.663m6.845-20.138a9.497 9.497 0 01-.367-.347v-.002c.924-4.503 1.1-11.818.995-15.371a71.41 71.41 0 00-1.842-14.146l3.033.266h.016a.179.179 0 00.016-.355l-3.153-.276a70.026 70.026 0 00-.266-1.07.174.174 0 00.093.01l3.998-.66a.178.178 0 10-.058-.351l-3.998.659a.174.174 0 00-.106.062 69.26 69.26 0 00-.34-1.251l3.154-1.853a.178.178 0 00-.18-.308l-3.075 1.808c-1.527-5.293-3.127-8.368-3.156-8.424a.37.37 0 00-.356-.198.375.375 0 00-.327.243l-1.309 3.5-13.387.922-2.087-2.6a.374.374 0 00-.666.212c-.012.203-.247 4.284-.308 6.875l-2.629-.936a.178.178 0 10-.12.336l2.742.975c-.005.287-.007.549-.006.778l-3.944.342a.178.178 0 00.015.355h.016l3.91-.34c-.004.268-.014.692-.029 1.24l-2.686.655a.178.178 0 10.085.346l2.59-.632a946.408 946.408 0 01-.203 6.38c0 .008-.005.014-.005.023-.017.466-.454 1.157-1.04 1.642-.521.431-1.072.639-1.507.573-.457-.07-.89-.21-1.286-.386a2.325 2.325 0 001.714-2.709c-.391-1.947-1.628-3.361-3.395-3.879-1.165-.34-2.506-.246-3.782.2-.05-1.638-.08-2.787-.077-3.022.006-.73.008-1.465.008-2.198l3.029.184h.01a.178.178 0 00.011-.355l-3.05-.186-.003-1.04 3.588.029h.002a.178.178 0 00.001-.357l-3.592-.028-.001-.495-.001-.466 3.105-1.105a.178.178 0 00.108-.227.179.179 0 00-.227-.108l-2.987 1.062c-.001-.461-.003-.923-.003-1.385 0-.422-.287-3.868-.32-4.26a.375.375 0 00-.648-.224l-2.439 2.621-12.386-.922-2-3.553a.376.376 0 00-.678.053c-.02.054-1.317 3.528-2.52 7.17l-3.01-1.655a.178.178 0 00-.172.313l3.068 1.686c-.108.328-.214.656-.319.983l-3.65-.6a.178.178 0 00-.059.35l3.6.594c-.105.333-.207.664-.306.989l-3.803.414a.179.179 0 00.039.354l3.651-.397a49.148 49.148 0 00-.745 2.722c-1.054 4.464-2.24 11.854-2.324 15.74-.07 3.237.69 10.827 1.75 15.608-3.57 2.124-4.54 4.737-4.72 6.573-.32 3.245 1.547 6.573 5.12 9.132 3.471 2.485 8.103 3.91 12.708 3.91 3.262 0 6.457-.699 9.496-2.078a2.31 2.31 0 001.215-1.3 2.327 2.327 0 00-3.137-2.934c-6.616 3.004-13.595 1.472-17.575-1.378-2.155-1.542-3.351-3.373-3.201-4.897.105-1.066.887-2.057 2.327-2.946.083.022.166.032.249.037.004 0 .008.003.012.004 1.248.116 3.293.154 5.442.154 2.325 0 4.771-.044 6.462-.083 7.22-.008 14.907-.054 15.349-.056a2.32 2.32 0 001.867-.696l7.656.019c1.776.492 4.891.83 7.932.83 2.374 0 4.694-.21 6.301-.709 2.799 2.921 2.53 6.645 1.067 8.907-1.635 2.524-4.486 3.31-7.628 2.103-1.102-.424-2.148-1.521-3.256-2.683-2.25-2.359-6.016-6.307-12.096-2.848a2.576 2.576 0 00-.964 3.51 2.576 2.576 0 003.51.964c2.468-1.404 3.364-.655 5.826 1.926 1.383 1.452 2.952 3.096 5.133 3.935 1.545.594 3.108.895 4.645.895 3.757 0 7.092-1.825 9.15-5.006 3.159-4.879 2.373-11.259-1.911-15.514-.124-.122-.26-.247-.393-.368"/><path d="M49.734 16.833a.178.178 0 00-.134.213c.001.004.094.432-.11.724-.107.153-.285.246-.529.278-.83.107-.926-.417-.934-.475a.178.178 0 00-.174-.157.182.182 0 00-.179.152c-.004.03-.119.748-.77.723-.621-.02-.645-.663-.646-.736a.178.178 0 00-.356.001c0 .366.208 1.064.99 1.091h.043c.487 0 .782-.288.942-.588a.93.93 0 00.142.137c.243.189.575.257.988.205.348-.045.61-.19.777-.43.294-.423.169-.981.163-1.005a.178.178 0 00-.213-.133m6.668-1.538a.783.783 0 00-.587-.164.792.792 0 00-.694.885.178.178 0 00.353-.042.44.44 0 01.873-.106c.011.097.1.17.198.155a.178.178 0 00.155-.198.788.788 0 00-.298-.53m-15.87.918a.788.788 0 00-.53.3.788.788 0 00-.164.586.178.178 0 00.354-.043.436.436 0 01.383-.49.44.44 0 01.489.384.178.178 0 00.353-.043.799.799 0 00-.885-.694"/><path fill="#fff" d="M24.401 14.265a.178.178 0 01-.162-.192.797.797 0 011.4-.449.788.788 0 01.185.58.178.178 0 01-.178.163h-.015a.177.177 0 01-.162-.193.437.437 0 00-.401-.474.442.442 0 00-.474.402.177.177 0 01-.193.163m-4.86 1.759l-.09.003c-.459 0-.751-.27-.917-.553a.918.918 0 01-.137.142c-.235.199-.564.281-.979.244-.35-.032-.616-.166-.793-.4-.31-.411-.207-.975-.202-.998a.178.178 0 01.35.066c0 .004-.077.435.138.72.113.148.295.234.54.257.316.028.557-.026.717-.16a.576.576 0 00.197-.351.178.178 0 01.168-.163c.083-.012.167.056.185.144.006.03.16.75.797.693.636-.046.618-.731.617-.76a.178.178 0 01.171-.185.18.18 0 01.185.172c.013.365-.167 1.072-.947 1.129m-2.495 19.464a2.316 2.316 0 01-1.565.605 2.32 2.32 0 01-2.323-2.43c.029-.62.297-1.193.756-1.61.203-.186.218-.27.219-.27-.116-.444-.913-1.198-1.914-1.429-.177-.041-.773-.153-1.01.122a.375.375 0 01-.568-.49c.355-.412.975-.542 1.747-.363 1.128.26 2.256 1.151 2.463 1.945.067.258.068.583-.432 1.039a1.56 1.56 0 00-.511 1.09c-.02.42.126.823.408 1.133a1.577 1.577 0 002.225.103c1.255-1.144 1.75-2.661 1.356-4.163-.511-1.947-2.485-3.68-4.801-4.215a.375.375 0 11.168-.73c2.576.593 4.78 2.549 5.358 4.755.467 1.78-.108 3.57-1.576 4.908m-6.432-23.153a.792.792 0 01.58-.186.79.79 0 01.542.279.79.79 0 01.186.58.178.178 0 01-.177.163l-.015-.001a.178.178 0 01-.163-.192.44.44 0 00-.875-.072.177.177 0 01-.192.163.178.178 0 01-.163-.192.79.79 0 01.277-.542M35.69 54.267a1.576 1.576 0 00-.833-2.796l-4.079-.394a.376.376 0 01-.294-.55 8.044 8.044 0 00-2.214-10.192.377.377 0 01-.138-.215c-.162-.713-.364-5.307-.531-9.936h-.012.012v-.014h-.012l-.005-.116a6.588 6.588 0 01-.338-.756 5.608 5.608 0 01-.302-1.248c-.15-1.254.737-2.389 2.02-2.582 1.639-.247 2.196 1.137 2.435 1.727.038.093.085.21.106.242a.297.297 0 01.074.14c.061.23.266.518.574.809.34.221.751.303 1.16.221a1.577 1.577 0 001.235-1.853c-.335-1.665-1.38-2.87-2.87-3.307-1.934-.566-4.436.234-6.086 1.945a.375.375 0 01-.54-.521 7.855 7.855 0 012.32-1.647 596.65 596.65 0 01-.093-3.325 364.9 364.9 0 00.003-4.437c-.002-.744-.005-1.488-.005-2.232 0-.261-.144-2.082-.247-3.352l-1.983 2.132a.37.37 0 01-.303.119l-12.765-.951a.375.375 0 01-.3-.19l-1.7-3.022C9.18 10.145 6.9 16.482 6.06 20.04c-1.024 4.337-2.222 11.803-2.304 15.584-.071 3.256.712 10.983 1.791 15.694a.375.375 0 01-.18.41C1.88 53.716.95 56.162.782 57.862c-.293 2.971 1.461 6.05 4.81 8.449 3.347 2.396 7.82 3.77 12.272 3.77 3.155 0 6.245-.676 9.186-2.01.383-.175.675-.487.823-.881a1.576 1.576 0 00-2.124-1.987c-6.89 3.126-14.168 1.524-18.323-1.452-2.375-1.7-3.687-3.787-3.51-5.58.132-1.352 1.087-2.565 2.836-3.606a.377.377 0 01.337-.023.58.58 0 00.209.049l.185.005-.005.01c3.652.305 13.694 0 13.796-.002l.048.001c.412.04.814-.08 1.136-.338a1.577 1.577 0 00-.833-2.796l-4.08-.394a.376.376 0 01-.294-.55 8.044 8.044 0 00-2.213-10.192.375.375 0 11.455-.596 8.791 8.791 0 012.666 10.644l3.538.341a2.327 2.327 0 012.09 2.537 2.302 2.302 0 01-.644 1.391c5.965-.016 11.264-.048 11.373-.048.014-.007.026 0 .038.001a1.57 1.57 0 001.136-.338"/><path d="M10.5 13.07a.18.18 0 00.192-.164.437.437 0 01.473-.402.437.437 0 01.402.474.178.178 0 10.355.029.79.79 0 00-.186-.58.788.788 0 00-.542-.278.79.79 0 00-.857.728.178.178 0 00.163.192m14.567.631a.436.436 0 01.402.474.178.178 0 00.162.192l.015.001c.092 0 .17-.07.178-.163a.79.79 0 00-.185-.58.797.797 0 00-1.4.449.178.178 0 10.355.03.442.442 0 01.473-.403"/><path fill="#fadceb" d="M36.536 1.175a1.57 1.57 0 00-1.184.257c-.348.241-.58.603-.656 1.02a.25.25 0 11-.491-.09A1.586 1.586 0 0032.673.5c-.911 0-1.418.929-1.602 1.355-.376.872 1.335 3.416 2.587 4.931 1.673-.983 4.14-2.772 4.15-3.729.01-.76-.318-1.71-1.272-1.881"/><path d="M33.658 6.785c-1.252-1.515-2.963-4.06-2.587-4.93.185-.428.69-1.356 1.602-1.356a1.585 1.585 0 011.531 1.863.25.25 0 00.202.29.25.25 0 00.29-.2c.076-.417.309-.779.656-1.02a1.57 1.57 0 011.185-.257c.952.172 1.28 1.12 1.272 1.881-.01.957-2.479 2.746-4.151 3.73m1.409-5.765a2.093 2.093 0 00-.441.411 2.085 2.085 0 00-1.61-1.401c-.99-.18-1.887.429-2.404 1.625-.64 1.482 2.444 5.195 2.798 5.613a.25.25 0 00.315.055c.468-.267 4.566-2.66 4.584-4.263.014-1.257-.646-2.191-1.683-2.378a2.067 2.067 0 00-1.56.338M13.264 25.824a.376.376 0 00-.168.73c2.316.535 4.29 2.269 4.8 4.216.394 1.502-.1 3.02-1.355 4.163a1.577 1.577 0 01-2.224-.103 1.562 1.562 0 01-.41-1.132c.02-.42.202-.809.512-1.091.5-.456.499-.78.432-1.039-.207-.794-1.335-1.684-2.463-1.944-.772-.18-1.392-.05-1.747.363a.375.375 0 00.569.49c.236-.276.832-.164 1.01-.123 1 .23 1.796.986 1.912 1.429 0 0-.015.084-.218.27a2.31 2.31 0 00-.756 1.61 2.318 2.318 0 002.323 2.43c.56 0 1.12-.2 1.565-.605 1.468-1.339 2.043-3.127 1.577-4.908-.58-2.206-2.782-4.162-5.359-4.756m7.039-11.101a.178.178 0 00-.171.185c.001.029.02.714-.617.76-.637.057-.791-.663-.797-.693-.018-.088-.102-.156-.185-.144a.178.178 0 00-.168.163.577.577 0 01-.197.35c-.16.135-.401.189-.718.16-.244-.022-.426-.108-.539-.257-.215-.284-.139-.715-.138-.72a.178.178 0 00-.35-.065c-.005.023-.108.587.203.998.176.234.443.368.792.4.415.037.744-.045.98-.244a.916.916 0 00.135-.142c.167.284.46.553.919.553l.089-.003c.78-.057.96-.764.947-1.13a.18.18 0 00-.185-.17"/></svg>