<svg xmlns="http://www.w3.org/2000/svg" height="65.267" width="52.66" viewBox="0 0 52.66 65.267"><path fill="#fff" d="M28.967 46.628a.617.617 0 110 1.234.617.617 0 010-1.234m3.036-14.979c.287-.056.605-.118.945-.19.22-.412.51-.789.867-1.111a4.024 4.024 0 012.935-1.038 4.066 4.066 0 011.483.366c.727-.431 1.34-.947 1.718-1.576a.375.375 0 01.642.388c-.384.637-.955 1.169-1.633 1.617a4.045 4.045 0 011.635 3.271c1.243-.756 2.351-1.728 3.121-3.004 1.242-2.059 1.438-4.55.583-7.408a.375.375 0 01.718-.215c.92 3.068.697 5.763-.659 8.01-.946 1.568-2.337 2.707-3.87 3.552a4.04 4.04 0 01-1.233 2.084 4.036 4.036 0 01-2.934 1.038 4.03 4.03 0 01-2.369-.925c-.338.069-.662.134-.957.192a2.574 2.574 0 01-3.021-2.029 2.576 2.576 0 012.029-3.022m.016-20.786a.179.179 0 01.173.184c-.003.073-.004.715.616.76.646.047.792-.663.797-.693a.172.172 0 01.185-.144.18.18 0 01.168.163c.006.059.088.587.915.51.246-.021.427-.108.54-.258.213-.282.139-.713.137-.717a.178.178 0 01.35-.067c.005.024.108.587-.202.999-.176.233-.444.367-.793.399-.417.036-.743-.045-.979-.243a.885.885 0 01-.136-.143c-.167.284-.459.553-.919.553-.028 0-.058 0-.088-.003-.78-.057-.961-.763-.948-1.13.004-.097.07-.181.184-.17m9.83-1.691a.617.617 0 11.102 1.229.617.617 0 01-.102-1.23m-15.212 1.722a.617.617 0 11-.102-1.23.617.617 0 01.102 1.23m.782-2.78L23.33 5.694l-.004 3.76c0 .837-.004 1.673-.006 2.51a418.67 418.67 0 00.003 5.01c.006.632.095 1.373.271 2.267.101.511.093 1.21.005 2.057l-.012.109-.02.034-.001.002c-.56 1.238-2.728 2.584-4.368 2.333-2.06-.317-4.232-1.891-4.387-3.177a1.824 1.824 0 00-3.62.433c.388 3.253 3.983 6.336 7.396 6.344h.02a8.57 8.57 0 005.575-2.035.375.375 0 11.487.57 9.133 9.133 0 01-2.188 1.382l-.3 1.343c-.148.656-.298 1.325-.447 2.001a.376.376 0 01-.321.292c-4.252.505-7.616 3.972-8 8.242a9.047 9.047 0 002.185 6.779.375.375 0 01-.143.592L9.01 49.15c-.452.183-.805.53-.996.979-.19.448-.193.944-.01 1.396a1.818 1.818 0 002.374 1.006.352.352 0 01.05-.016c.14-.035 14.054-3.518 15.328-4.006a.379.379 0 01.27.001l.322.125a.377.377 0 01.24.399c-.772 5.974-2.473 9.579-5.203 11.018-3.428 1.805-9.184.64-17.113-3.469a1.813 1.813 0 00-1.39-.12 1.826 1.826 0 00-.287 3.357c6.099 3.161 11.022 4.697 15.05 4.697 2.05 0 3.88-.417 5.44-1.24 3.736-1.968 6.027-6.194 7.004-12.917a.374.374 0 01.681-.157c1.288 1.896 11.649 9.609 11.753 9.687a.33.33 0 01.038.032c.342.333.794.516 1.272.516a1.826 1.826 0 001.272-3.13l-3.312-3.223a.374.374 0 01.113-.614 9.12 9.12 0 005.267-10.586.374.374 0 01.027-.254c3.428-7.078 1.972-17.778.147-25.508-.969-4.103-3.634-11.48-4.477-13.777l-2.313 3.575a.375.375 0 01-.283.17L27.64 8.164a.37.37 0 01-.222-.051"/><path d="M28.967 47.862a.617.617 0 100-1.234.617.617 0 000 1.234"/><path fill="#fff" d="M32.615 32.293c-.163.032-.319.064-.467.092a1.826 1.826 0 00-1.438 2.142 1.826 1.826 0 002.14 1.437l.48-.095a4.032 4.032 0 01-.715-3.576"/><path d="M33.33 35.869l-.48.095a1.826 1.826 0 01-2.141-1.438 1.826 1.826 0 011.438-2.14l.468-.093a4.034 4.034 0 00.715 3.576m3.394-6.06c.95.05 1.826.468 2.463 1.177a3.571 3.571 0 01-.266 5.037 3.54 3.54 0 01-2.574.91 3.543 3.543 0 01-2.464-1.176 3.546 3.546 0 01-.91-2.574 3.543 3.543 0 011.176-2.463 3.544 3.544 0 012.575-.91m-4.227 6.939c.166 0 .334-.017.498-.05.295-.057.62-.122.957-.192a4.03 4.03 0 002.588.931 4.037 4.037 0 002.715-1.043 4.04 4.04 0 001.234-2.084c1.532-.845 2.924-1.984 3.87-3.551 1.355-2.248 1.577-4.943.658-8.011a.375.375 0 00-.718.215c.856 2.857.66 5.35-.583 7.408-.77 1.276-1.878 2.248-3.12 3.004a4.046 4.046 0 00-1.636-3.27c.678-.449 1.25-.982 1.634-1.618a.375.375 0 00-.643-.388c-.38.629-.99 1.144-1.718 1.576a4.06 4.06 0 00-1.483-.366 4.023 4.023 0 00-2.935 1.038c-.358.322-.647.7-.867 1.112-.34.07-.658.133-.946.19a2.577 2.577 0 00-2.029 3.021 2.578 2.578 0 002.524 2.078m.286-24.586l.089.003c.46 0 .751-.269.918-.553a.903.903 0 00.136.143c.236.198.562.28.979.243.35-.032.617-.166.793-.4.31-.411.207-.974.203-.998a.18.18 0 00-.209-.141.179.179 0 00-.141.208c0 .004.075.435-.138.717-.113.15-.295.237-.54.259-.827.076-.909-.452-.915-.51a.178.178 0 00-.168-.164.172.172 0 00-.185.144c-.005.03-.151.74-.797.694-.62-.046-.619-.688-.617-.761a.179.179 0 00-.172-.184c-.113-.011-.18.073-.184.17-.013.367.167 1.073.948 1.13m9.167-1.761a.617.617 0 10-.1-1.23.617.617 0 00.1 1.23m-15.414-.74a.617.617 0 10.1 1.23.617.617 0 00-.1-1.23"/><path d="M40.557 6.921l2.313-3.575c.843 2.297 3.508 9.674 4.477 13.777 1.825 7.73 3.281 18.43-.148 25.508a.374.374 0 00-.026.254 9.12 9.12 0 01-5.267 10.587.376.376 0 00-.113.613l3.312 3.223a1.826 1.826 0 01-1.273 3.13c-.477 0-.929-.183-1.27-.516a.367.367 0 00-.039-.032c-.104-.078-10.465-7.792-11.753-9.687a.374.374 0 00-.681.157c-.977 6.723-3.268 10.948-7.003 12.918-1.56.822-3.39 1.24-5.44 1.24-4.029 0-8.952-1.537-15.051-4.697a1.825 1.825 0 01.84-3.443c.288 0 .574.069.837.205 7.929 4.108 13.685 5.274 17.113 3.469 2.73-1.44 4.431-5.043 5.202-11.018a.375.375 0 00-.239-.399l-.321-.125a.377.377 0 00-.27 0c-1.274.487-15.19 3.97-15.33 4.005a.41.41 0 00-.05.016 1.817 1.817 0 01-2.375-1.006 1.812 1.812 0 01.013-1.396c.19-.448.543-.796.994-.979l6.446-2.607a.375.375 0 00.143-.593 9.047 9.047 0 01-2.185-6.78c.384-4.27 3.748-7.736 8-8.241a.376.376 0 00.321-.292c.149-.676.3-1.345.446-2l.301-1.344a9.139 9.139 0 002.188-1.382.375.375 0 00-.488-.57 8.566 8.566 0 01-5.574 2.035h-.02c-3.413-.008-7.008-3.091-7.396-6.345-.058-.483.076-.96.376-1.343a1.825 1.825 0 013.244.91c.154 1.287 2.327 2.86 4.387 3.178 1.64.25 3.808-1.095 4.368-2.333v-.002l.02-.035c.004-.036.01-.073.013-.108.088-.846.096-1.546-.005-2.057-.176-.894-.265-1.635-.27-2.266-.015-1.67-.01-3.368-.004-5.012l.006-2.508.004-3.76 4.089 2.418c.067.04.145.058.222.05l12.633-1.072a.374.374 0 00.283-.17M19.312 23.035c-1.942-.299-3.662-1.742-3.756-2.525a2.582 2.582 0 00-2.86-2.25 2.56 2.56 0 00-1.718.964 2.557 2.557 0 00-.532 1.897c.429 3.592 4.385 6.996 8.139 7.005h.022a9.45 9.45 0 003.032-.504 615.142 615.142 0 00-.58 2.598c-4.476.656-7.986 4.351-8.393 8.884a9.782 9.782 0 002.035 6.934l-5.973 2.417a2.558 2.558 0 00-1.404 1.381 2.557 2.557 0 00-.016 1.97 2.564 2.564 0 002.387 1.609c.322 0 .637-.06.939-.179.818-.204 12.99-3.253 15.162-3.948-.755 5.505-2.314 8.81-4.76 10.1-3.198 1.685-8.722.517-16.419-3.471a2.56 2.56 0 00-1.962-.168 2.557 2.557 0 00-1.507 1.27 2.577 2.577 0 001.101 3.468c6.21 3.217 11.245 4.78 15.397 4.78 2.173 0 4.12-.446 5.79-1.326 3.807-2.007 6.19-6.154 7.269-12.663 2.491 2.593 10.76 8.76 11.352 9.2a2.56 2.56 0 001.775.71c.701 0 1.357-.276 1.845-.778a2.576 2.576 0 00-.05-3.64l-2.92-2.842a9.868 9.868 0 005.226-11.092c3.45-7.275 1.987-18.08.144-25.885a55.41 55.41 0 00-.854-3.115l5.243.46h.016a.178.178 0 00.015-.355l-5.385-.473c-.115-.377-.234-.76-.356-1.146l4.111-.677a.178.178 0 00-.058-.352l-4.162.686c-.121-.382-.246-.765-.371-1.148l3.859-2.268a.178.178 0 10-.18-.307l-3.793 2.229a253.09 253.09 0 00-2.849-8.103.374.374 0 00-.665-.072l-2.62 4.05-12.33 1.046-4.551-2.692a.373.373 0 00-.565.323l-.006 4.417c0 .534-.003 1.069-.004 1.603L19.148 9.84a.178.178 0 10-.12.335l3.543 1.261-.001.526v.263l-4.115.357a.178.178 0 00.016.356l.015-.001 4.082-.354-.002.896-3.52.86a.178.178 0 10.085.345l3.434-.838c-.002 1.043 0 2.095.008 3.137.006.687.097 1.45.285 2.404.085.43.074 1.048-.002 1.798-.481.966-2.286 2.045-3.544 1.85"/><path fill="#fadceb" d="M38.433 31.664a2.553 2.553 0 01-3.763 3.447c-.013-.01-.027-.015-.038-.027-.012-.013-.017-.03-.026-.044a2.55 2.55 0 01.05-3.395.247.247 0 01.036-.323.246.246 0 01.325-.002 2.553 2.553 0 013.416.344m-5.46 1.52c-.05.95.273 1.865.91 2.573a3.545 3.545 0 002.464 1.176 3.542 3.542 0 002.574-.91 3.571 3.571 0 00.266-5.037 3.543 3.543 0 00-2.656-1.182 3.54 3.54 0 00-2.382.916 3.545 3.545 0 00-1.176 2.463"/><path fill="#fff" d="M34.65 34.73l1.533-1.378-1.51-1.677c-.008-.01-.011-.02-.017-.03a2.55 2.55 0 00-.05 3.395.246.246 0 01.045-.31"/><path fill="#fff" d="M35.017 31.32c.009.007.02.012.028.02l1.676 1.864a.25.25 0 01-.019.353l-1.717 1.545a.248.248 0 01-.167.065.25.25 0 01-.148-.056 2.552 2.552 0 10.347-3.791"/><path d="M34.985 35.102l1.718-1.545a.25.25 0 00.018-.353l-1.676-1.864c-.008-.008-.02-.013-.028-.02a.247.247 0 00-.325.002.247.247 0 00-.037.323c.007.01.01.021.018.03l1.51 1.678-1.532 1.378a.246.246 0 00-.045.309c.008.015.014.03.026.044.01.012.025.018.037.027a.25.25 0 00.149.056c.06 0 .12-.022.167-.065"/><path fill="#fadceb" d="M8.784 35.972c-.181.1-.403.208-.663.314-.003.31-.112.921-.803 1.53l.014-.008a3.54 3.54 0 001.452-1.836m-1.836-2.68c-.37-.205-.835-.536-1.375-1.067-.23.283-.426.638-.496 1.064.676.091 1.318.07 1.871.003m-2.365-.089c.156-.954.806-1.591 1.282-1.94a3.668 3.668 0 00-.397-.03c-.227.126-1.264.753-1.491 1.8.203.068.406.126.606.17m-.818 3.325c.056.469.2 1.216.486 1.64.128.044.258.083.392.113l.093.016a4.588 4.588 0 01-.526-1.633c-.002-.01.002-.019.001-.028a7.113 7.113 0 01-.446-.108m1.309 1.334c.1.207.196.361.264.457 1.784-.602 2.183-1.418 2.264-1.846a6.65 6.65 0 01-.805.201c-.086.325-.426.923-1.723 1.188m-.347-1.137c.04.25.097.473.161.668.003 0 .006-.003.009-.004.811-.15 1.162-.427 1.314-.636a6.609 6.609 0 01-.608.03c-.28 0-.573-.017-.876-.058m4.184-2.565l.015-.009a3.477 3.477 0 00-.11-.425c-.48.28-1.735.909-3.313.909-1.042 0-2.224-.279-3.414-1.11a3.563 3.563 0 00-.144.465c4.22 2.774 6.855.28 6.966.17m-6.169-1.72c.251.162.506.302.763.414.159-.641.55-1.138.928-1.485a3.578 3.578 0 00-1.691 1.072m.796 5.386a6.602 6.602 0 01-.294-1.466 8.49 8.49 0 01-1.255-.576 3.547 3.547 0 001.548 2.042"/><path fill="#fadceb" d="M1.874 35.192a.24.24 0 01.132.031c1.772 1.055 3.332 1.19 4.53 1.008.012-.002.023-.008.035-.009l.009.002c.43-.069.811-.177 1.138-.298a.247.247 0 01.092-.04h.014a5.25 5.25 0 001.124-.597c.026-.182.036-.363.033-.543a5.447 5.447 0 01-3.22 1.034c-1.093 0-2.41-.32-3.896-1.252-.018.223-.015.445.01.664m4.675-3.775c-.1.054-.355.203-.63.448 1.085 1.07 1.807 1.236 1.962 1.26a7.65 7.65 0 00.588-.166c-.015-.025-.027-.05-.043-.076a3.54 3.54 0 00-1.877-1.466m-4.251 1.649c.002.001.005.001.007.003 2.19 1.574 4.353 1.077 5.53.587a8.425 8.425 0 01-1.833.207c-1.098 0-2.37-.241-3.566-1.021a3.636 3.636 0 00-.138.224"/><path d="M3.244 36.361c.019.216.089.87.294 1.466a3.544 3.544 0 01-1.549-2.042c.43.239.85.431 1.255.576m2.517-.58a5.445 5.445 0 003.22-1.035c.003.18-.007.361-.033.543-.156.112-.545.37-1.124.597H7.81a.249.249 0 00-.092.04c-.327.121-.709.23-1.138.298-.004 0-.006-.002-.008-.001-.013 0-.024.006-.037.008-1.197.182-2.757.046-4.53-1.008a.243.243 0 00-.13-.03 3.535 3.535 0 01-.01-.664c1.487.932 2.803 1.252 3.896 1.252m-1.328-4.412c-.378.347-.769.844-.928 1.485a5.495 5.495 0 01-.764-.413 3.587 3.587 0 011.692-1.072m3.45 1.756c-.156-.024-.878-.19-1.963-1.26a3.52 3.52 0 01.63-.448 3.54 3.54 0 011.877 1.467c.016.024.028.05.043.075a7.34 7.34 0 01-.588.166m-1.879.738c.704 0 1.337-.096 1.834-.207-1.178.49-3.342.987-5.53-.587l-.008-.003c.042-.077.09-.151.138-.224 1.196.78 2.468 1.021 3.566 1.021m-.43-1.638c.54.531 1.005.862 1.375 1.066a7.31 7.31 0 01-1.871-.002c.07-.426.266-.781.496-1.064m-.105-.992c.132.003.264.012.397.03-.476.349-1.126.986-1.282 1.94a5.954 5.954 0 01-.606-.17c.227-1.046 1.264-1.674 1.49-1.8M2.09 33.525c1.19.831 2.37 1.11 3.413 1.11 1.578 0 2.833-.63 3.314-.909.044.14.082.281.109.425-.005.004-.01.005-.015.01-.111.109-2.747 2.603-6.966-.17.037-.16.087-.315.145-.466m5.228 4.291c.691-.61.8-1.22.803-1.53.26-.106.482-.215.663-.314a3.54 3.54 0 01-1.452 1.836l-.014.008m-2.582.48c-.031-.006-.062-.009-.092-.016a3.573 3.573 0 01-.393-.112c-.285-.424-.43-1.171-.486-1.64.15.041.3.077.446.108 0 .01-.003.018-.002.028.101.742.33 1.28.527 1.632m.16-.907l-.008.004a4.468 4.468 0 01-.161-.668c.303.04.596.059.877.059.21 0 .41-.013.607-.031-.152.21-.503.486-1.314.636m2.705-.917c-.081.43-.48 1.245-2.264 1.847a3.137 3.137 0 01-.264-.457c1.297-.265 1.637-.863 1.723-1.188a6.39 6.39 0 00.805-.202m-6.499 5.691c.54.444.895.736.554 1.688a.25.25 0 10.471.169c.46-1.283-.16-1.793-.707-2.243-.474-.39-.921-.758-.92-1.648 0-.356.123-.638.376-.863.936-.829 3.222-.564 3.244-.56.04.004.08-.004.118-.018a3.686 3.686 0 00.988.168c.008 0 .015.004.023.004l.016-.002c.052.002.106.01.16.01A4.04 4.04 0 007.6 38.23a4.04 4.04 0 001.786-2.55c.017-.072.025-.144.038-.217l.002-.01a4.022 4.022 0 00-.362-2.45V33l-.003-.004A4.04 4.04 0 006.3 30.828a4.056 4.056 0 00-4.126 1.521l-.008.007-.002.006a4.055 4.055 0 00-.717 1.555c-.009.04-.013.08-.02.119a4.034 4.034 0 00.56 2.946c.303.477.695.875 1.149 1.183-.824.013-1.936.148-2.59.726A1.586 1.586 0 000 40.128c0 1.127.611 1.63 1.103 2.035"/><path fill="#fadceb" d="M13.01 2.99a.252.252 0 01.14.187l.167 1.06.74-.778a.248.248 0 01.22-.074l1.062.168-.512-.945a.249.249 0 01-.003-.232l.487-.957-1.055.195a.251.251 0 01-.223-.07l-.759-.759-.14 1.065a.25.25 0 01-.135.19l-.957.487z"/><path d="M13.133 1.85l.141-1.065.76.76a.251.251 0 00.222.069l1.056-.195-.488.957a.248.248 0 00.003.232l.512.945-1.061-.168a.249.249 0 00-.22.074l-.74.779-.168-1.061a.25.25 0 00-.14-.187l-.969-.463L13 2.04a.25.25 0 00.134-.19m-1.764.91l1.307.625.227 1.43a.25.25 0 00.428.134l.998-1.05 1.431.227a.25.25 0 00.26-.366l-.69-1.274.657-1.291a.25.25 0 00-.268-.36l-1.425.263L13.27.073a.25.25 0 00-.425.144l-.19 1.437-1.292.658a.25.25 0 00.006.448"/><path fill="#fadceb" d="M6.853 10.963c.07 0 .137.029.185.082l1.647 1.819.442-2.414a.25.25 0 01.143-.184l2.24-1.004-2.16-1.166a.249.249 0 01-.13-.193l-.263-2.44L7.18 7.156a.252.252 0 01-.224.064l-2.402-.503 1.061 2.212a.25.25 0 01-.008.233l-1.22 2.129 2.431-.326a.266.266 0 01.034-.002"/><path d="M5.608 9.162a.25.25 0 00.008-.233l-1.06-2.212 2.4.503a.251.251 0 00.225-.064l1.776-1.693.263 2.44a.25.25 0 00.13.193l2.16 1.166-2.24 1.004a.25.25 0 00-.143.183l-.442 2.414-1.647-1.818a.251.251 0 00-.218-.08l-2.433.325zm-1.656 2.691l2.803-.376 1.9 2.097a.25.25 0 00.43-.122l.51-2.783 2.58-1.158a.25.25 0 00.017-.448l-2.49-1.344L9.4 4.906a.25.25 0 10-.42-.154L6.93 6.704l-2.768-.58a.25.25 0 00-.277.353l1.224 2.55-1.407 2.454a.25.25 0 00.25.372"/></svg>