<svg xmlns="http://www.w3.org/2000/svg" height="83.199" width="60.995" viewBox="0 0 60.995 83.199"><path fill="#fadceb" d="M11.04 46.729a3.26 3.26 0 01-.696-.69c-.73.473-1.525 1.101-1.959 1.8.459.299.957.58 1.492.866l.029.014c.272-.726.711-1.422 1.134-1.99M7.984 24.507c-.386-.37-.777-.717-1.155-1.048l-.077-.068-.13-.114c-.775.628-1.62 1.92-2.289 3.177.149.13.295.26.44.39.972-.967 2.096-1.877 3.211-2.337m1.57 19.551a11.391 11.391 0 01-.155-1.236c-1.463.16-2.69.865-3.642 1.663.153.549.365 1.022.629 1.44.86-.826 2.214-1.477 3.168-1.867m-.179-1.738a9.73 9.73 0 01.067-1.397c-.937-.016-2.518.7-3.96 1.535.004.153.005.305.015.46.026.37.073.71.135 1.03.994-.79 2.253-1.472 3.743-1.629m.88-14.741c-.466-1.065-1.146-1.933-1.883-2.689-1.094.389-2.235 1.307-3.227 2.295.288.269.557.54.796.817 1.112-.615 2.853-.596 4.314-.423m-5.242-5.996a3.714 3.714 0 01-.262-.438 2.322 2.322 0 01-.167-.456c-.753-.318-1.556-.57-2.306-.65-.668-.073-1.22-.001-1.654.21a6.07 6.07 0 00.629 2.613c.04.08.084.154.126.232.914-.726 2.332-1.204 3.634-1.51m4.786 17.354c.05-.217.1-.434.154-.654-1.06-.414-2.602-.897-3.821-.78a37.5 37.5 0 00-.271 1.207c1.23-.264 2.69-.071 3.938.227M9.51 40.43c.05-.33.11-.662.18-.999-1.273-.305-2.762-.5-3.933-.183a16.052 16.052 0 00-.282 2.634c1.306-.74 2.925-1.496 4.035-1.452m-1.533 7.13c.491-.776 1.334-1.447 2.1-1.945a4.778 4.778 0 01-.412-1.065c-1.023.426-2.265 1.06-2.992 1.781.365.47.804.867 1.304 1.228m2.781-12.841c.104-.587.186-1.183.238-1.785-.945-.132-2.485.034-3.952.294a21.046 21.046 0 01-.301 1.72c1.413-.325 2.86-.485 4.015-.229M1.902 16.83c1.47.577 3.06 1.282 4.095 1.974a12.83 12.83 0 011.227-.399c-.684-1.402-2.31-2.306-3.58-2.824-.713.354-1.288.767-1.742 1.249m2.618 3.294c.009-.225.06-.423.161-.559.126-.167.392-.348.763-.525-1.023-.63-2.515-1.274-3.885-1.805-.524.7-.826 1.553-.91 2.457 1.167-.422 2.694-.03 3.872.432"/><path fill="#fadceb" d="M7.716 18.279a19.3 19.3 0 01.933-.201c-.313-1.205-.788-2.673-1.38-3.682-1.139.25-2.164.559-2.998.902 1.293.583 2.79 1.537 3.445 2.98m-3.768 7.835c.58-1.083 1.414-2.428 2.303-3.17a10.344 10.344 0 01-.907-.922c-1.395.316-2.865.804-3.713 1.508.638 1.017 1.476 1.837 2.317 2.584M16.926 14c.224 1.288.142 2.798.007 3.966.176.038.346.08.51.125a4.137 4.137 0 011.61-3.581 14.22 14.22 0 00-2.127-.51M7 30.142c1.357-.31 2.713-.292 3.938-.12a9.69 9.69 0 00-.471-1.913c-1.484-.194-3.185-.23-4.21.29.188.26.347.527.462.806.124.3.214.614.282.937m3.072 7.648l.07-.286.07-.275c.161-.654.319-1.33.454-2.021-1.13-.26-2.608-.069-4.047.286-.062.269-.126.535-.19.798l-.068.27-.108.439c1.279-.071 2.768.382 3.819.79m5.209-20.071c.401.038.789.088 1.158.152.14-1.26.196-2.76-.039-3.952a21.688 21.688 0 00-2.22-.177 7.468 7.468 0 011.1 3.977m-6.134.269c.335-.057.678-.107 1.025-.15.15-1.193.088-2.692-.793-3.824-.548.077-1.08.17-1.595.272.63 1.116 1.082 2.598 1.363 3.702m2.883-4.226a12.027 12.027 0 011.385 3.873c.464.001.922.016 1.366.045a6.996 6.996 0 00-1.193-3.95c-.062 0-.123-.003-.184-.003-.458 0-.917.013-1.374.035m-1 18.677c.035-.627.028-1.257-.03-1.886-1.22-.185-2.574-.218-3.915.088.086.661.082 1.356.017 2.064 1.3-.228 2.85-.414 3.929-.266m-.353-14.66a26.14 26.14 0 012.234-.14 11.58 11.58 0 00-1.434-3.843c-.517.036-1.03.084-1.535.146.79 1.182.868 2.644.735 3.837m34.925 4.522l-.004-.032c-.014-.214.06-.564.182-.991-1.266-.25-2.909.143-4.055.515a4.832 4.832 0 00-.016.73c.007.1.02.195.03.292 1.127-.454 2.5-.773 3.863-.514m4.378 7.161a57.109 57.109 0 00-.897-1.09c-1.271.26-2.598 1.069-3.584 1.791l.47.562.12.142.207.247c.955-.663 2.347-1.468 3.684-1.652m2.773 4.959a6.692 6.692 0 00-.222-.73c-1.632-.339-3.39-.552-4.483-.276.281.44.519.882.714 1.34 1.113-.27 2.747-.56 3.99-.334m-6.365-14.967c.087-.243.176-.497.265-.76-1.1-.76-2.538-1.5-3.698-1.237a51.253 51.253 0 01-.407 1.17c1.278-.063 2.811.424 3.84.827m6.526 16.492a6.01 6.01 0 00-.06-.998c-1.075-.26-2.682-.014-3.911.279.048.137.099.275.14.41 1.082-.11 2.678-.158 3.831.31M43.131 16.92c1.226-.137 2.605.55 3.686 1.277.2-.628.382-1.29.498-1.956l-1.762-.305a4.116 4.116 0 01-.594.16 4.068 4.068 0 01-1.582-.022c-.067.259-.15.54-.246.845m2.965 7.237a5.933 5.933 0 01-.422-1.327c-1.345-.305-2.739.039-3.866.51.074.455.183.896.32 1.323 1.093-.488 2.678-.557 3.968-.506m.923 1.609a11.355 11.355 0 01-.673-1.097c-1.385-.072-3.037-.01-4.055.464.233.62.522 1.211.848 1.775 1.049-.7 2.65-1.007 3.88-1.142m4.433 5.745a19.133 19.133 0 00-1.103-1.577c-1.29.067-2.739.89-3.729 1.572.138.168.272.333.401.496 1.133-.588 2.934-.611 4.431-.491m-2.73-3.568a34.83 34.83 0 01-1.367-1.706c-1.222.113-2.945.394-3.963 1.093.548.88 1.17 1.693 1.786 2.445.961-.707 2.25-1.502 3.544-1.832m2.764 12.226c.219-.35.412-.696.58-1.036-.853-.898-1.85-1.776-2.72-2.14.033.382.034.751-.008 1.097.691.47 1.476 1.291 2.148 2.079m-.542.813c.09-.124.171-.247.255-.37-.682-.802-1.39-1.542-1.96-1.987-.078.3-.195.571-.338.822.656.305 1.432.79 2.043 1.535m1.356-7.856c-.162-.374-.34-.737-.536-1.087-1.553-.149-3.37-.151-4.434.359.15.197.293.393.43.589 1.164-.361 2.939-.176 4.54.14m-.006 5.511a7.51 7.51 0 00.586-2.163c-1.014-.488-2.585-.45-3.672-.343.022.101.041.201.06.301 1.02.325 2.124 1.27 3.026 2.205m-6.366-17.841c.088-.272.188-.565.294-.867-1.05-.413-2.652-.925-3.85-.794-.247.728-.46 1.432-.576 2.107 1.194-.369 2.82-.719 4.132-.446"/><path fill="#fff" d="M44.868 15.604a3.87 3.87 0 00.346-.08l-1.111-3.066-2.476 2.12a3.63 3.63 0 003.241 1.026m-4.091-4.731l3.076.807-.879-3.055a3.637 3.637 0 00-2.197 2.248m6.851-.072l-2.68 1.182 2.817.805a3.608 3.608 0 00-.137-1.987"/><path fill="#fadceb" d="M46.896 4.205l-3.354 4.01 3.93 1.84zm.264 6.256l-3.625-1.697.841 2.925zm-6.212 3.814l-.631-2.752-2.678 2.447zm-.148-2.879l.62 2.702 2.27-1.944zm8.877 4.746L47.912 13.5l-1.878 2.012zm-4.045-.932l1.851-1.983-2.866-.819z"/><path fill="#fff" d="M20.909 14.214a3.635 3.635 0 00-2.918 4.225 3.586 3.586 0 001.408 2.258l1.942-3.03 1.434-3.303a3.606 3.606 0 00-1.866-.15"/><path fill="#fadceb" d="M23.153 14.75l-1.276 2.939 2.565 1.624 2.947 1.865zm-1.514 3.38l-1.741 2.715 7.294.8z"/><path fill="#fff" d="M36.918 35.035a.618.618 0 11-.121-1.229.618.618 0 01.121 1.23m-8.986 1.204c.099 0 .178.08.178.178 0 .005.002.442.265.683.138.126.332.179.577.156.316-.029.544-.126.677-.287.147-.178.131-.378.131-.38a.178.178 0 01.136-.19.181.181 0 01.208.108c.01.029.28.7.908.538.618-.16.477-.83.47-.858a.178.178 0 01.348-.078c.08.358.029 1.085-.728 1.281-.499.13-.862-.094-1.09-.36a.927.927 0 01-.108.166c-.196.237-.505.377-.919.415a1.64 1.64 0 01-.142.006c-.286 0-.525-.086-.71-.256-.38-.35-.38-.922-.38-.946a.178.178 0 01.179-.176m-4.216 1.844a2.428 2.428 0 01-2.015 1.055 2.42 2.42 0 01-1.383-.434 2.427 2.427 0 01-1.015-1.57 2.428 2.428 0 01.393-1.828 2.42 2.42 0 011.57-1.014 2.424 2.424 0 011.828.392 2.43 2.43 0 011.015 1.57 2.427 2.427 0 01-.393 1.829m36.499 28.343a1.826 1.826 0 00-2.122-1.465l-7.46 1.365a.374.374 0 01-.338-.628c.097-.102 2.375-2.564 1.418-6.419-.548-2.208-2.382-2.782-3.069-2.921a3.062 3.062 0 00-.64-.309c-.81-2.459-1.826-5.378-3.195-9.171a.375.375 0 01.18-.46c1.559-.807 3.354-1.824 4.849-3.254.337-.322.66-.675.964-1.05-.717-1.37-2.168-2.01-2.868-2.249a7.874 7.874 0 01-.617.664c-1.078 1.031-2.434 1.814-3.495 2.381a.376.376 0 01-.528-.202l-.358-.98c-1.66-4.54-2.857-7.82-3.02-8.705l-.681-3.698-3.586 3.115a.372.372 0 01-.21.09l-12.62 1.22a.37.37 0 01-.308-.116l-2.92-3.1c-.415 2.41-1.709 10.147-1.923 14.357-.043.853-.092 1.801-.136 2.815a.373.373 0 01-.427.354c-2.257-.315-3.886-.75-5.089-1.362-.594.72-1.574 2.079-1.627 3.25 2.278 1.158 4.885 1.577 6.669 1.793.19.023.333.187.33.38-.143 7.674.43 13.127 1.753 16.67a.375.375 0 01-.323.504c-5.965.462-11.164-1.189-13.242-4.205-1.615-2.345-1.03-5.065 1.693-7.866.34-.35.522-.81.515-1.297a1.826 1.826 0 00-3.132-1.245c-1.863 1.919-3.058 4.042-3.455 6.139-.422 2.227.054 4.418 1.376 6.338 2.665 3.87 9.642 7.066 19.216 5.476a.374.374 0 01.248.045c.822.472 1.713.64 2.84.854.694.131 1.48.28 2.393.526l17.634 3.714a.368.368 0 01.08.026 1.827 1.827 0 002.419-.895 1.826 1.826 0 00-.895-2.418l-7.405-3.406a.377.377 0 01-.169-.526c.022-.04 2.246-4.037 1.051-7.21-.563-1.498-1.815-2.596-3.72-3.263a.375.375 0 01.249-.707c2.124.743 3.529 1.991 4.174 3.709 1.11 2.952-.363 6.372-.913 7.48l4.175 1.92a41.913 41.913 0 002.506-.857.38.38 0 01.093-.023l12.177-3.05a1.832 1.832 0 001.489-2.128"/><path d="M51.198 40.611c-.082.123-.165.246-.254.37-.612-.745-1.386-1.23-2.043-1.535.143-.25.26-.523.337-.822.571.445 1.28 1.185 1.96 1.987m1.682-4.137a7.497 7.497 0 01-.586 2.163c-.901-.935-2.006-1.88-3.027-2.205-.018-.1-.037-.2-.06-.3 1.088-.107 2.66-.146 3.673.342m-.027-1.525c.048.33.068.663.061.998-1.153-.467-2.75-.42-3.832-.309a7.097 7.097 0 00-.14-.41c1.23-.293 2.837-.54 3.911-.28m-.321-1.256c.087.243.164.486.222.73-1.244-.227-2.878.063-3.991.334a9.063 9.063 0 00-.714-1.34c1.092-.276 2.851-.063 4.483.276m-.768-1.654c.196.35.374.713.537 1.087-1.602-.315-3.377-.5-4.541-.139a17.114 17.114 0 00-.43-.59c1.065-.51 2.88-.507 4.434-.358m-1.415-2.105c.397.516.769 1.037 1.103 1.577-1.497-.12-3.298-.097-4.43.491a32.32 32.32 0 00-.402-.495c.99-.684 2.439-1.506 3.729-1.573m-2.994-3.697a35.33 35.33 0 001.367 1.706c-1.293.33-2.583 1.125-3.544 1.832-.616-.752-1.238-1.565-1.786-2.445 1.018-.699 2.742-.98 3.963-1.093m-1.009-1.568c.197.37.424.736.672 1.097-1.229.135-2.83.442-3.88 1.142a11.97 11.97 0 01-.848-1.775c1.02-.474 2.671-.535 4.056-.464m-.672-1.839c.084.45.228.892.422 1.327-1.29-.05-2.875.017-3.968.506a9.125 9.125 0 01-.32-1.322c1.127-.472 2.521-.816 3.866-.51m.548-2.9a36.08 36.08 0 00-.294.866c-1.311-.273-2.938.077-4.131.446.115-.675.327-1.38.576-2.107 1.197-.131 2.798.381 3.849.794m-2.009-3.765c.246 0 .495-.022.746-.067a4.12 4.12 0 00.594-.161l1.762.305a15.06 15.06 0 01-.498 1.956c-1.08-.727-2.46-1.414-3.685-1.278.096-.306.178-.586.245-.845.272.057.551.09.836.09m-2.585-1.586l2.475-2.12 1.11 3.065a3.63 3.63 0 01-3.586-.945m-1.31-3.055l.63 2.752-3.309-.306zm2.658-2.898l.878 3.055-3.076-.807a3.637 3.637 0 012.198-2.248m4.497 1.43l-3.93-1.84 3.354-4.01zm-1.438 5.457l1.878-2.012 1.765 2.642zm-4.614-1.414l-.62-2.702 2.89.758zm6.063-.871l-1.85 1.983-1.016-2.802zm.303-1.847c.088.48.075.957-.021 1.408l-2.816-.805 2.68-1.182c.066.186.12.378.157.579m-4.251-2.616l3.625 1.697-2.784 1.228zm-.58 8.694c1.16-.263 2.598.478 3.698 1.237-.089.263-.178.517-.265.76-1.029-.403-2.562-.89-3.84-.827l.122-.347c.103-.289.196-.56.285-.823m-1.245 5.066a4.927 4.927 0 01.016-.73c1.146-.372 2.79-.766 4.055-.515-.122.426-.196.777-.182.99 0 .011.003.022.004.033-1.364-.26-2.735.06-3.863.515-.01-.098-.023-.194-.03-.293m4.26 8.202l-.47-.562c.986-.722 2.313-1.532 3.584-1.791.31.367.608.729.897 1.09-1.337.183-2.73.989-3.684 1.652-.07-.082-.136-.163-.206-.247zm3.375 6.265c.872.365 1.868 1.243 2.721 2.141-.168.34-.361.685-.58 1.036-.672-.788-1.457-1.61-2.148-2.079.042-.346.042-.715.007-1.098M9.665 44.55c.1.377.232.735.412 1.065-.766.498-1.609 1.169-2.1 1.944a6.304 6.304 0 01-1.304-1.228c.727-.721 1.968-1.355 2.992-1.781m.026-5.119c-.07.337-.13.67-.181.999-1.11-.044-2.73.712-4.034 1.452.015-.9.123-1.776.281-2.633 1.171-.318 2.66-.123 3.934.182m.261-1.148c-.053.22-.104.438-.153.654-1.249-.298-2.708-.49-3.938-.227.084-.406.175-.808.271-1.207 1.219-.117 2.762.366 3.82.78m1.044-5.35a20.058 20.058 0 01-.238 1.785c-1.155-.256-2.602-.096-4.015.23.122-.57.227-1.147.3-1.72 1.468-.261 3.007-.427 3.953-.295m-.53-4.823c.227.63.38 1.268.472 1.912-1.225-.172-2.58-.19-3.937.12a5.339 5.339 0 00-.282-.937 3.946 3.946 0 00-.462-.805c1.025-.521 2.726-.485 4.21-.29m-5.123-6.09c.265.313.576.619.907.922-.89.742-1.723 2.087-2.303 3.17-.84-.747-1.679-1.567-2.317-2.584.848-.704 2.318-1.193 3.713-1.508m.1-2.981c-.371.177-.638.358-.762.525-.102.136-.153.334-.161.56-1.178-.464-2.705-.855-3.871-.433.083-.904.386-1.757.909-2.458 1.37.532 2.862 1.176 3.886 1.806m1.779-.635c-.44.121-.852.254-1.227.4-1.034-.693-2.624-1.398-4.095-1.975.454-.482 1.03-.895 1.742-1.25 1.27.519 2.896 1.423 3.58 2.825m1.426-.327c-.32.061-.633.128-.934.2-.655-1.442-2.151-2.397-3.444-2.98.833-.343 1.858-.651 2.997-.903.592 1.01 1.067 2.478 1.38 3.683m1.523-.24c-.347.044-.69.094-1.025.15-.28-1.103-.734-2.585-1.363-3.7a28.238 28.238 0 011.595-.273c.88 1.132.943 2.631.793 3.823m2.74-.197a26.08 26.08 0 00-2.234.139c.133-1.193.056-2.655-.735-3.838.504-.06 1.017-.11 1.535-.145a11.581 11.581 0 011.434 3.844m1.87.04a21.04 21.04 0 00-1.367-.045 12.015 12.015 0 00-1.385-3.873c.457-.023.916-.035 1.374-.035.061 0 .122.004.184.004a6.997 6.997 0 011.193 3.95m1.66.19a15.24 15.24 0 00-1.16-.152 7.462 7.462 0 00-1.1-3.977c.756.023 1.5.08 2.22.177.235 1.192.18 2.692.04 3.952m1.003.218a9.674 9.674 0 00-.511-.124c.135-1.168.217-2.678-.007-3.966a14.23 14.23 0 012.127.51 4.136 4.136 0 00-1.61 3.58m5.332-3.726l-1.434 3.304-1.942 3.029a3.587 3.587 0 01-1.408-2.258 3.634 3.634 0 014.784-4.075m1.667 4.948l-2.565-1.623 1.276-2.94 4.237 6.429zm-4.544 1.533l1.74-2.715 5.554 3.514zM1.253 22.86a6.065 6.065 0 01-.629-2.613c.433-.21.986-.283 1.654-.21.75.08 1.553.332 2.306.65.04.154.094.308.167.455.073.15.164.295.261.44-1.301.306-2.72.784-3.633 1.51-.042-.078-.087-.152-.126-.232m3.08 3.593c.67-1.257 1.514-2.55 2.29-3.177l.129.114.077.068c.378.33.77.679 1.155 1.048-1.115.46-2.24 1.37-3.212 2.336-.144-.13-.29-.258-.439-.389m.812.73c.992-.988 2.133-1.906 3.227-2.294.737.754 1.416 1.623 1.883 2.688-1.461-.173-3.202-.192-4.314.423a10.574 10.574 0 00-.796-.817m1.94 3.458c1.34-.306 2.696-.273 3.914-.088.059.628.065 1.26.032 1.886-1.079-.148-2.629.038-3.929.266a9.434 9.434 0 00-.017-2.064m-.656 5.65c.065-.262.13-.53.191-.798 1.44-.355 2.918-.545 4.047-.286-.135.69-.293 1.367-.455 2.02l-.068.276-.07.286c-1.052-.407-2.541-.86-3.82-.79l.108-.438zm-.932 6.626c-.01-.155-.01-.307-.015-.46 1.442-.834 3.023-1.551 3.96-1.535a9.68 9.68 0 00-.067 1.397c-1.49.156-2.75.837-3.743 1.629a8.468 8.468 0 01-.135-1.031m.26 1.567c.951-.797 2.179-1.503 3.642-1.663.032.418.08.834.155 1.236-.954.39-2.308 1.041-3.169 1.867a5.378 5.378 0 01-.628-1.44m4.12 4.22a20.14 20.14 0 01-1.492-.866c.434-.699 1.229-1.327 1.959-1.8.19.257.421.488.696.69-.423.568-.862 1.264-1.134 1.99l-.029-.014m36.672 22.9a.394.394 0 00-.093.023 41.97 41.97 0 01-2.506.858l-4.175-1.92c.55-1.108 2.023-4.53.913-7.482-.645-1.717-2.05-2.965-4.174-3.708a.374.374 0 10-.248.708c1.904.666 3.155 1.764 3.72 3.261 1.194 3.174-1.03 7.171-1.052 7.212a.376.376 0 00.17.525l7.404 3.406a1.826 1.826 0 01-.436 3.45c-.369.068-.745.02-1.088-.137a.37.37 0 00-.08-.026L27.271 74.06a31.16 31.16 0 00-2.393-.526c-1.128-.213-2.019-.382-2.841-.854a.375.375 0 00-.248-.045c-9.574 1.59-16.55-1.605-19.216-5.476-1.322-1.92-1.798-4.111-1.376-6.338.397-2.097 1.592-4.22 3.456-6.139a1.825 1.825 0 013.131 1.245 1.81 1.81 0 01-.515 1.297c-2.722 2.8-3.307 5.52-1.692 7.866 2.076 3.016 7.277 4.667 13.241 4.205a.374.374 0 00.323-.505c-1.323-3.542-1.896-8.994-1.754-16.67a.374.374 0 00-.33-.38c-1.783-.215-4.39-.634-6.668-1.792.053-1.171 1.033-2.529 1.628-3.25 1.202.611 2.832 1.047 5.088 1.362a.373.373 0 00.426-.355c.045-1.013.094-1.96.137-2.814.215-4.21 1.508-11.946 1.923-14.357l2.92 3.1a.371.371 0 00.309.116l12.62-1.22a.377.377 0 00.21-.09l3.585-3.115.682 3.698c.162.885 1.36 4.165 3.018 8.705l.359.98a.374.374 0 00.529.203c1.06-.568 2.415-1.35 3.494-2.382.219-.21.426-.432.617-.663.7.237 2.151.877 2.868 2.249-.303.374-.627.727-.964 1.049-1.495 1.43-3.29 2.447-4.849 3.253a.375.375 0 00-.18.46c1.369 3.794 2.385 6.713 3.195 9.173.239.085.454.187.64.308.687.14 2.52.713 3.07 2.921.957 3.856-1.322 6.317-1.42 6.42a.376.376 0 00.34.627l7.46-1.365a1.826 1.826 0 012.121 1.465 1.832 1.832 0 01-1.489 2.127zm14.404-5.313a2.578 2.578 0 00-2.995-2.068l-6.513 1.192c.72-1.119 1.734-3.347.996-6.317-.681-2.743-3.096-3.373-3.796-3.5-.777-2.352-1.744-5.126-3.02-8.666 1.536-.807 3.261-1.82 4.73-3.226.418-.399.816-.84 1.184-1.312a.376.376 0 00.046-.383 4.518 4.518 0 00-.262-.493c2.208-3.003 2.756-5.64 1.718-8.26-.8-2.017-2.054-3.595-3.491-5.303l-.12-.142c-1.514-1.799-3.08-3.659-3.207-5.585-.024-.367.47-1.76.709-2.437.334-.94.747-2.108.972-3.323l2.241.388a.376.376 0 00.376-.578l-2.172-3.25a4.223 4.223 0 00-.218-2.655l-.672-6.823a.375.375 0 00-.66-.204l-3.877 4.636a4.26 4.26 0 00-2.788 2.86L36.8 13.889a.375.375 0 00.218.65l4.074.377a4.285 4.285 0 001.653 1.11 31.201 31.201 0 01-.666 2.052c-.558 1.576-1.086 3.064-.992 4.488.237 3.61 2.548 6.356 4.406 8.563l.119.141c1.183 1.406 2.128 2.584 2.644 3.885.628 1.587.64 3.105.059 4.05a6.728 6.728 0 00-.409-.133.376.376 0 00-.401.13 6.97 6.97 0 01-.707.786c-.89.851-2.001 1.533-2.949 2.056l-.21-.573a959.18 959.18 0 01-1.536-4.226l2.882.168h.01a.178.178 0 00.01-.356l-3.032-.177c-.12-.332-.234-.653-.34-.954l3.67-.348a.178.178 0 00.161-.194.18.18 0 00-.194-.16l-3.759.355a96.83 96.83 0 01-.296-.857l3.058-1.763a.178.178 0 00-.178-.309l-2.997 1.728c-.24-.716-.397-1.236-.444-1.49l-.8-4.343a.375.375 0 00-.615-.215l-3.991 3.467-12.317 1.19-3.307-3.512a.372.372 0 00-.38-.102.373.373 0 00-.262.293c-.012.064-.747 4.194-1.343 8.483l-4.132-1.51a.176.176 0 00-.228.106.177.177 0 00.106.228l4.204 1.537-.159 1.196-4.217.075a.178.178 0 00.003.356h.003l4.166-.074c-.05.403-.098.8-.144 1.192L12.03 42.69a.178.178 0 10.094.343l5.075-1.396a55.894 55.894 0 00-.279 3.218c-.037.737-.079 1.545-.118 2.405-2.095-.32-3.633-.765-4.692-1.36a.376.376 0 00-.466.08c-.069.08-.143.167-.218.259-1.009-.726-1.303-1.985-1.416-3.632-.107-1.535.305-3.194.742-4.954l.068-.273c.755-3.049 1.447-6.579.082-9.895-.829-2.013-2.333-3.331-3.66-4.495l-.077-.068c-.781-.684-1.51-1.356-1.852-2.053-.222-.45-.182-.847-.13-.929.005-.006.118-.152.615-.377 2.796-1.26 8.47-1.775 11.62-.835a4.267 4.267 0 001.85 2.638c.007.004.014.005.02.01.006.002.01.007.016.01.004.001.007.001.01.003l.028.01a.338.338 0 00.065.017c.008.002.015.006.024.007l8.766.961a.391.391 0 00.04.003h.001a.35.35 0 00.13-.026c.013-.005.024-.012.035-.017a.368.368 0 00.082-.055c.007-.006.015-.008.021-.014.005-.006.007-.013.012-.019a.35.35 0 00.04-.057c.01-.016.019-.03.026-.047l.008-.016c.005-.014.004-.029.007-.043.005-.022.01-.042.011-.064.001-.021-.002-.042-.004-.063-.003-.02-.005-.04-.01-.06-.007-.021-.017-.04-.027-.06-.007-.014-.01-.028-.017-.04l-5.13-7.785-.03-.035-.023-.025a.379.379 0 00-.106-.074l-.005-.004a4.228 4.228 0 00-2.46-.282 4.21 4.21 0 00-1.227.426c-4.804-1.721-12.362-.746-15.89.844-1.15.52-2.008 1.17-2.618 1.985-1.267 1.693-1.412 4.159-.37 6.282.76 1.547 1.937 2.653 3.077 3.653l.079.07c.99.867 1.924 1.686 2.293 2.583.773 1.876.24 4.441-.319 6.699l-.066.27c-.514 2.065-1.044 4.202-.882 6.549.251 3.632 2.194 4.95 4.708 6.296.047.024.094.044.142.064a3.182 3.182 0 00-.083.878c.008.13.083.248.199.31 2.293 1.22 4.912 1.693 6.792 1.936-.116 7.268.42 12.559 1.638 16.137-5.497.318-10.204-1.197-12.076-3.916-1.752-2.544-.09-5.167 1.612-6.918.48-.493.738-1.143.728-1.83a2.559 2.559 0 00-.78-1.81 2.578 2.578 0 00-3.64.053C2.149 56.185.885 58.44.46 60.683 0 63.11.517 65.496 1.955 67.584c3.401 4.938 11.174 7.213 19.827 5.813.894.484 1.81.657 2.956.874.682.13 1.454.276 2.342.514l.02.005.005.001a15.35 15.35 0 001.52.32L44.71 78.5a2.553 2.553 0 001.497.176 2.578 2.578 0 001.877-1.456 2.577 2.577 0 00-1.262-3.414l-1.852-.851a39.383 39.383 0 001.716-.611l12.199-3.057a2.577 2.577 0 002.068-2.995"/><path fill="#fadceb" d="M21.814 37.791a1.1 1.1 0 01-1.204-.986c-.003-.03 0-.06 0-.09a.615.615 0 01.66-1.025 1.09 1.09 0 01.327-.09 1.101 1.101 0 11.217 2.191m1.803-1.445a1.945 1.945 0 00-2.26-1.561 1.945 1.945 0 00-1.562 2.26 1.945 1.945 0 002.26 1.562 1.945 1.945 0 001.562-2.261"/><path d="M19.795 37.045a1.945 1.945 0 011.912-2.293c.92 0 1.739.658 1.91 1.594a1.945 1.945 0 01-1.561 2.26 1.945 1.945 0 01-2.26-1.561m3.298-2.36a2.426 2.426 0 00-1.828-.393 2.428 2.428 0 00-1.57 1.015 2.428 2.428 0 00-.393 1.828c.117.642.478 1.2 1.015 1.57a2.425 2.425 0 001.828.393 2.427 2.427 0 001.57-1.015c.371-.536.51-1.186.393-1.827a2.426 2.426 0 00-1.015-1.57m5.749 2.932a1.5 1.5 0 00.142-.006c.414-.038.723-.178.919-.415a.937.937 0 00.108-.165c.228.265.591.488 1.09.359.757-.196.807-.923.728-1.28a.178.178 0 00-.348.076c.007.029.148.7-.47.86-.628.161-.898-.51-.909-.54a.18.18 0 00-.207-.108.177.177 0 00-.136.191c0 .002.016.202-.13.38-.134.161-.362.258-.677.287-.246.023-.44-.03-.578-.156-.263-.24-.265-.678-.265-.682a.178.178 0 10-.356-.002c0 .023 0 .596.378.944.186.171.424.257.71.257"/><path d="M21.597 35.6a1.09 1.09 0 00-.328.09.616.616 0 11-.66 1.025c.002.03-.002.06.001.09a1.1 1.1 0 001.204.986 1.101 1.101 0 00-.217-2.192m15.199-1.792a.618.618 0 10.123 1.229.618.618 0 00-.123-1.23"/><path fill="#fff" d="M21.626 36.187a.613.613 0 00-.357-.497.617.617 0 10.356.497"/><path fill="#fadceb" d="M35.486 18.869l-.76-.76-.14 1.065a.25.25 0 01-.135.19l-.957.487.97.463a.25.25 0 01.138.187l.168 1.06.74-.778a.251.251 0 01.22-.075l1.061.169-.512-.944a.251.251 0 01-.002-.233l.488-.957-1.057.195a.247.247 0 01-.222-.07"/><path d="M36.277 19.7a.25.25 0 00.003.232l.511.945-1.06-.169a.251.251 0 00-.22.075l-.741.779-.168-1.061a.252.252 0 00-.139-.187l-.969-.463.957-.487a.25.25 0 00.135-.19l.14-1.065.76.76a.247.247 0 00.222.069l1.057-.195zm1.14-1.444a.246.246 0 00-.245-.096l-1.425.262-1.025-1.024a.25.25 0 00-.424.144l-.19 1.436-1.292.657a.25.25 0 00.006.449l1.307.625.227 1.43a.25.25 0 00.428.134l.998-1.05 1.431.227a.25.25 0 10.26-.366l-.691-1.274.658-1.291a.25.25 0 00-.022-.263"/><path fill="#fadceb" d="M19.588 80.403a.25.25 0 01-.066-.223l.205-1.054-.962.478a.25.25 0 01-.232-.006l-.94-.521.158 1.062a.25.25 0 01-.077.22l-.786.732 1.06.179a.25.25 0 01.184.14l.453.974.497-.952a.25.25 0 01.192-.132l1.066-.13z"/><path d="M19.083 81.432l-.497.952-.453-.974a.25.25 0 00-.186-.14l-1.059-.18.786-.731a.25.25 0 00.077-.22l-.157-1.062.939.521a.25.25 0 00.232.006l.962-.478-.206 1.054a.25.25 0 00.067.223l.752.767-1.066.13a.25.25 0 00-.191.132m.954-1.286l.277-1.422a.25.25 0 00-.356-.272l-1.297.646-1.268-.704a.25.25 0 00-.368.255l.212 1.434-1.06.987a.25.25 0 00.129.43l1.429.24.611 1.314a.25.25 0 00.221.145h.006a.25.25 0 00.221-.134l.671-1.285 1.438-.176a.25.25 0 00.148-.423z"/><path fill="#fadceb" d="M55.684 49.38l-.713-1.142-.474 1.26a.248.248 0 01-.173.155l-1.308.325 1.053.84c.064.052.1.132.094.214l-.096 1.344 1.125-.742a.249.249 0 01.231-.023l1.25.506-.359-1.3a.249.249 0 01.05-.226l.867-1.032-1.346-.06a.252.252 0 01-.201-.118"/><path d="M56.364 50.59a.25.25 0 00-.05.228l.358 1.3-1.249-.507a.248.248 0 00-.23.023l-1.126.742.096-1.344a.251.251 0 00-.094-.213l-1.053-.84 1.308-.326a.25.25 0 00.173-.154l.474-1.262.713 1.144a.25.25 0 00.201.117l1.346.061zm-1.236-3.047a.25.25 0 10-.446.044l-.606 1.613-1.672.415a.25.25 0 00-.096.438l1.346 1.074-.121 1.719a.25.25 0 00.386.226l1.438-.948 1.597.647a.25.25 0 00.335-.298l-.458-1.661 1.109-1.318a.25.25 0 00-.18-.41l-1.721-.079z"/><path fill="#fadceb" d="M17.213 6.28c.07 0 .137.03.185.082l1.647 1.819.442-2.414a.25.25 0 01.144-.183l2.238-1.005-2.16-1.166a.248.248 0 01-.129-.193L19.317.78 17.54 2.474a.254.254 0 01-.224.063l-2.402-.503 1.061 2.213a.25.25 0 01-.008.232l-1.22 2.13 2.431-.327a.267.267 0 01.034-.002"/><path d="M15.968 4.48a.25.25 0 00.008-.233l-1.06-2.213 2.4.503a.252.252 0 00.225-.064L19.317.78l.263 2.44a.25.25 0 00.13.193l2.16 1.166-2.24 1.005a.25.25 0 00-.143.183l-.441 2.414-1.648-1.819a.25.25 0 00-.218-.08l-2.433.326zm3.047 4.412a.25.25 0 00.43-.123l.51-2.783 2.58-1.158a.25.25 0 00.017-.448l-2.49-1.344L19.76.223a.249.249 0 00-.162-.207.248.248 0 00-.259.053L17.29 2.021l-2.768-.58a.25.25 0 00-.277.353l1.224 2.55-1.407 2.454a.25.25 0 00.25.373l2.803-.376z"/><path fill="#fadceb" d="M12.195 58.519l-1.102-1.034-.15 1.503a.25.25 0 01-.128.194l-1.324.728 1.383.608c.076.033.13.1.145.182l.284 1.483 1.005-1.128a.246.246 0 01.218-.081l1.499.189-.762-1.304a.25.25 0 01-.01-.233l.642-1.367-1.476.322a.25.25 0 01-.224-.062"/><path d="M13.252 59.626a.25.25 0 00.01.232l.762 1.305-1.498-.19a.245.245 0 00-.218.083l-1.005 1.127-.284-1.483a.25.25 0 00-.145-.182l-1.382-.608 1.323-.728a.25.25 0 00.128-.194l.15-1.503 1.102 1.034a.25.25 0 00.224.062l1.476-.322zm1.28-1.874a.251.251 0 00-.248-.089l-1.843.401-1.374-1.29a.251.251 0 00-.42.157l-.188 1.876-1.653.91a.25.25 0 00.02.447l1.727.759.354 1.851a.25.25 0 00.432.12l1.255-1.408 1.87.236a.246.246 0 00.24-.11.25.25 0 00.008-.264l-.952-1.628.803-1.706a.25.25 0 00-.03-.262"/></svg>