<svg xmlns="http://www.w3.org/2000/svg" height="70.23" width="60.439" viewBox="0 0 60.439 70.23"><path fill="#fadceb" d="M12.58 24.774a35.224 35.224 0 01-2.22-.691C6.865 28.488 2.195 34.322 1.07 35.45c-.934.938-.208 2.423.56 3.996.592 1.21 1.204 2.462 1.157 3.63-.044 1.098.583 1.35 1.695 1.7 1.001.315 2.247.707 2.816 2.227.549 1.465 1.58 1.923 2.775 2.453.572.254 1.154.518 1.703.899-1.034-7.645-.407-18.524.803-25.581"/><path fill="#fff" d="M50.758 52.225c.025-.774-.596-1.453-1.415-1.545l-5.806-.655a.376.376 0 01-.297-.533 7.659 7.659 0 00.24-6.024 7.682 7.682 0 00-4.871-4.616.376.376 0 01-.247-.458c.733-2.625.724-5.615.33-8.583l-2.251-.951c-.592-.25-.632-1.293-.634-1.41a.25.25 0 01.08-.19c.086-.08.86-.78 1.453-.528l.894.378a46.004 46.004 0 00-.401-1.768l-4.887-1.044.176.93-.884-.445-.867.476.15-.978-.72-.679.977-.159.422-.894.453.88.669.085 3.67-1.188a61.403 61.403 0 00-.677-2.054.373.373 0 01.242-.482c2.638-.818 8.127-2.522 10.06-6.67.674-1.444.867-3.03.586-4.735l-2.522 3.139a.177.177 0 01-.25.027.178.178 0 01-.028-.25l2.713-3.376a12.384 12.384 0 00-.708-2.233 1.812 1.812 0 00-.992-.982 1.81 1.81 0 00-1.395.007c-.45.189-.798.54-.982.992-.185.45-.182.946.007 1.396.75 1.785.837 3.25.266 4.474-1.253 2.687-5.63 4.045-7.983 4.774l-.082.03a.366.366 0 01-.22.002l-6.654 3.668a2.415 2.415 0 01-2.183 3.354h-.041a2.416 2.416 0 01-2.412-2.352l-10.306-.808c-.011.01-.018.026-.031.035a.375.375 0 01-.326.054c-2.279-.689-5.437-1.857-6.55-4.047-.613-1.205-.576-2.67.113-4.481.173-.455.158-.95-.041-1.395a1.81 1.81 0 00-1.015-.958 1.826 1.826 0 00-2.353 1.056c-1.06 2.788-1.045 5.288.045 7.43 2.055 4.042 7.507 5.555 9.835 6.201a.375.375 0 01.269.427c-1.325 7.483-1.99 19.582-.612 27.267a.377.377 0 01-.38.441 1.927 1.927 0 00-.414.032c-7.613 1.51-9.969 4.423-10.604 6.602-.614 2.107.148 4.383 2.093 6.244 2.884 2.76 8.092 4.407 13.58 4.321a28.203 28.203 0 008.606-1.519 1.811 1.811 0 001.05-.92 1.826 1.826 0 00-2.223-2.532c-7.87 2.674-15.4.973-18.492-1.985-.545-.522-1.415-1.552-1.113-2.588.387-1.326 6.575-3.431 7.658-3.675l.378-.006.016-.005 23.753.926c.22.024.412.008.598-.044a1.494 1.494 0 001.088-1.276 1.501 1.501 0 00-1.322-1.658l-5.89-.665a.375.375 0 01-.297-.533 7.66 7.66 0 00.24-6.024c-1.284-3.394-4.816-5.458-8.397-4.9a.375.375 0 01-.115-.742c3.93-.607 7.805 1.653 9.213 5.377a8.391 8.391 0 01-.056 6.133l2.047.232 15.281.595a1.498 1.498 0 001.695-1.443"/><path fill="#fff" d="M37.095 22.667l-3.801 1.23-.091.092 4.532.968a53.81 53.81 0 00-.64-2.29M16.34 9.38a.798.798 0 01.885.694.178.178 0 01-.156.198.175.175 0 01-.198-.155.44.44 0 00-.872.106.177.177 0 01-.177.199.178.178 0 01-.176-.157.797.797 0 01.694-.885m5.905.808a.178.178 0 01.173.182c0 .005 0 .219.146.367.103.104.26.158.47.158h.002a.782.782 0 00.794-.58c.02-.085.096-.137.183-.139.086.005.157.07.167.156.003.014.08.428.915.319.284-.036.481-.133.587-.288.146-.212.083-.479.082-.481a.178.178 0 01.13-.216.176.176 0 01.215.127c.004.017.105.42-.13.767-.166.245-.448.395-.838.444-.454.057-.805-.007-1.044-.193a.701.701 0 01-.075-.067c-.17.256-.481.508-.986.508h-.003c-.31 0-.555-.092-.727-.27a.925.925 0 01-.244-.621c.003-.098.07-.182.183-.173m8.341-1.685a.617.617 0 11.15 1.225.617.617 0 01-.15-1.225m-6.678 11.594c.352-.875 1.2-1.5 2.2-1.517a2.38 2.38 0 011.52.506l6.18-6.46-1.914-9.42-3.297 4.016a.376.376 0 01-.264.136l-9.836.669a.373.373 0 01-.247-.071l-3.734-2.727-.8 11.97z"/><path d="M37.84 28.908l.51-1.207 3.094 1.307-.51 1.207zm-.46-.194l-.744-.314c-.189-.08-.297-.517-.323-.848.262-.217.65-.436.832-.36l.744.314zm-4.293-4.75l.207-.066 3.8-1.23c.225.739.44 1.504.642 2.29l-4.533-.969zm-9.418-3.416l-10.416-.817c-.352-.189-1.135-.726-1.152-1.292-.01-.326.24-.651.745-.967zm4.393.413a1.915 1.915 0 01-1.188 1.802l.25-1.324h.008a.617.617 0 10-.359-.065l-.241 1.279-.542-.915a.613.613 0 00-.527-1.028.617.617 0 10.148 1.225c.025-.002.049-.01.073-.016l.582.982c-.029.002-.056.006-.084.006h-.033a1.916 1.916 0 01-1.913-1.881 1.916 1.916 0 011.88-1.946h.034c.498 0 .97.19 1.329.537a1.9 1.9 0 01.583 1.344m6.999-5.164l-6.93 3.818a2.43 2.43 0 00-.142-.184l6.272-6.555c.837.253 1.33.625 1.464 1.107.216.771-.52 1.65-.664 1.814M14.515 5.23l3.735 2.726a.374.374 0 00.246.071l9.837-.67a.373.373 0 00.265-.135l3.296-4.017 1.914 9.42-6.18 6.461a2.378 2.378 0 00-1.52-.506c-1 .017-1.849.643-2.2 1.516L13.716 17.2zm-2.738 45.125c-.549-.381-1.13-.645-1.703-.899-1.195-.53-2.226-.989-2.775-2.453-.569-1.52-1.815-1.912-2.816-2.227-1.112-.35-1.739-.603-1.695-1.7.047-1.168-.565-2.42-1.156-3.63-.769-1.573-1.495-3.058-.561-3.996 1.124-1.128 5.794-6.961 9.289-11.368.84.296 1.608.52 2.22.692-1.21 7.056-1.837 17.936-.803 25.58m37.286 3.313l-15.28-.595-2.048-.231a8.393 8.393 0 00.056-6.134c-1.408-3.724-5.283-5.984-9.213-5.377a.375.375 0 00.115.74c3.58-.556 7.113 1.508 8.397 4.902a7.66 7.66 0 01-.24 6.024.375.375 0 00.297.533l5.89.665a1.501 1.501 0 01.234 2.935 1.537 1.537 0 01-.598.043l-23.753-.926-.016.005-.378.006c-1.083.244-7.271 2.349-7.658 3.675-.302 1.036.568 2.066 1.113 2.588 3.092 2.958 10.622 4.66 18.492 1.984a1.826 1.826 0 012.313 1.14c.157.461.125.956-.09 1.393a1.811 1.811 0 01-1.05.92 28.208 28.208 0 01-8.606 1.52c-5.488.085-10.696-1.563-13.58-4.322-1.945-1.861-2.708-4.137-2.093-6.244.636-2.179 2.99-5.092 10.603-6.602a1.794 1.794 0 01.414-.032.374.374 0 00.381-.441c-1.378-7.685-.713-19.784.612-27.267a.375.375 0 00-.27-.427c-2.328-.646-7.78-2.159-9.834-6.2-1.09-2.143-1.105-4.643-.045-7.43a1.826 1.826 0 012.353-1.057c.455.173.816.513 1.015.958.2.444.214.94.04 1.395-.688 1.81-.725 3.276-.112 4.48 1.113 2.19 4.271 3.36 6.55 4.048a.375.375 0 00.326-.054c.013-.01.02-.024.031-.035l10.306.808a2.416 2.416 0 002.412 2.352h.042a2.416 2.416 0 002.181-3.354l6.655-3.667a.375.375 0 00.22-.002l.082-.03c2.352-.73 6.73-2.088 7.983-4.775.57-1.225.484-2.689-.266-4.475a1.811 1.811 0 01-.007-1.395c.184-.451.533-.803.982-.992a1.81 1.81 0 011.395-.007c.451.184.804.533.992.982.32.764.555 1.509.708 2.233L44.403 11.3a.178.178 0 00.278.223l2.522-3.139c.28 1.705.088 3.29-.586 4.735-1.933 4.148-7.422 5.852-10.06 6.67a.376.376 0 00-.242.482c.227.652.456 1.34.677 2.054l-3.67 1.188-.94.304a.178.178 0 00-.114.224c.017.053.06.085.108.104.023.023.05.041.084.049l.486.103 4.887 1.044c.144.581.278 1.171.4 1.768l-.893-.378c-.594-.253-1.367.449-1.453.529a.25.25 0 00-.08.188c.003.118.042 1.161.634 1.41l2.251.952c.394 2.968.402 5.958-.33 8.583a.375.375 0 00.247.458 7.684 7.684 0 014.87 4.615 7.66 7.66 0 01-.239 6.025.373.373 0 00.297.532l5.806.656c.82.093 1.44.77 1.415 1.545a1.497 1.497 0 01-1.695 1.442m.364-3.732l-5.302-.599a8.391 8.391 0 00.056-6.134 8.42 8.42 0 00-5.005-4.948c.636-2.514.65-5.316.316-8.106l1.478.625a.251.251 0 00.191 0 .248.248 0 00.136-.133l.704-1.668a.25.25 0 00-.133-.327l-2.801-1.184a45.942 45.942 0 00-.42-1.945l6.32 1.35a.178.178 0 00.074-.348l-6.49-1.386a54.11 54.11 0 00-.74-2.696l6.848-2.217a.179.179 0 00-.11-.339l-6.845 2.216a61.238 61.238 0 00-.555-1.705c2.855-.893 8.163-2.697 10.148-6.954.825-1.77.999-3.72.523-5.82l1.183-1.47a.178.178 0 10-.278-.223l-1.014 1.26A13.725 13.725 0 0047.1 5.4a2.558 2.558 0 00-1.4-1.385 2.56 2.56 0 00-1.97.01 2.555 2.555 0 00-1.385 1.4 2.555 2.555 0 00.01 1.969c.663 1.58.754 2.845.277 3.867-.96 2.06-4.198 3.305-6.507 4.054.207-.432.35-.966.202-1.499-.19-.686-.805-1.192-1.819-1.515l-.182-.897 3.134-.52a.178.178 0 00-.058-.35l-3.148.52-.217-1.07L37.7 8.748a.178.178 0 00-.115-.338l-3.62 1.223-.14-.695 4.01-2.21a.178.178 0 10-.172-.312L33.75 8.572l-1.278-6.29a.375.375 0 00-.657-.162l-3.694 4.5-9.54.65-4.173-3.048a.374.374 0 00-.595.278l-.549 8.208-3.388-1.238a.178.178 0 10-.122.334l3.47 1.268c.005.002.01.002.016.003l-.056.83-4.892-.496a.178.178 0 00-.036.355l4.904.497-.054.82-3.99.623a.178.178 0 00.055.352l3.91-.61-.095 1.416-.074-.021a.375.375 0 00-.293.037c-.777.458-1.162.99-1.143 1.58.007.217.07.42.167.605-2.379-.892-3.842-1.918-4.45-3.114-.512-1.006-.464-2.273.145-3.875a2.556 2.556 0 00-.058-1.969 2.575 2.575 0 00-4.753.14c-1.138 2.993-1.112 5.697.077 8.037 1.488 2.926 4.554 4.591 7.137 5.574C6.268 28.233 1.705 33.928.628 35.009-.62 36.263.24 38.02 1.07 39.72c.558 1.141 1.134 2.32 1.094 3.33-.065 1.63 1.102 1.997 2.131 2.322.962.303 1.957.616 2.419 1.85.64 1.71 1.894 2.267 3.107 2.805.718.32 1.455.649 2.088 1.232l.046.293a2.553 2.553 0 00-.13.021C3.843 53.157 1.341 56.323.647 58.701c-.695 2.385.14 4.935 2.294 6.995 2.941 2.815 8.141 4.534 13.658 4.534a28.959 28.959 0 009.289-1.563 2.555 2.555 0 001.48-1.3c.304-.616.35-1.314.128-1.964a2.578 2.578 0 00-3.265-1.609c-7.588 2.58-14.8.99-17.731-1.816-.34-.325-1.11-1.156-.912-1.836.254-.795 6.167-2.975 7.08-3.155l23.948.932a2.23 2.23 0 00.856-.068 2.247 2.247 0 00.884-3.85l10.65.414a2.244 2.244 0 002.501-2.165c.04-1.162-.875-2.18-2.08-2.315"/><path d="M23.033 11.252h.003c.504 0 .816-.252.986-.507a.74.74 0 00.075.066c.239.186.59.25 1.044.193.39-.05.672-.199.839-.444.235-.347.133-.75.129-.767a.178.178 0 00-.345.089c0 .002.064.27-.081.481-.107.155-.304.252-.588.288-.835.108-.912-.305-.915-.319a.178.178 0 00-.167-.156c-.087.001-.164.054-.183.139a.782.782 0 01-.794.58h-.002c-.209 0-.367-.054-.47-.158a.566.566 0 01-.146-.367.178.178 0 00-.173-.182c-.112-.01-.18.074-.183.173 0 .015-.007.362.243.62.173.179.418.27.728.27m7.702-1.523a.617.617 0 10-.148-1.225.617.617 0 00.148 1.225m-14.913.694l.022-.001a.177.177 0 00.155-.198.44.44 0 01.872-.106c.012.097.1.171.199.155a.178.178 0 00.155-.198.796.796 0 00-1.579.191c.01.09.087.157.176.157"/><path fill="#fadceb" d="M12.846 17.472c-.505.316-.756.64-.745.967.017.566.8 1.103 1.152 1.292l10.416.817zm22.879-3.489c-.135-.482-.627-.854-1.464-1.107l-6.272 6.555c.05.06.098.12.143.184l6.929-3.818c.144-.163.88-1.043.664-1.814m-8.246 5.634a1.902 1.902 0 00-1.33-.537h-.032a1.916 1.916 0 00-1.881 1.946 1.916 1.916 0 001.913 1.881h.033c.028 0 .056-.004.084-.006l-.582-.982c-.024.006-.048.013-.073.016a.618.618 0 11.54-.686.613.613 0 01-.161.49l.542.913.241-1.279a.616.616 0 01.21-1.16.618.618 0 01.149 1.226h-.009l-.25 1.324a1.916 1.916 0 001.19-1.802 1.901 1.901 0 00-.584-1.344"/><path fill="#fff" d="M51.866 1.254l1.021.82.506-.629c.124-.154.02-.588-.117-.9-.326-.064-.776-.08-.904.08z"/><path d="M53.276.546c.136.311.24.745.117.9l-.506.629-1.021-.821.506-.63c.128-.16.578-.143.904-.078m-3.827 3.715l2.104-2.618 1.021.821-2.104 2.618zM53.513.087c-.114-.03-1.128-.277-1.53.224l-3.08 3.832a.25.25 0 00.038.35l1.41 1.135a.247.247 0 00.184.054.253.253 0 00.168-.092l2.417-3.007.001-.001.662-.824c.403-.5-.057-1.437-.11-1.543a.251.251 0 00-.16-.128"/><path fill="#fadceb" d="M51.553 1.643l-2.104 2.618 1.021.821 2.104-2.618zM32.2 22.549l-.422.894-.977.16.72.678-.15.977.867-.475.884.446-.176-.93-.485-.104a.168.168 0 01-.085-.05.17.17 0 01-.108-.103.178.178 0 01.114-.224l.94-.304-.669-.086z"/><path fill="#fadceb" d="M33.087 23.964l.116.025.09-.091z"/><path fill="#fff" d="M43.6 35.248l.686.426.69-1.113-.685-.426c-.175-.108-.593.056-.878.225-.025.332.013.78.187.888"/><path d="M44.71 35.937l.692-1.113 2.853 1.772-.691 1.113zm-.419-1.802l.686.426-.691 1.113-.686-.426c-.174-.108-.212-.556-.187-.888.285-.169.703-.332.878-.225m-.955 1.538l.898.557 3.279 2.035a.251.251 0 00.344-.08l.955-1.538a.25.25 0 00-.081-.344l-4.176-2.593c-.547-.339-1.42.23-1.518.297a.25.25 0 00-.108.174c-.016.116-.14 1.153.407 1.492"/><path fill="#fadceb" d="M45.402 34.824l-.691 1.113 2.853 1.772.691-1.113z"/><path d="M60.355 44.669L49.49 37.924a.178.178 0 10-.188.302l10.865 6.745a.179.179 0 00.188-.302"/><path fill="#fff" d="M36.313 27.552c.026.33.134.768.323.847l.743.315.51-1.207-.743-.315c-.183-.076-.571.143-.833.36"/><path fill="#fadceb" d="M38.35 27.701l-.51 1.207 3.094 1.307.51-1.207z"/><path d="M54.58 35.446a.178.178 0 00.07-.342l-5.756-2.431a.177.177 0 00-.234.094.178.178 0 00.095.233l5.757 2.432c.022.01.045.014.069.014m-11.945-5.223a.178.178 0 00.095.233l4.701 1.986a.177.177 0 00.233-.095.178.178 0 00-.094-.233l-4.702-1.986a.178.178 0 00-.233.095"/><path d="M59.16 29.893a.178.178 0 00.036-.352L46.69 26.87a.178.178 0 10-.074.348l12.506 2.67a.171.171 0 00.037.005" fill="#1a1a18"/><path fill="#fff" d="M50.141 18.946l.768-.248c.188-.061.34-.481.395-.817-.237-.233-.604-.494-.799-.43l-.768.249z"/><path fill="#fadceb" d="M49.665 19.1l-.403-1.246-3.196 1.034.404 1.246z"/><path d="M49.262 17.853l.403 1.247-3.195 1.034-.404-1.246zm2.042.028c-.056.335-.207.756-.395.817l-.768.248-.404-1.247.768-.248c.195-.064.563.197.8.43m-5.11 2.79a.246.246 0 00.191.016l3.671-1.189 1.006-.325c.612-.198.741-1.233.754-1.35a.252.252 0 00-.063-.195c-.08-.087-.79-.852-1.402-.653l-4.677 1.514a.249.249 0 00-.161.315l.557 1.722c.02.063.065.115.125.145"/></svg>