<svg xmlns="http://www.w3.org/2000/svg" height="66.574" width="56.009" viewBox="0 0 56.009 66.574"><path d="M55.735 49.145l-3.323 1.472v4.131a.25.25 0 01-.137.223l-11.496 5.82c-.002.002-.005.002-.007.003a.248.248 0 00-.106-.475l-.054-.003.02-.01-.414-.09-.093.047a2.71 2.71 0 01-.552-.179c-.034-.015-.063-.038-.097-.054a2.646 2.646 0 01-.402-.247 2.565 2.565 0 01-.28-.23c-.043-.04-.077-.087-.116-.13a2.751 2.751 0 01-.25-.325c-.046-.071-.095-.14-.135-.216-.038-.073-.066-.15-.097-.227a2.651 2.651 0 01-.126-.386c-.012-.052-.031-.105-.04-.157l-.034-.365-.01-.109c0-.105.01-.218.025-.333l.003-.037.119-.502.053-.124.083-.198.017-.039.006-.01.145-.235.047-.074.001-.002.284-.34.002-.001c.077-.078.166-.154.277-.238l.002-.002.063-.047a2.67 2.67 0 01.298-.185l.006-.004.024-.012.032-.015c.014-.007.047-.02.086-.036.14-.056.4-.152.582-.217H42.5a.25.25 0 000-.5l-.049-.002.018-.008-.494-.094-.106.047c-.22-.04-.435-.1-.644-.183-.03-.011-.057-.03-.087-.042a3.191 3.191 0 01-.478-.252 3.015 3.015 0 01-.338-.242c-.04-.034-.07-.073-.107-.108a2.778 2.778 0 01-.298-.332c-.058-.077-.119-.152-.168-.234-.038-.063-.064-.13-.096-.196a2.457 2.457 0 01-.152-.396c-.016-.056-.038-.112-.05-.168l-.036-.34-.014-.131c0-.102.012-.211.028-.323.002-.013.001-.026.003-.04l.136-.498.052-.109.103-.213.018-.037.008-.01.22-.311.328-.343c.082-.072.18-.145.295-.223l.025-.018.074-.048.048-.026c.103-.062.204-.12.298-.163l.009-.004.044-.019.018-.007c.018-.008.055-.021.1-.037.21-.074.66-.217.81-.263.847-.253 1.838-.566 2.77-.98l10.595-4.695v-.384a.25.25 0 01.25-.25.25.25 0 01.091.018l-.003-.002.005.002a.242.242 0 01.074.048l-.003-.003.009.007c.02.02.035.043.047.067l.008.011v.002c.011.024.015.05.017.077v-.001l.005.021v5.864a.25.25 0 01-.149.229M54.345 31.133c.004.002.01.001.014.003-.005-.002-.01-.001-.014-.003m.047 6.324l-1.98 1.002v4.616a.25.25 0 01-.137.223l-.013.006h2.19l-9.866 4.374c-.894.396-1.853.701-2.678.947h-.536c-.204 0-.402.019-.597.048a.246.246 0 00-.109-.027l-.054-.003.02-.01-.414-.09-.093.046a2.667 2.667 0 01-.552-.178c-.034-.015-.063-.038-.097-.054a2.675 2.675 0 01-.402-.247 2.606 2.606 0 01-.28-.23c-.043-.04-.077-.088-.116-.131a2.719 2.719 0 01-.25-.324c-.046-.071-.095-.14-.135-.216-.038-.073-.066-.15-.097-.227a2.655 2.655 0 01-.126-.386c-.012-.052-.031-.105-.04-.157l-.034-.365-.01-.109c0-.105.01-.218.025-.333l.003-.037.119-.502.053-.124.083-.199.017-.038.006-.01.183-.296.01-.014.284-.34.002-.003c.077-.077.166-.153.277-.238h.002l.063-.048c.101-.073.204-.136.298-.186l.006-.003.024-.012.032-.015.086-.036c.147-.06.433-.164.607-.227h2.619a.249.249 0 00-.002-.5l-.054-.002.02-.01-.414-.09-.093.046a2.717 2.717 0 01-.552-.178c-.034-.016-.064-.038-.097-.054a2.643 2.643 0 01-.403-.247 2.65 2.65 0 01-.28-.23c-.042-.04-.076-.088-.115-.131a2.719 2.719 0 01-.25-.325c-.046-.07-.096-.14-.135-.215-.039-.073-.066-.15-.098-.227a2.651 2.651 0 01-.125-.386c-.012-.053-.032-.105-.04-.157l-.035-.365-.01-.11c0-.105.01-.217.026-.333.001-.012 0-.023.002-.036l.12-.502.052-.125.084-.199.017-.037.006-.01.192-.31.286-.343c.078-.077.17-.155.277-.238l.066-.048a2.67 2.67 0 01.297-.186l.007-.003.055-.027.086-.036c.178-.071.559-.21.697-.259l.006-.001.001-.001c.744-.253 1.613-.568 2.43-.982h.001l2.452-1.242.054.39.06.44a.167.167 0 00.03.074.175.175 0 00.17.079.178.178 0 00.153-.2l-.005-.039-.072-.523-.054-.391 1.178-.596.109.366.144.487.117.39.092.312a.176.176 0 00.157.123c.005 0 .009.004.013.004a.178.178 0 00.152-.087.177.177 0 00.02-.142l-.112-.372-.116-.39-.145-.488-.109-.366 1.619-.82.259.296.339.389.273.312.02.023a.177.177 0 00.297-.183.178.178 0 00-.029-.05l-.233-.268-.34-.389-.258-.296 2.984-1.511v-.407a.25.25 0 01.25-.25c.064 0 .122.026.166.066l-.008-.008c.004.002.006.006.01.01a.26.26 0 01.052.069l-.004-.008.007.008.002.007a.243.243 0 01.02.083v-.01l.003.024.002.009v5.862a.25.25 0 01-.137.223M38.443 59.91c.123.12.254.23.394.327a2.686 2.686 0 01-2.027-2.6c0-1.254.865-2.31 2.03-2.601a.82.82 0 00-.022.016l-.07.052c-.132.1-.237.19-.343.298l-.262.305a.854.854 0 00-.022.028l-.268.42-.023.047-.015.032-.142.337-.014.036-.136.569c-.025.173-.037.32-.036.484l.048.516a3.162 3.162 0 00.908 1.734m10.51-26.122l-.564-1.898c.239-.085.483-.173.73-.265l1.259 1.441zm-.9-1.781l.578 1.944-1.105.559-.305-2.226c.272-.087.549-.179.832-.277M39.967 41.6a3.199 3.199 0 00.987 1.124 2.686 2.686 0 01-2.027-2.6c0-1.254.865-2.31 2.03-2.601a.82.82 0 00-.022.015l-.07.053a3.05 3.05 0 00-.344.297l-.277.325-.274.428-.18.416a1.127 1.127 0 00-.014.037l-.137.568a3.24 3.24 0 00-.036.484l.048.517c.057.33.163.645.316.937m-1.524 6.638c.123.12.254.23.394.327a2.685 2.685 0 01-2.027-2.6c0-1.254.865-2.31 2.03-2.601l-.022.015-.07.053c-.132.1-.237.19-.343.298l-.262.304a.956.956 0 00-.023.03l-.267.42-.023.046-.015.032-.142.336-.014.038-.136.567c-.025.173-.037.32-.036.485l.048.516a3.164 3.164 0 00.908 1.734m-18.86-7.804a10.033 10.033 0 001.573-.791 14.072 14.072 0 001.288.118c.215.01.43.016.646.016.158 0 .317-.01.475-.016.219-.007.437-.017.656-.034a14.596 14.596 0 002.042-.309c.176-.04.353-.074.529-.12.049-.014.096-.03.144-.043a13.96 13.96 0 002.726-1.064 24.91 24.91 0 001.254 1.527 50.931 50.931 0 001.846 1.961 2.56 2.56 0 001.837.773 2.573 2.573 0 001.842-4.372c-.19-.194-.4-.408-.619-.637h4.08a3.177 3.177 0 00-1.475 2.68 3.18 3.18 0 001.442 2.661h-.378a3.2 3.2 0 00-.351.02H12.946l-1.168-3.915c.987.843 2.604 1.889 4.655 2.038.214.016.432.022.655.017a7.345 7.345 0 002.495-.51M14.437 47.8l-.352-1.179-.588-1.97-.401-1.346h24.656a3.179 3.179 0 00-1.442 2.661c0 1.126.59 2.116 1.476 2.68h-23.3c.028-.275.015-.56-.05-.846M7.84 49.125h1.63a2.551 2.551 0 001.082 1.432c.046.029.094.05.14.076.183.1.372.18.57.235.21.056.426.088.645.09h.02c.07 0 .141-.005.212-.01a2.58 2.58 0 00.353-.052 2.577 2.577 0 001.895-1.75h25.018c-.981.568-1.632 1.548-1.632 2.66 0 1.11.647 2.087 1.624 2.656a3.134 3.134 0 00-.317.025H7.84c-1.708 0-3.098-1.203-3.098-2.681s1.39-2.68 3.098-2.68m-.818-3.161c0 .946.401 1.798 1.04 2.401l-.31.138a3.995 3.995 0 00-2.262.741c.363-2.005 1.016-4.144 1.997-6.333l.301.94a3.289 3.289 0 00-.766 2.113m2.23 2.454a2.683 2.683 0 01-1.605-2.454c0-.5.14-.968.38-1.37zM5.177 54.11c.677.616 1.62 1 2.663 1h.36a3.3 3.3 0 00-1.178 2.527 3.31 3.31 0 003.305 3.306H12.6c-1.702.684-3.602.811-5.144-.746-1.297-1.309-2.1-3.446-2.279-6.087m37.079-17.168H35.35a24.403 24.403 0 01-1.67-1.976 12.907 12.907 0 001.789-2.831c1.103.615 2.847 1.228 5.434 1.228.133 0 .269-.002.406-.005 1.918-.046 3.628-.367 5.568-.965l.313 2.287L44.584 36c-.777.393-1.61.697-2.328.942m10.976-5.32L50.706 32.9l-1.117-1.279zM17.874 60.318a2.553 2.553 0 00-1.387-.793 2.552 2.552 0 00-1.934.375c-.217.143-.445.283-.679.418h-3.547a2.684 2.684 0 01-2.68-2.681 2.683 2.683 0 012.304-2.651h27.786a3.18 3.18 0 00-1.427 2.651c0 1.126.59 2.116 1.476 2.68zm21.448-7.024c.178.296.405.563.676.795.096.082.197.16.302.232-1.182-.378-2.027-1.363-2.027-2.516 0-1.155.848-2.14 2.033-2.517-.13.088-.242.173-.351.27l-.3.305a.866.866 0 00-.023.026l-.309.425-.024.043-.018.034-.162.336-.015.034-.16.578a2.751 2.751 0 00-.04.492l.055.519c.065.333.187.65.363.944M28.58 11.215c2.248-.14 4.372-.272 6.174-.533 4.173-.604 12.014-.832 14.46-.89l-2.478 3.464a.375.375 0 00-.054.325l3.637 12.145a.37.37 0 00.13.189l3.749 2.916-3.497 1.384-.007.003c-3.862 1.529-6.378 2.318-9.403 2.391-4.976.12-6.767-2.132-6.794-2.168a.375.375 0 00-.598.453c.03.039.313.403.93.84a12.31 12.31 0 01-1.595 2.607c-.816-1.211-1.404-2.5-1.334-3.689a.376.376 0 00-.352-.396.386.386 0 00-.397.352c-.175 2.96 3.03 6.236 4.754 7.996a1.825 1.825 0 11-2.607 2.55c-2.118-2.163-6.058-6.19-5.787-10.762a.375.375 0 00-.353-.397.381.381 0 00-.396.353c-.16 2.698 1.008 5.178 2.457 7.236-.817.412-1.69.744-2.618.988a13.8 13.8 0 01-4.52.416c1.373-1.117 2.247-2.682 2.529-4.569.382-2.562-.382-5.572-1.902-7.491a.375.375 0 10-.588.465c1.165 1.47 2.157 4.179 1.748 6.915-.28 1.876-1.2 3.399-2.658 4.405-5.725 3.95-9.752-1.153-9.92-1.372a.376.376 0 00-.657.335l3.079 10.312a1.821 1.821 0 01-2.758 1.936 1.84 1.84 0 01-.81-1.175l-4.168-13.01c-.006-.02-.02-.036-.03-.055l.018-.01c-.68-2.157-1.159-4.426-1.264-6.692-.235-5.062 1.39-9.314 4.83-12.64 4.357-4.21 12.504-4.719 19.05-5.127M17.493 61.043a1.826 1.826 0 01-.516 2.527c-2.232 1.474-4.54 2.254-6.674 2.254-2.267 0-4.331-.876-5.971-2.532-4.534-4.577-5.473-15.154 1.277-26.239l1.541 4.81c-1.435 3.008-2.269 5.957-2.586 8.635-.205.4-.322.842-.322 1.308 0 .34.062.667.175.975-.03 3.471.882 6.306 2.506 7.945 2.003 2.023 4.784 1.955 8.044-.2a1.807 1.807 0 011.37-.265c.477.098.888.376 1.156.782m38.515-18.001a.317.317 0 00-.007-.056v-.009L56 42.974c-.004-.018-.011-.034-.018-.052l-.004-.017-.001-.002c0-.002-.002-.003-.003-.005a.329.329 0 00-.031-.053.384.384 0 00-.037-.046l-.012-.013-.014-.012-.002-.002-.012-.01-.005-.006a.37.37 0 00-.079-.045l-.008-.003-.01-.004c-.006-.003-.013-.003-.019-.005a.363.363 0 00-.099-.017l-.012-.002h-3.096v-4.144l1.91-.968a.375.375 0 00.206-.334v-5.862l-.002-.017c0-.008-.002-.015-.003-.023a.373.373 0 00-.022-.092c-.002-.007-.004-.014-.008-.021a.325.325 0 00-.037-.063.315.315 0 00-.031-.04l-.02-.018-.015-.015-.01-.008-.005-.005a.367.367 0 00-.074-.042l-.004-.002c-.003-.002-.007-.002-.011-.003l-.012-.006-.02-.003a.376.376 0 00-.084-.014c-.006 0-.011-.003-.017-.003h-3.515l.213-.085 4.107-1.626a.374.374 0 00.092-.645l-4.173-3.245-3.55-11.854 2.806-3.923a.375.375 0 00-.311-.593c-.066.001-4.26.078-8.583.323l.682-4.346a.178.178 0 00-.352-.055l-.694 4.422c-.402.023-.805.049-1.204.075l-.89-4.123a.18.18 0 00-.211-.137.179.179 0 00-.136.212l.878 4.073c-.405.028-.805.058-1.198.09l-2.415-4.837a.178.178 0 00-.318.159l2.351 4.708a55.2 55.2 0 00-3.21.35c-1.774.256-3.882.387-6.114.526-6.67.416-14.97.934-19.525 5.337-3.602 3.481-5.304 7.927-5.058 13.213.112 2.423.625 4.828 1.353 7.1-7.32 11.607-6.318 22.845-1.505 27.704 1.784 1.801 4.033 2.754 6.504 2.754 2.281 0 4.733-.823 7.088-2.379a2.576 2.576 0 00.902-3.251h22.373a.378.378 0 00.087-.01.275.275 0 00.045-.017c.008-.003.015-.004.022-.008l.016-.006 11.496-5.82a.375.375 0 00.206-.335V50.7l3.248-1.44a.376.376 0 00.223-.343v-5.866l-.001-.008"/><path fill="#fff" d="M42.852 12.634c.164-.275.48-.336.517-.342a.178.178 0 11.061.35c-.007.002-.193.04-.273.176-.052.088-.052.21-.002.362.055.16.133.264.233.309a.408.408 0 00.296-.003.179.179 0 01.234.091c.04.09 0 .194-.088.234a.793.793 0 01-.306.062.684.684 0 01-.276-.056c-.197-.086-.342-.262-.43-.524-.086-.256-.074-.477.034-.66m1.315 6.859c.269-.44.83-.55.854-.555a.178.178 0 01.067.35c-.004 0-.433.088-.618.392-.097.16-.111.361-.042.597.235.8.754.68.813.663a.178.178 0 01.21.099.178.178 0 01-.065.223c-.026.016-.633.413-.352.995.275.575.906.307.933.295a.178.178 0 11.142.327 1.297 1.297 0 01-.502.102.945.945 0 01-.895-.57c-.222-.461-.074-.863.142-1.138a.907.907 0 01-.182-.074c-.271-.147-.468-.423-.586-.821-.099-.338-.072-.635.081-.885m4.342 7.23a.178.178 0 11.103.34.44.44 0 00.254.841.178.178 0 01.103.341.791.791 0 01-.991-.53.796.796 0 01.53-.992M4.7 28.982c.105 2.266.584 4.534 1.264 6.693l-.019.01c.01.018.024.034.031.054l4.167 13.01c.115.508.4.913.811 1.175a1.812 1.812 0 001.69.14 1.822 1.822 0 001.067-2.076l-3.078-10.312a.375.375 0 01.657-.335c.168.219 4.195 5.323 9.92 1.372 1.458-1.006 2.378-2.53 2.658-4.405.41-2.736-.583-5.444-1.748-6.915a.375.375 0 11.588-.465c1.52 1.919 2.285 4.93 1.902 7.491-.282 1.887-1.156 3.452-2.529 4.57 1.49.11 3.022-.024 4.52-.417a13.35 13.35 0 002.618-.988c-1.449-2.058-2.617-4.538-2.457-7.237a.381.381 0 01.397-.352c.207.013.364.19.352.397-.272 4.572 3.67 8.6 5.787 10.763a1.826 1.826 0 002.579.028c.718-.703.73-1.86.028-2.579-1.723-1.76-4.929-5.036-4.754-7.996a.385.385 0 01.397-.352c.207.012.364.19.352.396-.07 1.19.519 2.478 1.333 3.69a12.318 12.318 0 001.596-2.607c-.617-.438-.9-.802-.93-.841a.375.375 0 01.598-.453c.027.036 1.818 2.288 6.794 2.168 3.025-.073 5.54-.862 9.403-2.391a.078.078 0 01.007-.003l3.497-1.384-3.75-2.916a.377.377 0 01-.13-.189l-3.636-12.145a.376.376 0 01.054-.325l2.477-3.464c-2.445.058-10.286.286-14.458.89-1.803.26-3.926.393-6.175.533-6.546.408-14.693.916-19.05 5.128-3.44 3.324-5.065 7.577-4.83 12.639"/><path fill="#fadceb" d="M11.57 3.811c.09.946 2.818 2.347 4.646 3.07.99-1.67 2.286-4.428 1.834-5.27C17.69.94 16.944.267 16.027.576a1.586 1.586 0 00-.995 2.007.247.247 0 01-.157.317.25.25 0 01-.316-.157 1.587 1.587 0 00-2.007-.995c-1.033.348-1.032 1.558-.983 2.062"/><path d="M13.056 1.666c.661 0 1.28.418 1.502 1.078a.25.25 0 10.474-.16 1.586 1.586 0 01.995-2.007C16.944.268 17.69.94 18.05 1.61c.453.843-.845 3.602-1.835 5.27-1.827-.722-4.555-2.123-4.646-3.069-.049-.504-.05-1.714.983-2.062.167-.056.337-.083.504-.083m3.176 5.757a.25.25 0 00.303-.103c.28-.46 2.713-4.534 1.955-5.946-.595-1.109-1.625-1.606-2.623-1.27a2.087 2.087 0 00-1.388 1.623 2.085 2.085 0 00-2.087-.452c-.952.321-1.445 1.288-1.32 2.584.154 1.607 4.648 3.369 5.16 3.564"/><path fill="#fff" d="M45.968 57.604l5.944-3.01v-.268l-11.694 5.89.414.09zm-4.497-2.617h-1.33c-.182.065-.442.161-.582.217-.028.013-.058.023-.086.036l-.031.016-.024.01a2.985 2.985 0 00-.305.19l-.063.047a2.64 2.64 0 00-.279.24l-.001.001-.285.34c-.019.026-.03.05-.048.076l-.145.236-.023.047-.083.199zm8.769-3.407l-7.444 3.3-4.783 2.409-.002.016a2.655 2.655 0 00-.025.333l.01.109zm1.672.168v-.45L38.07 58.269c.032.13.074.259.126.387zm0 1.009v-.45l-13.483 6.79c.075.115.158.223.25.325zm0 1.01v-.45l-12.839 6.466c.127.094.26.176.403.247z"/><path d="M51.912 54.594l-5.944 3.01 5.945-3.01v-.268z"/><path d="M38.484 56.086l-.047.074c.018-.025.03-.05.048-.076zm.934-.819l-.008.004a2.7 2.7 0 00.008-.004m-1.132 1.138l-.017.038.023-.047zm1.186-1.165h.001c.028-.013.058-.023.086-.036l-.086.036-.031.015.03-.014m-.701.501c.077-.077.166-.153.279-.239l-.002.002c-.111.084-.2.16-.277.237l-.002.002s.002 0 .002-.002m1.896 5.077" fill="#1a1a18"/><path fill="#fadceb" d="M17.25 58.998h-.341a.315.315 0 01-.128-.023.27.27 0 01-.101-.086l-1.333-1.684.01.145c.002.047.004.091.004.133v1.515h-.579v-2.827h.345c.029 0 .053.001.073.004a.167.167 0 01.097.044.53.53 0 01.048.053l1.342 1.698a3.74 3.74 0 01-.015-.303v-1.496h.578zm9.577-.648a.172.172 0 01.144-.078.23.23 0 01.118.037l.133.082c.05.03.107.057.172.081a.64.64 0 00.229.037.43.43 0 00.277-.079c.066-.052.1-.135.1-.249a.236.236 0 00-.055-.16.418.418 0 00-.143-.103 1.286 1.286 0 00-.2-.072 6.567 6.567 0 01-.231-.07 1.753 1.753 0 01-.231-.092.674.674 0 01-.343-.37.89.89 0 01.01-.644.8.8 0 01.187-.27.927.927 0 01.305-.19c.12-.046.258-.07.413-.07.087 0 .171.007.253.02a1.352 1.352 0 01.44.156.94.94 0 01.172.125l-.163.304a.24.24 0 01-.06.07.14.14 0 01-.083.023.202.202 0 01-.096-.027c-.034-.02-.073-.04-.116-.064a1.01 1.01 0 00-.149-.063.597.597 0 00-.19-.028c-.123 0-.215.026-.275.079a.269.269 0 00-.09.212c0 .057.018.104.055.142.036.037.083.07.142.097.059.027.127.052.202.075.075.022.153.047.232.075.078.028.156.06.232.098a.769.769 0 01.201.144.65.65 0 01.143.212.755.755 0 01.055.302c0 .13-.023.253-.069.367a.862.862 0 01-.515.497c-.126.049-.27.073-.43.073-.087 0-.177-.01-.268-.027a1.632 1.632 0 01-.506-.194 1.015 1.015 0 01-.195-.151zm-1.947-2.18h.66v2.828h-.66zm-11.518 1.165v.486h-.889v.673h1.16v.504h-1.82v-2.827h1.82v.505h-1.16v.66zm5.7.648a.855.855 0 00.172.295c.073.08.16.142.26.184.1.042.21.063.329.063a1.12 1.12 0 00.438-.086v-.428h-.279a.135.135 0 01-.097-.034.109.109 0 01-.035-.083v-.36h1.005v1.192a1.482 1.482 0 01-.476.231 1.884 1.884 0 01-.283.055c-.1.011-.208.017-.324.017-.207 0-.398-.037-.574-.11a1.388 1.388 0 01-.76-.76 1.49 1.49 0 01-.109-.575c0-.211.035-.405.105-.582a1.312 1.312 0 01.771-.756c.184-.07.39-.106.618-.106a1.796 1.796 0 01.618.109 1.336 1.336 0 01.433.272l-.19.288a.208.208 0 01-.065.065.157.157 0 01-.082.023.226.226 0 01-.12-.039 2.306 2.306 0 00-.146-.08.936.936 0 00-.293-.087 1.509 1.509 0 00-.178-.01.818.818 0 00-.332.065.718.718 0 00-.252.184.834.834 0 00-.16.284c-.037.11-.056.234-.056.37 0 .15.021.283.063.4m4.672.49v.524H22.03v-2.827h.656v2.303zm8.452.524h-.66v-1.195h-1.149v1.195h-.66v-2.827h.66v1.182h1.149V56.17h.66zm4.123-1.36a3.18 3.18 0 011.427-2.651H9.951a2.683 2.683 0 00-2.305 2.651 2.684 2.684 0 002.681 2.68h3.547c.235-.134.462-.274.68-.417a2.55 2.55 0 011.933-.374c.543.11 1.022.389 1.387.792h19.912a3.178 3.178 0 01-1.476-2.68"/><path fill="#fff" d="M55.384 43.887v-.448l-10.596 4.696c-.93.412-1.922.726-2.77.979-.15.046-.599.19-.81.263-.032.013-.067.023-.098.037h-.001l-.015.007h-.003l-.044.02a3.23 3.23 0 00-.307.166l-.048.026-.073.048-.026.018a2.97 2.97 0 00-.295.223l-.328.343-.22.31-.026.048-.103.213zm0 1.01v-.463l-15.952 7.032-.002.017a2.325 2.325 0 00-.028.323l.014.13zm0 2.019v-.463L39.918 53.27c.09.117.188.228.298.332zm0-1.01v-.462l-15.882 7c.038.134.088.266.152.397zm0 2.019v-.463l-14.722 6.49c.15.097.308.181.477.253zm0 .828v-.281l-13.408 5.911.495.094z"/><path d="M40.618 49.681l-.025.018.026-.018zm.49-.267l-.017.008.003-.002.014-.006m-.061.026l-.009.004a3.203 3.203 0 00.009-.004m.063-.026c.031-.014.066-.024.099-.037a1.766 1.766 0 00-.1.037m-1.367 1.172l-.018.037.026-.048zm16.142-2.498V43.052c0-.007-.004-.014-.005-.021v.001a.248.248 0 00-.016-.077v-.002c-.003-.004-.007-.007-.009-.012v.001a.244.244 0 00-.047-.067l-.009-.007a.244.244 0 00-.072-.044l-.004-.003.003.002a.247.247 0 00-.091-.019.25.25 0 00-.25.25v.833l-15.763 6.95-.052.109-.136.498c-.002.013-.001.026-.003.04l.002-.018 15.952-7.032v.463l-15.968 7.04.037.34c.01.056.033.112.049.168l15.882-7.002v.463l-15.73 6.935c.032.066.058.133.096.196.05.082.11.157.168.234l15.466-6.818v.463l-15.168 6.687c.036.035.068.074.107.108.105.09.221.166.339.242l14.722-6.49v.462l-14.245 6.28c.03.013.056.03.087.042.209.082.424.143.644.182l.106-.046 13.408-5.911v.281L42.47 54.477l-.019.008.048.002a.25.25 0 110 .5h-1.028l-3.286 1.655-.053.124-.12.502c-.001.013 0 .024-.002.037l.002-.017 4.783-2.409 7.444-3.3-12.244 6.168.034.365c.009.052.027.105.04.157l13.842-6.971v.45l-13.716 6.908c.031.076.059.153.097.226.04.076.09.145.136.216l13.483-6.79v.449l-13.234 6.665c.04.044.073.091.115.132.087.085.183.157.28.229l12.84-6.467v.45L39.475 60.03c.034.016.063.039.097.054.18.08.364.14.552.179l.093-.047 11.694-5.89v.268l-5.944 3.01-5.336 2.702-.02.01.054.003a.249.249 0 11.105.475c.003-.001.006 0 .009-.002l11.495-5.821a.25.25 0 00.137-.223v-4.131l3.323-1.472a.25.25 0 00.149-.23z" fill="#1a1a18"/><path fill="#fadceb" d="M41.754 48.625h.154c.825-.246 1.784-.551 2.677-.948l9.868-4.373h-2.19zm-26.798 2.632a.51.51 0 00-.029-.177.36.36 0 00-.237-.225.667.667 0 00-.215-.031h-.341v.896h.341c.17 0 .294-.04.37-.122a.486.486 0 00.111-.341"/><path fill="#fadceb" d="M16.73 50.333h1.82v.504h-1.16v.66h.888v.485h-.888v.673h1.16v.505h-1.82zm2.968 0h.92c.204 0 .379.021.523.063.144.042.262.1.353.176a.665.665 0 01.199.265.877.877 0 01.062.334.804.804 0 01-.325.671.942.942 0 01-.244.135.608.608 0 01.123.081.47.47 0 01.1.118l.602.984h-.594c-.11 0-.189-.041-.237-.124l-.47-.821a.197.197 0 00-.072-.078.244.244 0 00-.117-.023h-.167v1.046h-.656zm5.988 2.827h-.509a.234.234 0 01-.14-.04.207.207 0 01-.077-.102l-.167-.493H23.72l-.167.493a.22.22 0 01-.076.098.217.217 0 01-.138.044h-.512l1.095-2.827h.67zm3.473 0h-.341a.315.315 0 01-.129-.023.276.276 0 01-.1-.086l-1.333-1.684.01.145.003.133v1.515h-.578v-2.827h.345c.029 0 .052.001.072.004.02.003.037.007.052.014a.252.252 0 01.094.083l1.342 1.698a3.256 3.256 0 01-.015-.303v-1.496h.578zm3.294-2.827v.52h-.795v2.307h-.656v-2.307h-.795v-.52zm3.616 1.983c-.07.176-.17.329-.297.459-.129.13-.283.232-.463.305-.18.074-.38.111-.6.111-.22 0-.421-.037-.602-.11a1.374 1.374 0 01-.465-.306 1.362 1.362 0 01-.298-.46 1.518 1.518 0 01-.106-.57c0-.204.035-.394.106-.57a1.354 1.354 0 01.763-.762c.18-.074.382-.111.601-.111.22 0 .42.037.6.112.181.074.335.176.464.305.128.13.227.282.297.458.071.176.106.366.106.568 0 .205-.035.395-.106.57M7.63 50.334h1.82v.504H8.29v.66h.89v.485h-.89v.673h1.16v.505H7.63zm-2.887 1.473c0 1.478 1.39 2.68 3.099 2.68H39.08c.104-.013.21-.02.317-.024-.977-.57-1.624-1.547-1.624-2.656 0-1.112.65-2.092 1.632-2.66H14.387c-.141.46-.41.87-.776 1.187h.864c.2 0 .37.024.513.07a.978.978 0 01.353.196c.093.083.162.18.206.293a.999.999 0 01.065.365c0 .14-.022.27-.067.388a.78.78 0 01-.208.302.982.982 0 01-.354.197 1.601 1.601 0 01-.508.071h-.341v.945h-.656v-2.72a2.553 2.553 0 01-1.339.507c-.009.01-.017.024-.026.03a.137.137 0 01-.083.023.2.2 0 01-.096-.028l-.027-.014a2.54 2.54 0 01-.646-.09c-.019.01-.041.016-.056.029a.267.267 0 00-.09.212c0 .057.018.105.054.142.036.037.084.07.143.097.058.027.126.052.201.074.076.023.153.048.232.076.08.028.156.06.232.098a.77.77 0 01.202.144.672.672 0 01.197.514c0 .13-.023.253-.068.367a.863.863 0 01-.515.498c-.127.048-.27.072-.43.072-.088 0-.177-.009-.269-.027a1.653 1.653 0 01-.505-.194 1.032 1.032 0 01-.196-.151l.194-.307a.17.17 0 01.144-.078c.038 0 .077.013.117.037l.134.082c.05.03.107.057.171.081a.641.641 0 00.23.037c.119 0 .21-.026.277-.078.066-.053.099-.136.099-.25a.236.236 0 00-.054-.16.422.422 0 00-.143-.104 1.291 1.291 0 00-.201-.071 5.896 5.896 0 01-.23-.07 1.685 1.685 0 01-.232-.092.68.68 0 01-.344-.37.893.893 0 01.01-.644.776.776 0 01.128-.2c-.047-.025-.095-.046-.141-.075a2.552 2.552 0 01-1.082-1.432H7.84c-1.708 0-3.098 1.203-3.098 2.681"/><path fill="#fadceb" d="M20.846 51.628a.41.41 0 00.154-.094c.04-.04.07-.087.087-.14a.54.54 0 00.028-.174.364.364 0 00-.122-.291c-.08-.07-.206-.105-.375-.105h-.264v.838h.264a.677.677 0 00.228-.034m3.477-.497a4.655 4.655 0 01-.067-.216 3.954 3.954 0 01-.126.394l-.26.77h.772l-.26-.774-.06-.174m10.971-.047a.673.673 0 00-.249-.179.853.853 0 00-.336-.062c-.127 0-.24.02-.338.062a.67.67 0 00-.25.179.792.792 0 00-.157.284 1.227 1.227 0 00-.054.377c0 .142.018.268.054.38a.793.793 0 00.157.284.66.66 0 00.25.177.874.874 0 00.338.062c.126 0 .238-.02.336-.062.098-.04.182-.1.25-.177a.797.797 0 00.155-.284c.037-.112.055-.238.055-.38 0-.14-.018-.265-.055-.377a.796.796 0 00-.156-.284"/><path fill="#fff" d="M51.912 39.065v-.353l-9.016 4.566-.008.001a.249.249 0 01-.103.025h-.184l-4.588 2.311-.002.017a2.648 2.648 0 00-.025.333l.01.109zm0 1.009v-.45L38.07 46.596c.032.13.074.259.126.387zm-10.422 3.23h-1.324c-.174.063-.46.168-.608.227-.028.013-.058.022-.085.036l-.031.015-.024.012a2.526 2.526 0 00-.305.189l-.063.047a2.671 2.671 0 00-.279.239l-.002.002-.285.34-.009.015-.182.297-.024.047-.083.198zm4.478 2.627l5.944-3.01v-.268l-11.694 5.89.414.09zm5.944-3.838v-.45L39.073 48.11c.127.094.26.176.403.247zm0-1.009v-.45l-13.483 6.79c.075.115.158.223.25.325z"/><path d="M51.912 42.921l-5.944 3.01 5.945-3.01v-.268z"/><path d="M38.484 44.412l-.009.014.01-.014zm.934-.818l-.008.003a2.654 2.654 0 00.008-.003m-1.132 1.138l-.017.038.023-.047zm1.186-1.165h.001c.028-.014.057-.023.085-.036-.038.015-.07.03-.085.036l-.031.015.03-.015m-.701.502c.077-.077.166-.153.279-.239l-.002.001c-.111.085-.2.161-.277.238l-.002.002.002-.002" fill="#1a1a18"/><path fill="#fadceb" d="M8.026 44.596c-.239.401-.38.868-.38 1.369 0 1.095.662 2.038 1.606 2.454zm7.333-.101h1.82v.504h-1.16v.66h.888v.485h-.888v.673h1.16v.505h-1.82zm18.336 2.827h-.66v-1.196h-1.149v1.196h-.66v-2.827h.66v1.182h1.149v-1.182h.66zm-11.968-2.307v-.52h2.247v.52h-.796v2.307h-.655v-2.307zm3.79 2.31a1.632 1.632 0 01-.505-.193 1.029 1.029 0 01-.196-.152l.194-.306a.172.172 0 01.144-.078c.038 0 .077.013.117.037.04.025.084.052.134.081.05.03.107.058.172.082a.64.64 0 00.228.037c.12 0 .212-.027.278-.079.066-.052.099-.135.099-.25a.235.235 0 00-.055-.16.418.418 0 00-.142-.103 1.286 1.286 0 00-.201-.072 5.91 5.91 0 01-.231-.069 1.703 1.703 0 01-.23-.093.674.674 0 01-.343-.37.893.893 0 01.008-.643.803.803 0 01.189-.27.932.932 0 01.304-.19c.12-.047.259-.07.413-.07.087 0 .172.007.254.02a1.29 1.29 0 01.44.155.94.94 0 01.172.126l-.163.304a.243.243 0 01-.06.07.138.138 0 01-.084.023.199.199 0 01-.096-.028l-.116-.063a.974.974 0 00-.148-.063.597.597 0 00-.19-.028c-.124 0-.215.026-.275.078a.267.267 0 00-.09.213c0 .057.017.104.054.142a.46.46 0 00.143.096c.058.028.126.053.201.075.076.023.153.048.232.076.079.028.156.06.232.098a.769.769 0 01.202.144.663.663 0 01.142.212.753.753 0 01.055.302c0 .13-.023.253-.068.366a.862.862 0 01-.516.498 1.177 1.177 0 01-.429.073c-.088 0-.177-.01-.269-.027m4.487-2.638c.069.046.13.097.182.152l-.22.297a.289.289 0 01-.051.05.132.132 0 01-.082.022.141.141 0 01-.065-.016.748.748 0 01-.067-.038 5.973 5.973 0 00-.076-.048.6.6 0 00-.1-.049.811.811 0 00-.312-.053.821.821 0 00-.326.063.718.718 0 00-.254.18.836.836 0 00-.165.285 1.124 1.124 0 00-.059.374c0 .145.02.274.06.387a.85.85 0 00.16.284.678.678 0 00.238.175c.09.04.188.06.291.06.06 0 .114-.003.163-.008a.674.674 0 00.373-.17.237.237 0 01.05-.032.133.133 0 01.103-.004c.015.006.03.016.044.03l.26.274a1.08 1.08 0 01-.427.336 1.495 1.495 0 01-.609.114c-.214 0-.406-.037-.577-.11a1.25 1.25 0 01-.432-.302 1.334 1.334 0 01-.273-.458 1.697 1.697 0 01-.095-.576c0-.21.036-.404.108-.58a1.355 1.355 0 01.77-.756c.182-.072.382-.107.6-.107a1.532 1.532 0 01.563.105c.081.034.156.073.225.119m-11.715-.193h.655v1.672c0 .1.013.189.038.267a.56.56 0 00.11.2.47.47 0 00.175.126c.07.03.148.044.236.044a.6.6 0 00.236-.044.476.476 0 00.175-.125.554.554 0 00.11-.199.874.874 0 00.038-.267v-1.674h.655v1.674c0 .174-.027.333-.084.478-.056.144-.136.27-.241.374a1.094 1.094 0 01-.382.244 1.38 1.38 0 01-.507.088c-.189 0-.358-.03-.508-.088a1.063 1.063 0 01-.623-.619 1.327 1.327 0 01-.083-.477zm-3.803 4.15h23.3a3.178 3.178 0 01-1.476-2.68c0-1.113.575-2.092 1.443-2.66H13.096l.401 1.345c.138.066.264.145.368.247.128.125.227.274.297.446.071.173.106.361.106.564 0 .204-.035.393-.106.566-.02.052-.05.099-.077.147l.352 1.179c.064.286.077.57.05.847"/><path d="M42.6 43.304h-1.11l-3.305 1.664-.052.125-.12.502c-.001.013 0 .024-.002.037 0-.006 0-.01.002-.017z" fill="#1a1a18"/><path fill="#fff" d="M50.717 33.456l-1.619.82.11.366 1.767-.89zm-1.941.983l-1.178.596.053.39 1.234-.62zm5.253-2.225v-.435l-2.984 1.511.259.297zm-2.714 1.926l-1.963.989.117.391 2.118-1.067zm2.714-.917v-.45l-2.386 1.202.233.267a.16.16 0 01.029.051zm-6.713 2.372l-.054-.39-2.452 1.242c-.818.414-1.687.728-2.43.982h-.002l-.006.002c-.138.049-.519.188-.697.259-.028.013-.058.022-.085.036l-.056.027c-.1.053-.203.117-.304.189l-.066.048c-.109.084-.2.161-.277.238l-.286.343-.192.31a3.386 3.386 0 01-.023.047l-.084.2zm1.83.088l-.117-.391-1.305.657.005.038a.178.178 0 01-.177.203.177.177 0 01-.146-.081l-7.277 3.665a2.658 2.658 0 00-.027.35l.01.109zm4.883-.44v-.45l-13.484 6.79c.075.115.159.223.25.325zm0-1.01v-.45l-4.468 2.25a.178.178 0 01-.152.088c-.005 0-.009-.004-.014-.004l-9.208 4.638c.031.13.073.259.126.386zm0 2.019v-.45l-12.84 6.467c.127.093.262.176.404.247zm-5.945 3.838l5.945-3.01v-.268l-11.695 5.89.415.09z"/><path d="M54.029 37.08l-5.945 3.01 5.945-3.01v-.268z"/><path d="M54.359 31.136l-.015-.003.015.003m-9.549 5.311zm-3.276 1.306l-.007.003a2.654 2.654 0 00.007-.003m.141-.063c-.038.015-.07.029-.085.036h-.001c.028-.014.058-.023.086-.036m-1.272 1.2l-.017.038a.521.521 0 00.023-.047zm2.382 4.414h-.002.002m11.745-6.898v-5.034l-.003-.009-.003-.025v.011a.247.247 0 00-.02-.082c-.001-.003 0-.005-.002-.008l-.007-.008.004.008a.26.26 0 00-.052-.07l-.01-.01.008.009a.248.248 0 00-.416.184v.842l-2.725 1.372.339.39 2.386-1.202v.45l-2.124 1.069a.176.176 0 01-.297.183l-.02-.023-2.12 1.067.111.372a.18.18 0 01-.018.142l4.468-2.251v.45l-13.716 6.908c.03.076.058.154.097.227.04.075.089.144.135.216l13.484-6.791v.45l-13.234 6.665c.039.043.073.09.115.131.087.085.183.158.28.23l12.839-6.467v.45l-12.436 6.264c.033.016.063.038.097.054.18.08.364.139.552.178l.093-.047 11.694-5.89v.269l-5.945 3.01-5.335 2.701-.02.01.054.003a.248.248 0 11.105.475l.008-.001 9.016-4.566v.353l-13.916 7.009.034.365c.009.052.028.105.04.157l13.842-6.971v.449l-13.716 6.908c.031.076.059.154.097.227.04.075.09.145.136.215l13.483-6.79v.45l-13.234 6.665c.04.043.073.09.115.132.087.085.183.157.28.229l12.84-6.467v.45l-12.437 6.264c.034.016.063.039.097.054.18.08.364.14.553.178l.092-.046 11.694-5.89v.268l-5.944 3.01-5.336 2.702-.02.01.054.003c.04 0 .076.01.109.027a4.03 4.03 0 01.597-.048h.382l10.508-5.32.013-.007a.25.25 0 00.137-.223v-4.616l1.98-1.002a.25.25 0 00.137-.223zM42.378 37.43l-.006.001.006-.002z" fill="#1a1a18"/><path fill="#fadceb" d="M47.526 34.511l1.105-.56-.578-1.943c-.283.098-.56.19-.832.277zm2.064-2.889l1.116 1.28 2.526-1.28zm-.47.004c-.248.092-.493.18-.731.265l.564 1.897 1.425-.721zm-1.93 3.055l-.314-2.287c-1.94.598-3.649.919-5.567.965a13.91 13.91 0 01-.406.005c-2.587 0-4.332-.613-5.434-1.228a12.895 12.895 0 01-1.79 2.831 24.396 24.396 0 001.67 1.976h6.907c.718-.246 1.552-.55 2.328-.942zm-26.77 6.052a.66.66 0 00.25.177.88.88 0 00.338.061c.125 0 .237-.02.335-.06a.661.661 0 00.25-.178.8.8 0 00.156-.284c.036-.112.054-.239.054-.38 0-.132-.017-.25-.05-.357-.2-.019-.399-.042-.597-.069a9.908 9.908 0 01-.941.515c.006.105.02.203.048.29a.794.794 0 00.156.285"/><path fill="#fadceb" d="M17.088 41.484h-.655v-.557c-2.051-.15-3.668-1.194-4.655-2.038l1.169 3.916h26.192a3.2 3.2 0 01.352-.02h.378a3.179 3.179 0 01-1.442-2.661c0-1.127.59-2.116 1.476-2.681h-4.08c.219.229.428.443.617.637a2.573 2.573 0 11-3.679 3.6 50.931 50.931 0 01-1.845-1.962l-.06.082a.581.581 0 01-.191.17.494.494 0 01.246.202l.854 1.312h-.586a.5.5 0 01-.096-.008.254.254 0 01-.069-.023.195.195 0 01-.05-.038.363.363 0 01-.041-.052l-.64-.983a.19.19 0 00-.089-.077.383.383 0 00-.144-.022h-.16v1.203h-.655v-2.827h.655V39.8h.106c.096 0 .166-.03.21-.09l.311-.454a24.906 24.906 0 01-.855-1.066 13.67 13.67 0 01-1.608.706c.012.01.028.018.04.03l-.163.304a.24.24 0 01-.06.07.14.14 0 01-.084.023.202.202 0 01-.096-.028l-.116-.063a1.01 1.01 0 00-.148-.063c-.04-.013-.086-.016-.132-.02-.12.036-.238.072-.359.105a.27.27 0 00-.065.178.19.19 0 00.055.141c.036.038.084.07.143.097.058.028.125.053.201.075.076.023.153.048.232.076.079.028.156.06.232.098a.769.769 0 01.202.143c.059.059.106.13.142.213a.755.755 0 01.055.302c0 .13-.023.252-.068.366a.862.862 0 01-.516.498 1.198 1.198 0 01-.429.073c-.088 0-.177-.01-.269-.027a1.632 1.632 0 01-.505-.194 1.015 1.015 0 01-.196-.152l.194-.306a.171.171 0 01.144-.078.22.22 0 01.117.037l.133.081c.05.03.108.057.173.082.064.024.14.037.228.037.12 0 .212-.026.278-.079.066-.052.099-.135.099-.249a.236.236 0 00-.055-.161.418.418 0 00-.142-.103 1.286 1.286 0 00-.201-.072 6.567 6.567 0 01-.231-.069 1.753 1.753 0 01-.23-.093.68.68 0 01-.344-.37.898.898 0 01-.055-.333c0-.016.004-.032.005-.048-.678.152-1.36.256-2.042.31v1.232h1.048v.524h-1.704V39.76c-.158.006-.317.016-.475.016-.216 0-.43-.006-.646-.016a1.601 1.601 0 01-.075.879 1.364 1.364 0 01-.76.764c-.181.074-.381.11-.601.11-.22 0-.42-.036-.602-.11a1.36 1.36 0 01-.763-.764 1.435 1.435 0 01-.06-.206 7.38 7.38 0 01-2.495.51z"/><path d="M50.975 33.752l-1.768.89.145.487 1.963-.989zm-2.09 1.053l-1.233.62.072.524 1.305-.657zm-1.479 1.305a.173.173 0 01-.03-.074l-.06-.44-7.014 3.532-.052.124-.12.502c-.001.013 0 .024-.002.036 0-.005 0-.01.002-.016zm1.99.007a.175.175 0 01-.158-.123l-.092-.311-9.033 4.55.033.365c.01.052.028.105.04.157z" fill="#1a1a18"/><path fill="#fff" d="M13.634 56.676v-.505h-1.82v2.827h1.82v-.505h-1.16v-.673h.888v-.485h-.889v-.66zm3.038.991a2.636 2.636 0 00.016.303l-1.343-1.698a.492.492 0 00-.048-.052.167.167 0 00-.098-.045.512.512 0 00-.071-.004h-.345v2.827h.577v-1.515a5.519 5.519 0 00-.013-.278l1.333 1.684a.27.27 0 00.101.086.312.312 0 00.128.023h.342v-2.827h-.579zm2.544-.737a.71.71 0 01.252-.184.812.812 0 01.332-.065c.066 0 .125.004.178.01a.957.957 0 01.439.167.226.226 0 00.12.039c.03 0 .057-.008.082-.024a.211.211 0 00.065-.063l.19-.29a1.29 1.29 0 00-.433-.271 1.796 1.796 0 00-.618-.109 1.7 1.7 0 00-.618.107 1.313 1.313 0 00-.772.756c-.07.176-.104.37-.104.58 0 .208.037.4.11.576.073.176.174.329.302.458.13.129.281.23.457.302.176.074.367.11.574.11.115 0 .223-.006.324-.017.1-.012.194-.03.283-.055a1.42 1.42 0 00.477-.23v-1.194H19.85v.361c0 .034.012.062.035.084a.135.135 0 00.097.032h.28v.43a1.115 1.115 0 01-.439.085.843.843 0 01-.329-.063.726.726 0 01-.26-.184.862.862 0 01-.172-.295 1.182 1.182 0 01-.062-.4c0-.135.019-.258.057-.369a.828.828 0 01.16-.284m2.814-.759v2.827h1.704v-.524h-1.048v-2.303zm3.509 0h-.66v2.827h.66zm1.53 2.754c.085.033.174.059.265.077.091.018.18.027.269.027.16 0 .303-.024.429-.073a.859.859 0 00.515-.498.986.986 0 00.069-.366.755.755 0 00-.055-.302.667.667 0 00-.143-.212.769.769 0 00-.201-.144 2.111 2.111 0 00-.232-.098 5.346 5.346 0 00-.232-.075 1.527 1.527 0 01-.202-.075.466.466 0 01-.142-.097.193.193 0 01-.055-.142c0-.089.03-.16.09-.212.06-.053.152-.08.275-.08.071 0 .135.01.19.03a.941.941 0 01.149.062l.116.063a.202.202 0 00.096.028.138.138 0 00.083-.023.246.246 0 00.06-.07l.163-.304a.923.923 0 00-.171-.125 1.272 1.272 0 00-.44-.156 1.567 1.567 0 00-.254-.02c-.155 0-.293.023-.413.07a.93.93 0 00-.305.19.801.801 0 00-.252.58.89.89 0 00.055.333.674.674 0 00.343.37c.075.037.152.068.23.094.08.025.156.048.232.069.075.02.141.044.2.071a.418.418 0 01.143.103.236.236 0 01.055.161c0 .114-.034.197-.1.25a.435.435 0 01-.277.078.64.64 0 01-.229-.037 1.039 1.039 0 01-.172-.081 6.312 6.312 0 01-.133-.082.225.225 0 00-.118-.037.172.172 0 00-.083.022.157.157 0 00-.06.056l-.194.307c.055.055.12.106.195.15.075.046.156.085.241.118m4.457-2.754v1.182h-1.149V56.17h-.66v2.827h.66v-1.195h1.149v1.195h.66V56.17zM9.45 52.655H8.29v-.673h.888v-.485H8.29v-.66h1.16v-.504H7.63v2.827h1.82zM12.03 51a.136.136 0 00.083-.023c.01-.006.017-.02.026-.03a2.536 2.536 0 01-.212.012l-.02-.002.027.015a.199.199 0 00.096.028m-1.529.142c0 .132.019.243.055.333a.685.685 0 00.343.37c.076.038.152.069.231.094.08.025.156.048.231.068.075.021.142.045.2.072a.418.418 0 01.143.103.235.235 0 01.055.161c0 .114-.033.197-.099.25a.435.435 0 01-.278.078.638.638 0 01-.228-.037 1.087 1.087 0 01-.172-.081l-.134-.082a.22.22 0 00-.118-.037.17.17 0 00-.143.078l-.194.306c.056.056.12.107.196.152a1.506 1.506 0 00.505.194c.091.018.18.027.269.027.16 0 .304-.024.43-.073a.86.86 0 00.515-.498.984.984 0 00.068-.366.755.755 0 00-.055-.302.667.667 0 00-.142-.212.783.783 0 00-.202-.144 2.088 2.088 0 00-.232-.098 5.182 5.182 0 00-.232-.076 1.508 1.508 0 01-.201-.074.46.46 0 01-.143-.097.194.194 0 01-.054-.142c0-.089.03-.16.09-.212.015-.013.038-.02.056-.03a2.582 2.582 0 01-.568-.234.783.783 0 00-.127.199.79.79 0 00-.065.31m3.633.578v-.896h.341c.083 0 .154.01.215.03.06.022.11.051.15.09a.357.357 0 01.087.136.51.51 0 01.03.177.48.48 0 01-.113.34c-.075.083-.198.123-.369.123zm-.656 1.44h.656v-.945h.341c.196 0 .365-.023.507-.07a.979.979 0 00.355-.198.781.781 0 00.207-.302c.046-.118.068-.247.068-.388a1 1 0 00-.066-.365.762.762 0 00-.204-.293.984.984 0 00-.354-.195 1.642 1.642 0 00-.513-.071h-.864a2.602 2.602 0 01-.133.108zm3.252 0h1.82v-.504h-1.16v-.674h.888v-.485h-.888v-.66h1.16v-.504h-1.82zm3.624-2.336h.264c.17 0 .295.035.375.105.081.07.121.167.121.29 0 .063-.008.12-.027.174a.358.358 0 01-.087.141.413.413 0 01-.154.094.678.678 0 01-.228.034h-.264zm0 1.29h.167c.05 0 .09.008.117.024a.2.2 0 01.073.077l.47.82c.047.084.126.125.236.125h.594l-.602-.984a.489.489 0 00-.1-.118.626.626 0 00-.123-.082.944.944 0 00.244-.133.801.801 0 00.288-.411.893.893 0 00.037-.261c0-.12-.02-.231-.062-.333a.667.667 0 00-.2-.266.977.977 0 00-.353-.176 1.886 1.886 0 00-.522-.063h-.92v2.827h.656zm3.516-.034l.26-.771a3.67 3.67 0 00.126-.394c.022.078.045.15.067.216l.059.174.26.774zm.722-1.747h-.671l-1.095 2.827h.512a.22.22 0 00.138-.044.221.221 0 00.076-.098l.166-.492h1.075l.167.492c.015.042.04.076.077.102.037.027.084.04.14.04h.509zm3.988 0v1.496a3.246 3.246 0 00.016.303l-1.343-1.698a.46.46 0 00-.048-.052.178.178 0 00-.044-.03.195.195 0 00-.053-.015.58.58 0 00-.072-.004h-.345v2.827h.578v-1.515a2.57 2.57 0 00-.013-.278l1.332 1.684c.033.042.066.07.102.086a.312.312 0 00.128.023h.341v-2.827zm1.627.52h.795v2.307h.656v-2.307h.795v-.52h-2.246zm5.243 1.272a.807.807 0 01-.156.284.673.673 0 01-.25.178.874.874 0 01-.336.06.888.888 0 01-.338-.06.67.67 0 01-.25-.178.802.802 0 01-.157-.284 1.237 1.237 0 01-.054-.38c0-.139.018-.265.054-.377a.8.8 0 01.156-.284.677.677 0 01.25-.179.874.874 0 01.34-.062c.125 0 .237.021.335.062a.68.68 0 01.25.179c.067.077.12.172.155.284.037.112.055.238.055.378s-.018.267-.055.379m.323-1.406a1.385 1.385 0 00-.463-.305 1.563 1.563 0 00-.6-.112 1.6 1.6 0 00-.602.11 1.348 1.348 0 00-.763.763 1.509 1.509 0 00-.106.57c0 .205.035.395.105.571a1.362 1.362 0 00.764.764c.181.074.381.111.601.111.22 0 .42-.037.601-.11a1.358 1.358 0 00.76-.765c.07-.176.106-.366.106-.57a1.52 1.52 0 00-.105-.569 1.366 1.366 0 00-.298-.458m-21.609-4.246a1.48 1.48 0 00.105-.566c0-.203-.035-.39-.105-.563a1.307 1.307 0 00-.298-.448 1.353 1.353 0 00-.368-.246l.588 1.97c.027-.048.056-.095.078-.147m3.017.849v-.505h-1.161v-.673h.888v-.485h-.888V45h1.16v-.504h-1.82v2.827zm1.433-.301c.104.105.232.186.382.244.15.059.32.088.508.088s.356-.03.507-.088c.15-.058.277-.14.382-.244a1.08 1.08 0 00.241-.375c.057-.144.085-.303.085-.477v-1.674h-.656v1.674c0 .1-.013.189-.038.267a.555.555 0 01-.11.2.47.47 0 01-.175.124.6.6 0 01-.236.044.599.599 0 01-.236-.044.47.47 0 01-.175-.126.564.564 0 01-.11-.2.863.863 0 01-.038-.267v-1.672h-.656v1.674c0 .174.028.333.084.477.056.145.136.27.24.375m4.566.301v-2.307h.796v-.52h-2.247v.52h.796v2.307zm3.038-.042a.864.864 0 00.515-.498.984.984 0 00.068-.366.755.755 0 00-.055-.302.672.672 0 00-.142-.213.779.779 0 00-.202-.143 2.055 2.055 0 00-.232-.098 5.182 5.182 0 00-.232-.076 1.508 1.508 0 01-.201-.075.466.466 0 01-.143-.097.195.195 0 01-.054-.141c0-.09.03-.16.09-.212.06-.053.152-.08.274-.08.071 0 .135.01.19.03a.96.96 0 01.149.062l.116.063a.205.205 0 00.096.028.136.136 0 00.083-.023.24.24 0 00.06-.07l.164-.305a.947.947 0 00-.172-.124 1.272 1.272 0 00-.44-.156 1.57 1.57 0 00-.253-.02c-.156 0-.293.023-.414.07a.923.923 0 00-.304.19.806.806 0 00-.253.58.89.89 0 00.055.332.68.68 0 00.343.371c.075.037.152.068.231.093.08.026.156.048.23.07.076.02.143.044.202.071a.421.421 0 01.142.103.235.235 0 01.055.161c0 .114-.033.197-.1.25a.435.435 0 01-.277.078.641.641 0 01-.229-.037 1.067 1.067 0 01-.171-.082 9.01 9.01 0 01-.134-.08.22.22 0 00-.118-.038.17.17 0 00-.143.078l-.194.306a.99.99 0 00.196.152 1.506 1.506 0 00.505.194c.091.018.18.027.269.027.16 0 .304-.025.43-.073m3.3-2.788a1.532 1.532 0 00-.3-.028c-.218 0-.418.035-.6.106a1.353 1.353 0 00-.77.756 1.52 1.52 0 00-.108.581c0 .207.032.4.095.576.063.176.154.329.273.457.118.13.262.23.432.303.17.073.363.11.577.11.234 0 .438-.038.609-.114.171-.075.314-.187.428-.336l-.26-.274a.125.125 0 00-.148-.026.252.252 0 00-.05.032.65.65 0 01-.373.17 1.348 1.348 0 01-.163.008.687.687 0 01-.528-.236.858.858 0 01-.162-.284 1.172 1.172 0 01-.059-.386c0-.138.02-.263.06-.374a.845.845 0 01.164-.285.713.713 0 01.254-.18.918.918 0 01.64-.01.59.59 0 01.098.049l.076.048a.748.748 0 00.067.038c.02.01.042.016.065.016a.132.132 0 00.082-.023.277.277 0 00.05-.049l.221-.297a1.09 1.09 0 00-.182-.152 1.26 1.26 0 00-.225-.119 1.468 1.468 0 00-.263-.077m3.519.003v1.182h-1.149v-1.182h-.66v2.827h.66v-1.196h1.149v1.196h.66v-2.827zm-15.947-3.011v-.54a6.745 6.745 0 01-.655-.017v.557zm2.854-.385c.128.13.283.231.464.305.182.074.382.11.602.11.22 0 .42-.036.6-.11a1.364 1.364 0 00.761-.764 1.601 1.601 0 00.075-.879c-.231-.01-.461-.028-.69-.05.032.108.05.226.05.359 0 .14-.019.267-.055.379a.797.797 0 01-.156.284.665.665 0 01-.25.177.868.868 0 01-.335.062.878.878 0 01-.339-.062.657.657 0 01-.25-.177.793.793 0 01-.156-.284 1.186 1.186 0 01-.049-.291 8.689 8.689 0 01-.63.276c.016.07.032.14.059.206.07.176.17.328.299.459m5.327.385v-.524H24.22v-1.233c-.219.017-.437.027-.656.034v1.723zm2.306-2.251l.116.063a.204.204 0 00.096.028.138.138 0 00.083-.023.244.244 0 00.061-.07l.163-.305c-.012-.01-.028-.019-.04-.03-.25.093-.503.177-.76.254.047.004.094.007.132.02.056.019.106.04.149.063m-1.262.566a.68.68 0 00.343.37c.075.037.152.068.231.093l.23.07c.076.02.143.044.202.07a.427.427 0 01.142.104.236.236 0 01.055.16c0 .115-.033.198-.1.25a.438.438 0 01-.277.079.641.641 0 01-.229-.037 1.067 1.067 0 01-.171-.082 6.312 6.312 0 01-.134-.081.224.224 0 00-.118-.037.17.17 0 00-.143.078l-.194.306a.99.99 0 00.196.152 1.548 1.548 0 00.774.22c.16 0 .303-.024.43-.072a.863.863 0 00.515-.498.986.986 0 00.068-.367.672.672 0 00-.197-.514.77.77 0 00-.202-.143 2.083 2.083 0 00-.232-.098 4.892 4.892 0 00-.232-.076 1.508 1.508 0 01-.201-.074.473.473 0 01-.143-.097.195.195 0 01-.054-.142.27.27 0 01.064-.178c-.048.014-.096.03-.145.043-.175.045-.352.08-.528.12-.001.016-.005.032-.005.048 0 .132.018.243.055.333m3.683.002h-.106v-1.144h-.655v2.827h.655V40.28h.16c.06 0 .109.007.144.022.036.015.065.04.088.077l.641.984a.38.38 0 00.04.05.196.196 0 00.051.039c.02.01.042.018.069.023a.53.53 0 00.096.008h.586l-.854-1.312a.493.493 0 00-.112-.127.502.502 0 00-.134-.075.553.553 0 00.192-.17l.06-.081c-.133-.15-.266-.305-.4-.462l-.312.453c-.043.061-.113.091-.21.091"/><path fill="#fff" d="M16.337 60.261a1.808 1.808 0 00-1.37.266c-3.26 2.153-6.041 2.221-8.044.199-1.624-1.64-2.537-4.474-2.506-7.945a2.826 2.826 0 01-.175-.975c0-.466.117-.908.322-1.308.317-2.678 1.151-5.627 2.586-8.636l-1.54-4.809c-6.75 11.084-5.813 21.662-1.278 26.24 1.64 1.655 3.705 2.53 5.97 2.53 2.135 0 4.443-.779 6.675-2.253a1.825 1.825 0 00-.64-3.309"/><path d="M44.672 21.198a.907.907 0 00.182.074c-.216.275-.364.677-.142 1.139.212.44.572.57.895.57.195 0 .377-.048.503-.103a.178.178 0 00-.143-.327c-.027.012-.658.28-.934-.295-.28-.582.327-.979.353-.995a.178.178 0 00-.146-.322c-.059.016-.576.137-.812-.663-.07-.236-.056-.437.042-.597.185-.304.614-.391.618-.392a.178.178 0 00-.067-.35c-.023.005-.585.116-.854.555-.153.25-.18.547-.08.885.117.398.313.674.585.82m3.692 6.987a.79.79 0 00.605.06.178.178 0 10-.103-.34.437.437 0 01-.547-.294.44.44 0 01.293-.547.178.178 0 10-.103-.341.797.797 0 00-.145 1.462m-5.116-14.367a.684.684 0 00.276.056.789.789 0 00.305-.062.177.177 0 00.09-.234.179.179 0 00-.235-.091.408.408 0 01-.296.003c-.1-.045-.178-.149-.233-.31-.05-.15-.05-.273.002-.36.08-.138.266-.175.273-.177a.178.178 0 00-.061-.35c-.036.006-.353.067-.517.342-.108.182-.12.403-.034.66.088.26.233.437.43.523"/><path fill="#fff" d="M37.535 58.177l-.048-.516c-.001-.165.01-.311.036-.485l.136-.568.014-.036.142-.337.015-.032.023-.047.268-.42a.868.868 0 01.022-.029l.262-.304a2.9 2.9 0 01.343-.298l.07-.053.022-.015a2.685 2.685 0 00-2.03 2.601c0 1.253.864 2.308 2.027 2.6a3.192 3.192 0 01-.986-1.123 3.164 3.164 0 01-.316-.938m1.424-5.826l-.055-.52a2.748 2.748 0 01.04-.491l.16-.578a.98.98 0 01.015-.034l.162-.336a1.01 1.01 0 01.018-.033l.024-.044.309-.425.024-.027.299-.304c.109-.097.22-.182.351-.27-1.185.376-2.032 1.362-2.032 2.517 0 1.153.844 2.138 2.027 2.516a3.256 3.256 0 01-.979-1.027 2.924 2.924 0 01-.363-.944m-1.424-5.847l-.048-.516c-.001-.165.01-.312.036-.485l.136-.567.014-.038.142-.336.015-.032.023-.047.267-.42a.956.956 0 01.023-.029l.262-.304a2.9 2.9 0 01.343-.298l.07-.053.022-.015a2.685 2.685 0 00-2.03 2.601c0 1.253.864 2.308 2.027 2.6a3.192 3.192 0 01-.986-1.124 3.164 3.164 0 01-.316-.937m2.116-5.841l-.048-.517c0-.164.011-.31.036-.484l.137-.568a.28.28 0 01.014-.037l.18-.416.274-.428.277-.325a3.2 3.2 0 01.343-.297l.071-.053.022-.015a2.685 2.685 0 00-2.03 2.6c0 1.254.864 2.308 2.027 2.6a3.192 3.192 0 01-.987-1.123 3.16 3.16 0 01-.316-.937"/></svg>